<svg width="32" height="32" viewBox="0 0 32 32" fill="none" xmlns="http://www.w3.org/2000/svg">
<rect width="32" height="32" rx="6" fill="#DDE7F7"/>
<path d="M23.102 22.1807C23.5972 22.1807 24 22.5887 24 23.0903C24 23.5929 23.5972 24 23.102 24H18.0264C17.5312 24 17.1284 23.5929 17.1284 23.0903C17.1284 22.5887 17.5312 22.1807 18.0264 22.1807H23.102ZM19.5821 8.62139L20.8932 9.66292C21.4309 10.0834 21.7893 10.6376 21.9119 11.2204C22.0534 11.8616 21.9025 12.4913 21.478 13.0359L13.6679 23.1359C13.3095 23.5946 12.7813 23.8526 12.2153 23.8621L9.10257 23.9003C8.93279 23.9003 8.7913 23.7857 8.75357 23.6232L8.04613 20.556C7.92351 19.9922 8.04613 19.4093 8.40457 18.9602L13.9415 11.7938C14.0358 11.6791 14.2056 11.6609 14.3188 11.746L16.6486 13.5997C16.7995 13.7239 17.007 13.7908 17.224 13.7621C17.6862 13.7048 17.9974 13.2844 17.9503 12.8353C17.922 12.606 17.8088 12.4148 17.6579 12.2715C17.6107 12.2333 15.3941 10.456 15.3941 10.456C15.2526 10.3413 15.2243 10.1311 15.3375 9.98876L16.2147 8.85072C17.0259 7.80919 18.4408 7.71364 19.5821 8.62139Z" fill="#3491FF"/>
</svg>
