<svg width="32" height="32" viewBox="0 0 32 32" fill="none" xmlns="http://www.w3.org/2000/svg">
<rect width="32" height="32" rx="6" fill="#FFE6E7"/>
<path d="M22.0471 11.4873C20.9738 11.3807 19.9004 11.3007 18.8204 11.2407V11.234L18.6738 10.3673C18.5738 9.75398 18.4271 8.83398 16.8671 8.83398H15.1204C13.5671 8.83398 13.4204 9.71398 13.3138 10.3607L13.1738 11.214C12.5538 11.254 11.9338 11.294 11.3138 11.354L9.95376 11.4873C9.67376 11.514 9.47376 11.7607 9.50043 12.034C9.5271 12.3073 9.7671 12.5073 10.0471 12.4807L11.4071 12.3473C14.9004 12.0007 18.4204 12.134 21.9538 12.4873C21.9738 12.4873 21.9871 12.4873 22.0071 12.4873C22.2604 12.4873 22.4804 12.294 22.5071 12.034C22.5271 11.7607 22.3271 11.514 22.0471 11.4873Z" fill="#C74950"/>
<path d="M20.8192 13.426C20.6592 13.2593 20.4392 13.166 20.2125 13.166H11.7858C11.5592 13.166 11.3325 13.2593 11.1792 13.426C11.0258 13.5927 10.9392 13.8193 10.9525 14.0527L11.3658 20.8927C11.4392 21.906 11.5325 23.1727 13.8592 23.1727H18.1392C20.4658 23.1727 20.5592 21.9127 20.6325 20.8927L21.0458 14.0593C21.0592 13.8193 20.9725 13.5927 20.8192 13.426ZM17.1058 19.8327H14.8858C14.6125 19.8327 14.3858 19.606 14.3858 19.3327C14.3858 19.0593 14.6125 18.8327 14.8858 18.8327H17.1058C17.3792 18.8327 17.6058 19.0593 17.6058 19.3327C17.6058 19.606 17.3792 19.8327 17.1058 19.8327ZM17.6658 17.166H14.3325C14.0592 17.166 13.8325 16.9393 13.8325 16.666C13.8325 16.3927 14.0592 16.166 14.3325 16.166H17.6658C17.9392 16.166 18.1658 16.3927 18.1658 16.666C18.1658 16.9393 17.9392 17.166 17.6658 17.166Z" fill="#C74950"/>
</svg>
