<svg width="40" height="40" viewBox="0 0 50 50" fill="none" xmlns="http://www.w3.org/2000/svg">
                        <rect width="50" height="50" rx="6" fill="#DDE7F7" />
                        <path d="M35.653 34.271C36.3958 34.271 37 34.883 37 35.6355C37 36.3894 36.3958 37 35.653 37H28.0396C27.2968 37 26.6926 36.3894 26.6926 35.6355C26.6926 34.883 27.2968 34.271 28.0396 34.271H35.653ZM30.3731 13.9321L32.3398 15.4944C33.1463 16.125 33.684 16.9563 33.8679 17.8307C34.0801 18.7924 33.8537 19.7369 33.217 20.5539L21.5019 35.7039C20.9642 36.3919 20.1719 36.7788 19.323 36.7932L14.6539 36.8505C14.3992 36.8505 14.187 36.6785 14.1304 36.4349L13.0692 31.834C12.8853 30.9883 13.0692 30.114 13.6069 29.4404L21.9122 18.6906C22.0537 18.5186 22.3083 18.4914 22.4781 18.619L25.9729 21.3996C26.1993 21.5859 26.5105 21.6862 26.8359 21.6432C27.5292 21.5572 27.9961 20.9266 27.9254 20.2529C27.883 19.9089 27.7132 19.6223 27.4868 19.4073C27.416 19.3499 24.0911 16.684 24.0911 16.684C23.8789 16.512 23.8364 16.1967 24.0062 15.9831L25.322 14.2761C26.5388 12.7138 28.6611 12.5705 30.3731 13.9321Z" fill="#3491FF" />
                    </svg>