<svg width="100" height="100" viewBox="0 0 100 100" fill="none" xmlns="http://www.w3.org/2000/svg">
<circle cx="50" cy="50" r="50" fill="url(#paint0_linear_1364_1343)"/>
<path d="M30.4738 21.8758C30.0695 22.334 30.0156 23.8164 30.0156 37.5086V52.6562H33.25H36.4844V37.0234V21.3906H33.7082C31.3363 21.3906 30.8512 21.4715 30.4738 21.8758Z" fill="#00C673"/>
<path d="M38.6406 37.0234V52.6562H54.8125H70.9844V43.4922V34.3281H65.3781C61.3891 34.3281 59.691 34.2473 59.4484 34.0047C59.2059 33.7621 59.125 31.9562 59.125 27.5359V21.3906H48.8828H38.6406V37.0234Z" fill="#00C673"/>
<path d="M61.2812 27.7246V32.1719H65.3242C67.5613 32.1719 69.3672 32.118 69.3672 32.0102C69.3672 31.8754 61.5238 23.2773 61.3621 23.2773C61.3082 23.2773 61.2812 25.2719 61.2812 27.7246Z" fill="#00C673"/>
<path d="M25.7031 61.2812V67.75H50.5H75.2969V61.2812V54.8125H50.5H25.7031V61.2812ZM46.6457 56.6992C47.5082 57.2113 48.0203 58.2895 47.6699 58.8285C47.3465 59.3676 46.5648 59.125 45.9719 58.3164C45.5137 57.6965 45.1633 57.5078 44.4355 57.5078C43.6 57.5078 42.6836 58.0738 42.6836 58.559C42.6836 58.9902 43.4113 59.3945 45.2172 59.9336C47.5082 60.6613 48.0742 61.2004 48.0742 62.6828C48.0473 63.9227 47.8047 64.4078 46.7266 65.1355C45.7832 65.7824 43.3305 65.7555 42.1984 65.0547C41.1203 64.4078 40.5813 63.3297 40.9855 62.6828C41.4168 61.9551 42.0637 62.1437 42.7375 63.168C43.1957 63.8687 43.6 64.1383 44.2199 64.1922C45.3789 64.3 46.1875 63.8418 46.1875 63.0602C46.1875 62.1977 45.7832 61.9281 43.6809 61.2812C42.6027 60.9309 41.7402 60.4996 41.4707 60.1223C40.6352 58.9363 41.1742 56.9688 42.5219 56.4297C43.573 55.9984 45.7293 56.1332 46.6457 56.6992ZM56.3758 56.4027C56.5914 56.5375 56.6992 56.8609 56.6453 57.1305C56.5914 57.5348 56.268 57.6695 55.1359 57.7234L53.7344 57.8043V61.2812C53.7344 63.168 53.6535 64.9199 53.5727 65.1625C53.357 65.7285 52.225 65.7285 52.0094 65.1625C51.9285 64.9199 51.8477 63.168 51.8477 61.2543V57.7773H50.5C49.0445 57.7773 48.5324 57.3191 49.1523 56.5645C49.4219 56.241 50.1766 56.1602 52.7641 56.1602C54.543 56.1602 56.1871 56.268 56.3758 56.4027ZM64.4617 56.4027C64.6773 56.5375 64.7852 56.8609 64.7313 57.1305C64.6773 57.5348 64.3539 57.6695 63.2219 57.7234L61.8203 57.8043V61.2812C61.8203 63.168 61.7395 64.9199 61.6586 65.1625C61.443 65.7285 60.3109 65.7285 60.0953 65.1625C60.0145 64.9199 59.9336 63.168 59.9336 61.2812V57.8043L58.532 57.7234C57.4 57.6695 57.0766 57.5348 57.0227 57.1305C56.8609 56.3219 57.4539 56.1602 60.877 56.1602C62.6559 56.1602 64.273 56.268 64.4617 56.4027ZM38.5867 63.9496C38.8023 64.0574 38.9102 64.4617 38.8562 64.8121C38.8023 65.2973 38.6137 65.459 38.1016 65.459C37.5895 65.459 37.4008 65.2973 37.3469 64.8121C37.266 64.273 37.6434 63.707 38.1016 63.707C38.1824 63.707 38.398 63.8148 38.5867 63.9496Z" fill="#3491FF"/>
<path d="M30.0162 74.2996C30.0162 79.798 29.8814 79.6093 33.7357 79.6093H36.485V74.7578V69.9062H33.2506H30.0162V74.2996Z" fill="#00C673"/>
<path d="M38.6406 74.7578V79.6094H54.3543C69.2594 79.6094 70.1219 79.5824 70.5262 79.1242C70.9035 78.693 70.9844 77.9383 70.9844 74.2727V69.9062H54.8125H38.6406V74.7578Z" fill="#00C673"/>
<defs>
<linearGradient id="paint0_linear_1364_1343" x1="0" y1="0" x2="104.167" y2="93.5185" gradientUnits="userSpaceOnUse">
<stop stop-color="#92DCDF"/>
<stop offset="0.0001" stop-color="#DEFFF1"/>
<stop offset="1" stop-color="#B0D3FE"/>
</linearGradient>
</defs>
</svg>
