<svg width="100" height="100" viewBox="0 0 100 100" fill="none" xmlns="http://www.w3.org/2000/svg">
<circle cx="50" cy="50" r="50" fill="url(#paint0_linear_2189_1483)"/>
<g clip-path="url(#clip0_2189_1483)">
<path d="M67.3649 41.1167C67.1703 41.783 67.3735 42.5587 67.8185 42.8498C70.6047 44.6719 72.4051 48.7893 72.4051 53.3395C72.4051 56.9463 71.2724 60.2809 69.4151 62.4165L70.0124 57.9211C70.1073 57.2082 69.7978 56.5154 69.3215 56.3735C68.8452 56.2317 68.3822 56.6947 68.2875 57.4077L67.308 64.7787C67.2135 65.4917 67.5226 66.1845 67.9989 66.3263L72.9235 67.7925C73.3998 67.9343 73.8628 67.4713 73.9575 66.7584C73.9689 66.6717 73.9746 66.5853 73.9746 66.5002C73.9746 65.8851 73.6849 65.3353 73.2666 65.2107L70.5704 64.4079C72.8053 61.7781 74.1637 57.7216 74.1637 53.3395C74.1637 47.7431 71.9495 42.6787 68.5227 40.4376C68.0778 40.1465 67.5593 40.4506 67.3649 41.1167Z" fill="white"/>
<path d="M67.3649 41.1167C67.1703 41.783 67.3735 42.5587 67.8185 42.8498C70.6047 44.6719 72.4051 48.7893 72.4051 53.3395C72.4051 56.9463 71.2724 60.2809 69.4151 62.4165L70.0124 57.9211C70.1073 57.2082 69.7978 56.5154 69.3215 56.3735C68.8452 56.2317 68.3822 56.6947 68.2875 57.4077L67.308 64.7787C67.2135 65.4917 67.5226 66.1845 67.9989 66.3263L72.9235 67.7925C73.3998 67.9343 73.8628 67.4713 73.9575 66.7584C73.9689 66.6717 73.9746 66.5853 73.9746 66.5002C73.9746 65.8851 73.6849 65.3353 73.2666 65.2107L70.5704 64.4079C72.8053 61.7781 74.1637 57.7216 74.1637 53.3395C74.1637 47.7431 71.9495 42.6787 68.5227 40.4376C68.0778 40.1465 67.5593 40.4506 67.3649 41.1167Z" stroke="#3491FF"/>
<path d="M23.9323 41.3868C23.8377 42.0998 24.1469 42.7928 24.6232 42.9346L27.3198 43.7373C25.085 46.3674 23.7266 50.4238 23.7266 54.8055C23.7266 60.402 25.9409 65.4664 29.3676 67.7077C29.8126 67.9987 30.331 67.6946 30.5255 67.0285C30.5756 66.8569 30.5993 66.6782 30.5993 66.5022C30.5993 65.9949 30.4022 65.5115 30.0718 65.2953C27.2856 63.473 25.4852 59.3555 25.4852 54.8054C25.4852 51.199 26.6176 47.8646 28.4748 45.7291L27.8773 50.2242C27.7826 50.9373 28.0919 51.6301 28.5682 51.772C29.0445 51.9138 29.5074 51.4508 29.6023 50.7379L30.582 43.3666C30.5932 43.2814 30.5988 43.1954 30.5988 43.1097C30.5988 42.8513 30.548 42.5966 30.4506 42.3786C30.3211 42.0883 30.1198 41.8869 29.8909 41.8189L24.9662 40.3527C24.49 40.2108 24.027 40.6739 23.9323 41.3868Z" fill="white"/>
<path d="M23.9323 41.3868C23.8377 42.0998 24.1469 42.7928 24.6232 42.9346L27.3198 43.7373C25.085 46.3674 23.7266 50.4238 23.7266 54.8055C23.7266 60.402 25.9409 65.4664 29.3676 67.7077C29.8126 67.9987 30.331 67.6946 30.5255 67.0285C30.5756 66.8569 30.5993 66.6782 30.5993 66.5022C30.5993 65.9949 30.4022 65.5115 30.0718 65.2953C27.2856 63.473 25.4852 59.3555 25.4852 54.8054C25.4852 51.199 26.6176 47.8646 28.4748 45.7291L27.8773 50.2242C27.7826 50.9373 28.0919 51.6301 28.5682 51.772C29.0445 51.9138 29.5074 51.4508 29.6023 50.7379L30.582 43.3666C30.5932 43.2814 30.5988 43.1954 30.5988 43.1097C30.5988 42.8513 30.548 42.5966 30.4506 42.3786C30.3211 42.0883 30.1198 41.8869 29.8909 41.8189L24.9662 40.3527C24.49 40.2108 24.027 40.6739 23.9323 41.3868Z" stroke="#3491FF"/>
<path d="M50.0731 44.8376C52.999 44.8376 55.3708 42.4658 55.3708 39.5399C55.3708 36.6141 52.999 34.2422 50.0731 34.2422C47.1473 34.2422 44.7754 36.6141 44.7754 39.5399C44.7754 42.4658 47.1473 44.8376 50.0731 44.8376Z" stroke="#3491FF"/>
<path d="M50.453 42.9325L48.0236 39.8929L48.0377 39.2904C49.1778 39.3691 50.0642 39.2484 50.2705 38.1698L47.841 38.156L48.2342 37.4975L50.1721 37.5254C49.8769 36.9117 49.0648 36.8361 47.7988 36.8811L48.2342 36.2367L52.3489 36.2305L51.9416 36.867H50.8042C51.0121 37.0865 51.1642 37.3389 51.1693 37.5534L52.3489 37.5394L51.9416 38.1697L51.1552 38.1837C51.0324 39.124 50.1685 39.6807 49.0768 39.8086L51.5226 42.9317L50.4531 42.9323L50.453 42.9325Z" fill="#3491FF"/>
<path d="M64.1486 44.3201V47.5842H60.8848L60.8928 47.3344C60.945 45.7023 62.2658 44.3812 63.8989 44.3282L64.1486 44.3201Z" stroke="black" stroke-width="0.5"/>
<path d="M60.8928 32.2279C60.8928 32.2279 60.8928 32.2279 60.8928 32.2279L60.8848 31.9783H64.1486V35.2423L63.8989 35.2342C62.2658 35.1812 60.945 33.8601 60.8928 32.2279Z" stroke="black" stroke-width="0.5"/>
<path d="M39.2519 47.3343L39.2601 47.5842H35.9961V44.3201L36.2458 44.3282C36.2459 44.3282 36.2459 44.3282 36.2459 44.3282C37.8782 44.3811 39.199 45.7021 39.2519 47.3343Z" stroke="black" stroke-width="0.5"/>
<path d="M36.2458 35.2342L35.9961 35.2423V31.9783H39.2601L39.2519 32.2279V32.2279C39.199 33.8602 37.8781 35.1812 36.2458 35.2342Z" stroke="black" stroke-width="0.5"/>
<mask id="path-12-inside-1_2189_1483" fill="white">
<path d="M64.4352 31.1636H35.7099C35.4181 31.1636 35.1816 31.4 35.1816 31.6919V47.8705C35.1816 48.1623 35.4181 48.3988 35.7099 48.3988H64.4352C64.727 48.3988 64.9635 48.1623 64.9635 47.8705V31.6919C64.9635 31.4 64.727 31.1636 64.4352 31.1636ZM36.2382 32.2201H39.0103C38.9615 33.7271 37.7452 34.9435 36.2382 34.9923V32.2201ZM36.2382 47.3422V44.57C37.7452 44.6189 38.9615 45.8352 39.0103 47.3422H36.2382ZM63.9069 47.3422H61.1348C61.183 45.8352 62.3999 44.6189 63.9069 44.57V47.3422ZM63.9069 43.5148C61.8176 43.5637 60.1284 45.2528 60.0789 47.3422H40.0656C40.0167 45.2528 38.3269 43.5637 36.2382 43.5148V36.0476C38.3269 35.9987 40.0167 34.3095 40.0656 32.2201H60.0789C60.1284 34.3095 61.8176 35.9987 63.9069 36.0476V43.5148ZM63.9069 34.9923C62.3999 34.9435 61.183 33.7271 61.1348 32.2201H63.9069V34.9923Z"/>
</mask>
<path d="M64.4352 31.1636H35.7099C35.4181 31.1636 35.1816 31.4 35.1816 31.6919V47.8705C35.1816 48.1623 35.4181 48.3988 35.7099 48.3988H64.4352C64.727 48.3988 64.9635 48.1623 64.9635 47.8705V31.6919C64.9635 31.4 64.727 31.1636 64.4352 31.1636ZM36.2382 32.2201H39.0103C38.9615 33.7271 37.7452 34.9435 36.2382 34.9923V32.2201ZM36.2382 47.3422V44.57C37.7452 44.6189 38.9615 45.8352 39.0103 47.3422H36.2382ZM63.9069 47.3422H61.1348C61.183 45.8352 62.3999 44.6189 63.9069 44.57V47.3422ZM63.9069 43.5148C61.8176 43.5637 60.1284 45.2528 60.0789 47.3422H40.0656C40.0167 45.2528 38.3269 43.5637 36.2382 43.5148V36.0476C38.3269 35.9987 40.0167 34.3095 40.0656 32.2201H60.0789C60.1284 34.3095 61.8176 35.9987 63.9069 36.0476V43.5148ZM63.9069 34.9923C62.3999 34.9435 61.183 33.7271 61.1348 32.2201H63.9069V34.9923Z" fill="#00C673"/>
<path d="M36.2382 32.2201V29.2201H33.2382V32.2201H36.2382ZM39.0103 32.2201L42.0088 32.3172L42.109 29.2201H39.0103V32.2201ZM36.2382 34.9923H33.2382V38.091L36.3353 37.9907L36.2382 34.9923ZM36.2382 47.3422H33.2382V50.3422H36.2382V47.3422ZM36.2382 44.57L36.3355 41.5716L33.2382 41.471V44.57H36.2382ZM39.0103 47.3422V50.3422H42.109L42.0088 47.2451L39.0103 47.3422ZM63.9069 47.3422V50.3422H66.9069V47.3422H63.9069ZM61.1348 47.3422L58.1363 47.2463L58.0372 50.3422H61.1348V47.3422ZM63.9069 44.57H66.9069V41.471L63.8096 41.5716L63.9069 44.57ZM63.9069 43.5148L63.9771 46.514L66.9069 46.4454V43.5148H63.9069ZM60.0789 47.3422V50.3422H63.0087L63.0781 47.4132L60.0789 47.3422ZM40.0656 47.3422L37.0665 47.4124L37.135 50.3422H40.0656V47.3422ZM36.2382 43.5148H33.2382V46.4454L36.168 46.514L36.2382 43.5148ZM36.2382 36.0476L36.168 33.0484L33.2382 33.117V36.0476H36.2382ZM40.0656 32.2201V29.2201H37.135L37.0665 32.1499L40.0656 32.2201ZM60.0789 32.2201L63.0781 32.1491L63.0087 29.2201H60.0789V32.2201ZM63.9069 36.0476H66.9069V33.117L63.9771 33.0484L63.9069 36.0476ZM63.9069 34.9923L63.8098 37.9907L66.9069 38.091V34.9923H63.9069ZM61.1348 32.2201V29.2201H58.0372L58.1363 32.3161L61.1348 32.2201ZM63.9069 32.2201H66.9069V29.2201H63.9069V32.2201ZM64.4352 28.1636H35.7099V34.1636H64.4352V28.1636ZM35.7099 28.1636C33.7613 28.1636 32.1816 29.7431 32.1816 31.6919H38.1816C38.1816 33.0569 37.0749 34.1636 35.7099 34.1636V28.1636ZM32.1816 31.6919V47.8705H38.1816V31.6919H32.1816ZM32.1816 47.8705C32.1816 49.8192 33.7612 51.3988 35.7099 51.3988V45.3988C37.0749 45.3988 38.1816 46.5055 38.1816 47.8705H32.1816ZM35.7099 51.3988H64.4352V45.3988H35.7099V51.3988ZM64.4352 51.3988C66.3839 51.3988 67.9635 49.8192 67.9635 47.8705H61.9635C61.9635 46.5055 63.0702 45.3988 64.4352 45.3988V51.3988ZM67.9635 47.8705V31.6919H61.9635V47.8705H67.9635ZM67.9635 31.6919C67.9635 29.7431 66.3838 28.1636 64.4352 28.1636V34.1636C63.0702 34.1636 61.9635 33.0569 61.9635 31.6919H67.9635ZM36.2382 35.2201H39.0103V29.2201H36.2382V35.2201ZM36.0119 32.123C36.0132 32.0834 36.0321 32.0493 36.0498 32.0317C36.0674 32.0141 36.1015 31.9951 36.1411 31.9938L36.3353 37.9907C39.4229 37.8907 41.9088 35.4049 42.0088 32.3172L36.0119 32.123ZM39.2382 34.9923V32.2201H33.2382V34.9923H39.2382ZM39.2382 47.3422V44.57H33.2382V47.3422H39.2382ZM36.1409 47.5684C36.1013 47.5671 36.0673 47.5482 36.0497 47.5306C36.0321 47.513 36.0132 47.4789 36.0119 47.4393L42.0088 47.2451C41.9088 44.1574 39.4229 41.6718 36.3355 41.5716L36.1409 47.5684ZM39.0103 44.3422H36.2382V50.3422H39.0103V44.3422ZM63.9069 44.3422H61.1348V50.3422H63.9069V44.3422ZM64.1332 47.4382C64.1319 47.4786 64.1126 47.5131 64.095 47.5308C64.0775 47.5483 64.0436 47.5671 64.0042 47.5684L63.8096 41.5716C60.7231 41.6717 58.2352 44.1567 58.1363 47.2463L64.1332 47.4382ZM60.9069 44.57V47.3422H66.9069V44.57H60.9069ZM63.8367 40.5156C60.1454 40.602 57.1671 43.5807 57.0797 47.2712L63.0781 47.4132C63.0896 46.9249 63.4897 46.5254 63.9771 46.514L63.8367 40.5156ZM60.0789 44.3422H40.0656V50.3422H60.0789V44.3422ZM43.0648 47.272C42.9784 43.5804 39.9986 40.602 36.3084 40.5156L36.168 46.514C36.6553 46.5254 37.055 46.9252 37.0665 47.4124L43.0648 47.272ZM39.2382 43.5148V36.0476H33.2382V43.5148H39.2382ZM36.3084 39.0467C39.9987 38.9603 42.9784 35.9818 43.0648 32.2903L37.0665 32.1499C37.055 32.6371 36.6552 33.037 36.168 33.0484L36.3084 39.0467ZM40.0656 35.2201H60.0789V29.2201H40.0656V35.2201ZM57.0797 32.2912C57.1671 35.9815 60.1454 38.9603 63.8367 39.0467L63.9771 33.0484C63.4898 33.037 63.0896 32.6374 63.0781 32.1491L57.0797 32.2912ZM60.9069 36.0476V43.5148H66.9069V36.0476H60.9069ZM64.004 31.9938C64.0435 31.9951 64.0774 32.014 64.095 32.0315C64.1126 32.0492 64.1319 32.0837 64.1332 32.1242L58.1363 32.3161C58.2352 35.4056 60.7231 37.8907 63.8098 37.9907L64.004 31.9938ZM61.1348 35.2201H63.9069V29.2201H61.1348V35.2201ZM60.9069 32.2201V34.9923H66.9069V32.2201H60.9069Z" fill="#00C673" mask="url(#path-12-inside-1_2189_1483)"/>
<path d="M62.187 58.584L50.2272 54.1057C50.1091 54.0618 49.9782 54.0618 49.8601 54.1057L37.8168 58.6154C37.6053 58.6769 37.3496 59.0107 37.5388 59.3523V71.9974C37.5388 72.2208 37.6803 72.4193 37.8916 72.4924L49.7425 76.5828C49.8129 76.6231 49.8672 76.6586 49.9913 76.6751C50.1654 76.6982 50.2756 76.6493 50.2764 76.6491L62.3197 72.4924C62.531 72.4193 62.6727 72.2208 62.6727 71.9974V59.1058C62.677 58.8548 62.3827 58.6534 62.187 58.584ZM60.5938 59.1058L50.0751 63.0448L46.9183 61.8629L56.9369 57.7364L60.5938 59.1058ZM55.4964 57.1969L44.9685 61.5331L44.7093 64.0515L42.7492 63.2619V60.9246L53.6686 56.5123L55.4964 57.1969ZM50.0436 55.155L52.2182 55.9693L42.0979 60.058L39.5243 59.0941L50.0436 55.155ZM38.586 59.8842L41.702 61.0511V63.9686L45.6087 65.5427L45.9088 62.6261L49.5822 64.0017V75.4193L38.586 71.6241V59.8842ZM61.6254 71.6241L50.6294 75.4193V63.9783L61.6254 59.861V71.6241Z" fill="#3491FF"/>
</g>
<defs>
<linearGradient id="paint0_linear_2189_1483" x1="0" y1="0" x2="104.167" y2="93.5185" gradientUnits="userSpaceOnUse">
<stop stop-color="#92DCDF"/>
<stop offset="0.0001" stop-color="#DEFFF1"/>
<stop offset="1" stop-color="#B0D3FE"/>
</linearGradient>
<clipPath id="clip0_2189_1483">
<rect width="55" height="55" fill="white" transform="translate(22 22)"/>
</clipPath>
</defs>
</svg>
