<svg width="100" height="100" viewBox="0 0 100 100" fill="none" xmlns="http://www.w3.org/2000/svg">
<circle cx="50" cy="50" r="50" fill="url(#paint0_linear_1133_14003)"/>
<path d="M46.1186 56.0152C46.1186 55.0863 45.3584 54.4106 44.5132 54.4106H24.4061C23.4768 54.4106 22.8008 55.1705 22.8008 56.0152V66.6544H46.1183L46.1186 56.0152Z" fill="#00C673"/>
<path d="M22.8008 72.5645C22.8008 73.4934 23.561 74.169 24.4061 74.169H26.8558C26.9401 76.6175 28.8836 78.56 31.3335 78.56C33.7832 78.56 35.7268 76.6181 35.8111 74.169H45.7799C45.8641 76.6175 47.8076 78.56 50.2575 78.56C52.7072 78.56 54.6508 76.6181 54.7351 74.169H57.1849C58.1142 74.169 58.7902 73.4092 58.7902 72.5645V69.1023H22.8017L22.8008 72.5645ZM50.1735 72.0579C51.2719 72.0579 52.2012 72.9868 52.2012 74.0846C52.2012 75.1825 51.2719 76.1114 50.1735 76.1114C49.0751 76.1114 48.1457 75.1825 48.1457 74.0846C48.1457 72.9868 49.0751 72.0579 50.1735 72.0579ZM31.2491 72.0579C32.3476 72.0579 33.2769 72.9868 33.2769 74.0846C33.2769 75.1825 32.3476 76.1114 31.2491 76.1114C30.1507 76.1114 29.2214 75.1825 29.2214 74.0846C29.3062 72.9867 30.1513 72.0579 31.2491 72.0579Z" fill="#3491FF"/>
<path d="M56.0871 22.9152C46.9629 23.9283 39.5283 31.1902 38.3456 40.2254C37.8387 44.1941 38.4298 47.9096 39.9509 51.2028C40.12 51.6251 40.5426 51.8784 41.0494 51.8784C41.8944 51.8784 42.4855 50.9495 42.1478 50.1897C41.0494 47.8254 40.5425 45.2079 40.6274 42.4212C40.8808 33.3017 48.1465 25.7021 57.2707 25.1955C67.5777 24.6041 76.195 32.7106 76.195 42.9279C76.195 51.4562 70.1122 58.6337 62.0863 60.3225C61.5795 60.4067 61.1569 60.9139 61.1569 61.5046C61.1569 62.2645 61.8329 62.8558 62.5931 62.6868C71.7169 60.8279 78.5605 52.7219 78.5605 43.0107C78.5605 31.1045 68.2535 21.6474 56.0878 22.914L56.0871 22.9152Z" fill="#3491FF"/>
<path d="M52.7066 56.5225H48.4824V66.6551H58.6203V62.4331L52.7066 56.5225ZM56.0857 64.1218H51.0163V59.0551H51.6923L56.0856 63.4461L56.0857 64.1218Z" fill="#00C673"/>
<path d="M54.3967 43.3489H56.3396C59.0434 43.3489 61.2397 41.3222 61.6623 38.7894H64.7037C65.3796 38.7894 65.8864 38.2829 65.8864 37.6073C65.8864 36.9317 65.3796 36.4252 64.7037 36.4252H61.4931C61.324 35.9186 61.0706 35.4121 60.8172 34.9897H64.7037C65.3797 34.9897 65.8865 34.4832 65.8865 33.8076C65.8865 33.132 65.3797 32.6255 64.7037 32.6255H51.9464C51.2705 32.6255 50.7637 33.132 50.7637 33.8076C50.7637 34.4832 51.2705 34.9897 51.9464 34.9897H56.3397C57.4382 34.9897 58.3675 35.5811 58.8744 36.4252H51.9464C51.2705 36.4252 50.7637 36.9317 50.7637 37.6073C50.7637 38.2829 51.2705 38.7894 51.9464 38.7894H59.212C58.8743 40.0558 57.6916 40.9847 56.3397 40.9847H52.1155C51.6087 40.9847 51.1862 41.238 50.9328 41.7445C50.7637 42.1669 50.7637 42.6734 51.1019 43.0957L58.621 52.5528C58.8744 52.8061 59.2126 52.9752 59.5503 52.9752C59.8037 52.9752 60.0571 52.8909 60.3105 52.7219C60.8173 52.2996 60.9022 51.5398 60.4797 51.0332L54.3967 43.3489Z" fill="#00C673"/>
<defs>
<linearGradient id="paint0_linear_1133_14003" x1="0" y1="0" x2="104.167" y2="93.5185" gradientUnits="userSpaceOnUse">
<stop stop-color="#92DCDF"/>
<stop offset="0.0001" stop-color="#DEFFF1"/>
<stop offset="1" stop-color="#B0D3FE"/>
</linearGradient>
</defs>
</svg>
