<svg width="100" height="100" viewBox="0 0 100 100" fill="none" xmlns="http://www.w3.org/2000/svg">
<circle cx="50" cy="50" r="50" fill="url(#paint0_linear_1696_1351)"/>
<path d="M58.6227 32.6576C58.6227 31.1191 57.3635 30 55.9637 30H22.659C21.1197 30 20 31.2585 20 32.6576V50.2802H58.6222L58.6227 32.6576Z" fill="#00C673"/>
<path d="M20 60.0691C20 61.6077 21.2592 62.7268 22.659 62.7268H26.7167C26.8562 66.7823 30.0754 69.9999 34.1332 69.9999C38.1909 69.9999 41.4101 66.7833 41.5498 62.7268H58.0617C58.2013 66.7823 61.4204 69.9999 65.4783 69.9999C69.5359 69.9999 72.7552 66.7833 72.8949 62.7268H76.9525C78.4918 62.7268 79.6115 61.4682 79.6115 60.0691V54.3345H20.0015L20 60.0691ZM65.3391 59.2301C67.1586 59.2301 68.6978 60.7686 68.6978 62.5871C68.6978 64.4055 67.1585 65.944 65.3391 65.944C63.5197 65.944 61.9804 64.4055 61.9804 62.5871C61.9804 60.7686 63.5197 59.2301 65.3391 59.2301ZM33.9935 59.2301C35.813 59.2301 37.3522 60.7686 37.3522 62.5871C37.3522 64.4055 35.8129 65.944 33.9935 65.944C32.1742 65.944 30.6348 64.4055 30.6348 62.5871C30.7754 60.7685 32.1752 59.2301 33.9935 59.2301Z" fill="#3491FF"/>
<path d="M69.5358 33.498H62.5391V50.2814H79.3311V43.2882L69.5358 33.498ZM75.1328 46.0852H66.7361V37.6929H67.8557L75.1326 44.9661L75.1328 46.0852Z" fill="#00C673"/>
<path d="M48.0717 39.0063L48.0603 38.6376L48.0603 38.6375C48.0405 37.9964 48.0245 37.7617 47.9941 37.6232L47.9932 37.6189C47.9811 37.5637 47.9746 37.5339 47.8282 37.3258C47.7104 37.1583 47.4216 36.9042 47.266 36.8219L47.2658 36.8219L46.941 36.65H39.5H32.059L31.7342 36.8219L31.734 36.8219C31.5784 36.9042 31.2896 37.1583 31.1718 37.3258L48.0717 39.0063ZM48.0717 39.0063H45.4348H42.7687M48.0717 39.0063H42.7687M42.7687 39.0063C42.7654 38.8079 42.7522 38.5813 42.7001 38.3772C42.6577 38.2108 42.5826 38.0225 42.4433 37.8458C42.3016 37.666 42.1273 37.541 41.9466 37.4558C41.626 37.3046 41.2493 37.2651 40.9145 37.2461C40.5548 37.2257 40.0901 37.225 39.5206 37.225C38.9418 37.225 38.4711 37.2259 38.1067 37.246C37.7667 37.2648 37.3911 37.3037 37.0722 37.4488C36.8929 37.5304 36.7169 37.651 36.5718 37.8277C36.4282 38.0026 36.3491 38.1907 36.304 38.3593C36.2474 38.5711 36.2341 38.8058 36.2311 39.0063H33.5652H30.9283L30.9397 38.6376L30.9397 38.6375C30.9595 37.9964 30.9755 37.7617 31.0059 37.6232C31.0062 37.6217 31.0065 37.6203 31.0068 37.6189C31.0189 37.5637 31.0254 37.5339 31.1718 37.3258L42.7687 39.0063ZM47.8281 48.4241L47.828 48.4242C47.7103 48.5917 47.4216 48.8458 47.266 48.9281L47.2658 48.9281L46.941 49.1H39.5H32.059L31.7342 48.9281L31.734 48.9281C31.5784 48.8458 31.2897 48.5917 31.172 48.4242L31.1719 48.4241L30.9775 48.1478L30.9457 44.7566L30.9197 41.9937H33.5707H36.2313C36.2346 42.1921 36.2478 42.4187 36.2999 42.6228C36.3423 42.7892 36.4174 42.9775 36.5567 43.1542C36.6984 43.334 36.8727 43.459 37.0534 43.5442C37.374 43.6954 37.7507 43.7349 38.0855 43.7539C38.4452 43.7743 38.9099 43.775 39.4794 43.775C40.0582 43.775 40.5289 43.7741 40.8933 43.754C41.2333 43.7352 41.6089 43.6963 41.9278 43.5512C42.1071 43.4696 42.2831 43.349 42.4282 43.1723C42.5718 42.9974 42.6509 42.8093 42.696 42.6407C42.7526 42.4289 42.7659 42.1942 42.7689 41.9937H45.4292H48.0803L48.0543 44.7566L48.0225 48.1478L47.8281 48.4241Z" fill="#3491FF" stroke="#3491FF" stroke-width="1.8"/>
<path fill-rule="evenodd" clip-rule="evenodd" d="M34.8217 45.635C35.1991 45.9655 35.2613 46.1071 35.2613 46.6354C35.2613 47.1637 35.1991 47.3053 34.8217 47.6358C34.4399 47.9703 34.2765 48.0208 33.5768 48.0208H32.7715V46.6354V45.25H33.5768C34.2765 45.25 34.4399 45.3005 34.8217 45.635ZM37.4819 45.4479C37.4819 45.5945 37.3248 45.6458 36.8763 45.6458C36.2931 45.6458 36.2707 45.6605 36.2707 46.0417C36.2707 46.4061 36.3081 46.4375 36.7417 46.4375C37.0706 46.4375 37.2127 46.4971 37.2127 46.6354C37.2127 46.7737 37.0706 46.8333 36.7417 46.8333C36.3081 46.8333 36.2707 46.8647 36.2707 47.2292C36.2707 47.6104 36.2931 47.625 36.8763 47.625C37.3248 47.625 37.4819 47.6763 37.4819 47.8229C37.4819 47.9799 37.2876 48.0208 36.5398 48.0208H35.5977V46.6354V45.25H36.5398C37.2876 45.25 37.4819 45.2909 37.4819 45.4479ZM38.8781 46.1402L39.3358 47.0305L39.7835 46.1402C40.1413 45.4289 40.2932 45.25 40.539 45.25C40.8398 45.25 40.8465 45.2803 40.8465 46.6354C40.8465 47.9328 40.8294 48.0208 40.5773 48.0208C40.337 48.0208 40.308 47.9324 40.3069 47.1962L40.3056 46.3715L39.9004 47.0642C39.6775 47.4452 39.4182 47.7569 39.3241 47.7569C39.23 47.7569 38.9738 47.4155 38.7548 46.9983L38.3567 46.2396L38.3169 47.1302C38.282 47.9126 38.2451 48.0208 38.014 48.0208C37.7698 48.0208 37.7511 47.9221 37.7511 46.6354V45.25H38.0856C38.3638 45.25 38.4976 45.4003 38.8781 46.1402ZM43.0753 45.7778C43.1679 46.0318 43.4002 46.6403 43.5916 47.1302L43.9396 48.0208H43.6068C43.3641 48.0208 43.2512 47.9315 43.1897 47.691C43.1157 47.4018 43.0324 47.3611 42.5142 47.3611C42.0098 47.3611 41.9232 47.4004 41.9232 47.6291C41.9232 47.9113 41.668 48.0731 41.3396 47.9991C41.1843 47.964 41.2544 47.6755 41.681 46.5949C42.1824 45.3248 42.2406 45.2376 42.5626 45.2755C42.818 45.3055 42.9507 45.4354 43.0753 45.7778ZM46.2298 45.4479C46.2298 45.5799 46.0952 45.6458 45.8261 45.6458H45.4223V46.8333C45.4223 48.012 45.4198 48.0208 45.0859 48.0208C44.752 48.0208 44.7494 48.012 44.7494 46.8333C44.7494 45.6547 44.7468 45.6458 44.4129 45.6458C44.2035 45.6458 44.0765 45.571 44.0765 45.4479C44.0765 45.2885 44.2859 45.25 45.1532 45.25C46.0204 45.25 46.2298 45.2885 46.2298 45.4479ZM33.4444 46.6354C33.4444 47.5444 33.4669 47.625 33.7196 47.625C34.1057 47.625 34.6557 47.0437 34.6557 46.6354C34.6557 46.2272 34.1057 45.6458 33.7196 45.6458C33.4669 45.6458 33.4444 45.7265 33.4444 46.6354ZM42.3459 46.3089C42.1483 46.8645 42.137 46.8333 42.5378 46.8333C42.8339 46.8333 42.8701 46.7908 42.7907 46.5365C42.595 45.9093 42.5044 45.863 42.3459 46.3089Z" fill="#00C673"/>
<defs>
<linearGradient id="paint0_linear_1696_1351" x1="0" y1="0" x2="104.167" y2="93.5185" gradientUnits="userSpaceOnUse">
<stop stop-color="#92DCDF"/>
<stop offset="0.0001" stop-color="#DEFFF1"/>
<stop offset="1" stop-color="#B0D3FE"/>
</linearGradient>
</defs>
</svg>
