<svg width="100" height="100" viewBox="0 0 100 100" fill="none" xmlns="http://www.w3.org/2000/svg">
<circle cx="50" cy="50" r="50" fill="url(#paint0_linear_1133_13518)"/>
<path d="M27.5766 32.6762C27.802 32.6762 28.0183 32.5866 28.1776 32.4273C28.337 32.2679 28.4266 32.0516 28.4266 31.8262V23.3262C28.4266 22.8568 28.046 22.4762 27.5766 22.4762C27.1072 22.4762 26.7266 22.8568 26.7266 23.3262V31.8262C26.7266 32.0516 26.8161 32.2679 26.9755 32.4273C27.1349 32.5866 27.3512 32.6762 27.5766 32.6762Z" fill="#3491FF"/>
<path d="M31.7895 27.5762C32.0149 27.5762 32.2312 27.4866 32.3905 27.3273C32.5499 27.1679 32.6395 26.9516 32.6395 26.7262V23.3262C32.6395 22.8568 32.2588 22.4762 31.7895 22.4762C31.3201 22.4762 30.9395 22.8568 30.9395 23.3262V26.7262C30.9395 26.9516 31.029 27.1679 31.1884 27.3273C31.3478 27.4866 31.5641 27.5762 31.7895 27.5762Z" fill="#3491FF"/>
<path d="M23.3266 27.5762C23.552 27.5762 23.7683 27.4866 23.9276 27.3273C24.087 27.1679 24.1766 26.9516 24.1766 26.7262V23.3262C24.1766 22.8568 23.796 22.4762 23.3266 22.4762C22.8572 22.4762 22.4766 22.8568 22.4766 23.3262V26.7262C22.4766 26.9516 22.5661 27.1679 22.7255 27.3273C22.8849 27.4866 23.1012 27.5762 23.3266 27.5762Z" fill="#3491FF"/>
<path d="M71.7758 66.6761C71.3064 66.6761 70.9258 67.0568 70.9258 67.5261V76.0261C70.9258 76.4955 71.3064 76.8761 71.7758 76.8761C72.2452 76.8761 72.6258 76.4955 72.6258 76.0261V67.5261C72.6258 67.3007 72.5362 67.0844 72.3769 66.9251C72.2175 66.7657 72.0012 66.6761 71.7758 66.6761Z" fill="#3491FF"/>
<path d="M67.5648 71.7762C67.0954 71.7762 66.7148 72.1569 66.7148 72.6262V76.0262C66.7148 76.4956 67.0954 76.8762 67.5648 76.8762C68.0342 76.8762 68.4148 76.4956 68.4148 76.0262V72.6262C68.4148 72.4008 68.3253 72.1845 68.1659 72.0252C68.0065 71.8658 67.7902 71.7762 67.5648 71.7762Z" fill="#3491FF"/>
<path d="M76.0258 71.7762C75.5564 71.7762 75.1758 72.1569 75.1758 72.6262V76.0262C75.1758 76.4956 75.5564 76.8762 76.0258 76.8762C76.4952 76.8762 76.8758 76.4956 76.8758 76.0262V72.6262C76.8758 72.4008 76.7862 72.1845 76.6269 72.0252C76.4675 71.8658 76.2512 71.7762 76.0258 71.7762Z" fill="#3491FF"/>
<path d="M65.8906 59.0262C65.6178 58.4076 65.1328 57.9071 64.5238 57.6142C63.9144 57.3213 63.2207 57.2552 62.5672 57.4283L50.3438 60.9853C49.9096 61.1288 49.6668 61.5894 49.7935 62.0285C49.9206 62.4679 50.3722 62.7278 50.8158 62.6174L63.0344 59.0603C63.5656 58.9431 64.1075 59.2094 64.339 59.702L64.7299 60.6074V60.607C64.9321 61.1011 64.7534 61.6692 64.3049 61.9586L47.2796 71.5083C46.5935 71.838 45.8004 71.8627 45.0951 71.5766L37.5171 67.777H37.5175C37.1001 67.5854 36.606 67.7596 36.4015 68.1709C36.197 68.5823 36.3564 69.0813 36.7609 69.2983L44.3388 73.0978C44.8913 73.3585 45.4958 73.4894 46.1067 73.4803C46.8076 73.4921 47.4997 73.324 48.1171 72.9916L65.1462 63.4378C65.7279 63.0886 66.1636 62.5411 66.373 61.8956C66.5825 61.2505 66.5514 60.5512 66.2854 59.9269L65.8906 59.0262Z" fill="#00C673"/>
<path d="M41.603 58.2053L47.128 64.4487C47.4612 64.8361 47.4612 65.4088 47.128 65.7962L46.7797 66.1703V66.17C46.6324 66.3297 46.4271 66.4234 46.2101 66.4291C45.993 66.4284 45.7851 66.3449 45.6276 66.1954L42.368 63.042C42.0287 62.7134 41.4876 62.7221 41.159 63.061C40.8304 63.4002 40.8388 63.9417 41.178 64.2703L44.4422 67.4195C44.9059 67.8749 45.5301 68.1299 46.1802 68.1291H46.2781C46.9501 68.1132 47.5865 67.8248 48.0418 67.3303L48.3902 66.9562C48.8417 66.4576 49.0925 65.8098 49.0948 65.1374C49.0971 64.465 48.8508 63.8157 48.4031 63.314L42.8781 57.0748C42.5331 56.7098 42.0584 56.4946 41.5564 56.4756H31.7819V55.6256C31.7683 54.938 31.4833 54.2839 30.9885 53.8058C30.494 53.328 29.8303 53.0654 29.1427 53.0757H25.1177C24.4298 53.0643 23.7653 53.3265 23.2705 53.8046C22.7756 54.2828 22.4907 54.9377 22.4785 55.6257V68.3757C22.4907 69.0636 22.7756 69.7186 23.2705 70.1967C23.7653 70.6748 24.4298 70.937 25.1177 70.9257H29.1511C29.8387 70.9359 30.5024 70.6733 30.9972 70.1956C31.4916 69.7174 31.777 69.0633 31.7903 68.3757V58.1757H41.5318C41.5561 58.1844 41.5803 58.1943 41.6039 58.2053L41.603 58.2053Z" fill="#00C673"/>
<path d="M36.6515 48.1889C35.1579 48.606 33.6408 48.9338 32.1081 49.1706C31.7427 49.218 31.4494 49.495 31.3818 49.8574C31.3139 50.2194 31.4869 50.5841 31.8106 50.7601L38.9335 54.6743C39.0637 54.7464 39.2101 54.7829 39.3585 54.7806H39.4306C45.5164 54.2452 52.8315 50.1906 57.5487 47.1602V47.1606C57.0657 46.8066 56.6069 46.4203 56.1762 46.0044C51.637 48.856 44.9737 52.4815 39.5162 53.0765L34.7262 50.4244C35.6612 50.2248 36.8257 49.944 38.1262 49.5744C37.5862 49.1668 37.0918 48.7024 36.6515 48.1889H36.6515Z" fill="#3491FF"/>
<path d="M70.0757 50.5262C69.1225 50.3012 68.2004 49.96 67.3303 49.5104C66.6279 49.6261 65.9171 49.6846 65.2053 49.6846H64.5848C65.3711 50.3907 66.2666 50.9649 67.2366 51.3846C63.5224 52.5791 55.9146 54.7762 49.4886 54.7762C48.4598 54.7808 47.4318 54.7155 46.4115 54.5808C45.6252 54.8741 44.8348 55.1333 44.0527 55.3629L44.4777 55.7879C44.5927 55.9085 44.7407 55.9928 44.9027 56.03C46.41 56.329 47.9438 56.4717 49.4802 56.455C58.6644 56.455 69.7141 52.2941 70.1823 52.1158C70.506 51.9697 70.7048 51.6384 70.6813 51.284C70.6574 50.93 70.4161 50.6275 70.0761 50.5262H70.0757Z" fill="#3491FF"/>
<path d="M65.2362 25.0262C62.1906 25.0148 59.2654 26.2151 57.1047 28.3621C54.9444 30.5092 53.7264 33.4268 53.7188 36.4728C53.7112 39.5187 54.9152 42.4425 57.0649 44.6001C59.2145 46.7578 62.1338 47.9724 65.1797 47.9762C68.2253 47.98 71.148 46.7725 73.3029 44.6202C75.4579 42.4679 76.6687 39.5471 76.6687 36.5012C76.6744 33.4636 75.473 30.5478 73.329 28.3958C71.1851 26.2439 68.2739 25.032 65.2362 25.0262ZM63.2983 34.895C63.6937 35.49 64.6075 35.745 65.5721 35.9745C66.8471 36.3103 68.475 36.7266 69.0358 38.3203C69.5245 39.7145 68.7254 41.1761 67.1316 41.7924C66.7935 41.9207 66.441 42.0079 66.082 42.052V43.3015C66.082 43.7709 65.7014 44.1515 65.232 44.1515C64.7626 44.1515 64.382 43.7709 64.382 43.3015V41.9881C64.0093 41.9134 63.6458 41.798 63.2982 41.644C62.2763 41.2193 61.4669 40.4038 61.0499 39.3786C60.952 39.1649 60.9467 38.9202 61.0358 38.7024C61.125 38.4846 61.3003 38.3134 61.52 38.2299C61.7397 38.1461 61.9845 38.1571 62.1958 38.2607C62.4072 38.3639 62.5662 38.5502 62.6353 38.7752C62.8948 39.3756 63.3828 39.848 63.9911 40.0886C64.7853 40.454 65.6911 40.4954 66.5152 40.2032C66.9402 40.0416 67.6669 39.5528 67.4332 38.8816C67.1994 38.2099 66.4048 37.9466 65.1423 37.6066C63.9694 37.3049 62.639 36.9562 61.8869 35.8258C61.5533 35.3511 61.375 34.7849 61.375 34.2043C61.375 33.6241 61.5537 33.058 61.8873 32.5832C62.4956 31.8068 63.3926 31.3098 64.3735 31.2061V29.7016C64.3735 29.2322 64.7538 28.8516 65.2235 28.8516C65.6929 28.8516 66.0735 29.2322 66.0735 29.7016V31.2103L66.2394 31.2357C66.9547 31.3518 67.6259 31.6558 68.1852 32.1168C68.7446 32.5775 69.1714 33.1782 69.4223 33.8582C69.5236 34.0787 69.5259 34.3326 69.428 34.5549C69.3304 34.7773 69.1422 34.9473 68.9111 35.0217C68.6797 35.0964 68.4277 35.0683 68.2186 34.9454C68.0091 34.8221 67.8627 34.6149 67.816 34.3766C67.4866 33.6101 66.79 33.064 65.9673 32.9274C65.0239 32.7657 63.7785 32.9274 63.2769 33.6074C63.0162 33.9994 63.0247 34.5117 63.2983 34.895Z" fill="#00C673"/>
<path d="M43.6455 49.6762C45.676 49.6842 47.6264 48.8843 49.0672 47.4533C50.5076 46.022 51.32 44.0768 51.3254 42.0459C51.3303 40.0155 50.5281 38.0661 49.0953 36.6276C47.662 35.1887 45.7158 34.3789 43.6853 34.3762C41.6548 34.3735 39.7062 35.1784 38.2696 36.6135C36.8326 38.0483 36.0254 39.9956 36.0254 42.0262C36.0254 44.0499 36.8272 45.9912 38.2555 47.4252C39.6834 48.8589 41.6217 49.6683 43.6454 49.6762H43.6455ZM44.3384 43.4629C44.2788 43.2758 44.0705 43.1866 43.4884 43.0125C42.9063 42.8383 42.073 42.5875 41.6142 41.8266C41.2731 41.2775 41.212 40.5998 41.4491 39.9988C41.6859 39.3977 42.1933 38.9439 42.8167 38.775V38.2012C42.8167 37.7318 43.1973 37.3512 43.6667 37.3512C44.1361 37.3512 44.5167 37.7318 44.5167 38.2012V38.7666C45.317 39.0247 45.939 39.6607 46.1783 40.4666C46.2626 40.6901 46.2489 40.9387 46.1404 41.1512C46.0322 41.3641 45.8395 41.5216 45.6091 41.5853C45.3788 41.6487 45.1325 41.6126 44.9306 41.4855C44.7284 41.3584 44.5891 41.152 44.5466 40.9171C44.4491 40.6495 44.2241 40.4484 43.9471 40.3816C43.62 40.3179 43.195 40.3816 43.0588 40.5812H43.0591C42.9889 40.7008 42.9889 40.8484 43.0591 40.9679C43.1783 41.1675 43.5521 41.2738 43.9516 41.3929C44.6571 41.5971 45.622 41.8775 45.962 42.9696H45.9616C46.0994 43.4412 46.0554 43.947 45.8379 44.388C45.6209 44.8286 45.2463 45.1716 44.7887 45.3496C44.6961 45.3894 44.6008 45.4236 44.5041 45.4517V45.8767C44.5041 46.3461 44.1235 46.7267 43.6541 46.7267C43.1843 46.7267 42.8041 46.3461 42.8041 45.8767V45.3796L42.5999 45.3029C41.9146 45.0058 41.3868 44.4332 41.1466 43.7263C41.0559 43.5089 41.0597 43.2637 41.1568 43.0493C41.254 42.8349 41.4357 42.6702 41.6585 42.5947C41.8816 42.5192 42.126 42.5397 42.3332 42.6509C42.5407 42.7624 42.6925 42.9548 42.7528 43.1821C42.85 43.4333 43.0496 43.631 43.3012 43.7263C43.5588 43.8485 43.8556 43.8595 44.1216 43.7559C44.1216 43.7559 44.3933 43.6455 44.3383 43.4629L44.3384 43.4629Z" fill="#00C673"/>
<defs>
<linearGradient id="paint0_linear_1133_13518" x1="0" y1="0" x2="104.167" y2="93.5185" gradientUnits="userSpaceOnUse">
<stop stop-color="#92DCDF"/>
<stop offset="0.0001" stop-color="#DEFFF1"/>
<stop offset="1" stop-color="#B0D3FE"/>
</linearGradient>
</defs>
</svg>
