<svg width="100" height="100" viewBox="0 0 100 100" fill="none" xmlns="http://www.w3.org/2000/svg">
<circle cx="50" cy="50" r="50" fill="url(#paint0_linear_2145_1445)"/>
<path d="M38 67.7499C38.6903 67.7499 39.2499 67.1903 39.2499 66.5C39.2499 65.8096 38.6903 65.25 38 65.25C37.3096 65.25 36.75 65.8096 36.75 66.5C36.75 67.1903 37.3096 67.7499 38 67.7499Z" fill="#00C673"/>
<path d="M66.75 67.7499C67.4403 67.7499 67.9999 67.1903 67.9999 66.5C67.9999 65.8096 67.4403 65.25 66.75 65.25C66.0596 65.25 65.5 65.8096 65.5 66.5C65.5 67.1903 66.0596 67.7499 66.75 67.7499Z" fill="#00C673"/>
<path d="M76.5 53.4999L72.75 50.7499L69.125 39.875C69 39.3749 68.5 39 68 39H56.75C56 39 55.5001 39.5 55.5001 40.25V65.2499H44.125C43.5001 62.3749 41 60.25 38.0001 60.25C35.0001 60.25 32.5001 62.375 31.8751 65.2499H26.75C26 65.2499 25.5 64.7499 25.5 64V57.75H51.7501C52.5001 57.75 53 57.2499 53 56.5C53 55.7501 52.5 55.25 51.7501 55.25H24.2501C23.5 55.2499 23 55.75 23 56.4999V63.9999C23 66.1249 24.625 67.7499 26.75 67.7499H31.875C32.5 70.6249 35 72.7498 38 72.7498C40.9999 72.7498 43.5 70.6248 44.1249 67.7499H56.7499C57.4999 67.7499 57.9999 67.2498 57.9999 66.4999V41.4999H67.1248L69.9999 50.25H67.4998L67.8748 49.5C68.1248 48.875 67.8748 48.125 67.3748 47.875C66.7498 47.625 65.9998 47.875 65.7498 48.375L64.7498 50.2501H61.7499C60.9998 50.2501 60.4999 50.7501 60.4999 51.5C60.4999 52.25 61 52.75 61.7499 52.75H71.3749L74.9998 55.5C75.2498 55.75 75.4999 56.125 75.4999 56.5V64C75.4999 64.75 74.9998 65.2499 74.2499 65.2499H72.8749C72.2499 62.3749 69.7499 60.25 66.7499 60.25C63.2499 60.25 60.4999 63 60.4999 66.5C60.4999 70 63.2499 72.75 66.7499 72.75C69.7499 72.75 72.2499 70.625 72.8749 67.7501H74.2499C76.3749 67.7501 77.9999 66.1251 77.9999 64.0001V56.5001C78 55.375 77.5 54.2499 76.5 53.4999ZM38 70.2499C35.8749 70.2499 34.25 68.6249 34.25 66.4999C34.25 64.3749 35.8749 62.7499 38 62.7499C40.125 62.7499 41.75 64.3749 41.75 66.4999C41.75 68.6249 40.125 70.2499 38 70.2499ZM66.75 70.2499C64.625 70.2499 63 68.6249 63 66.4999C63 64.3749 64.625 62.7499 66.75 62.7499C68.875 62.7499 70.5 64.3749 70.5 66.4999C70.5 68.6249 68.875 70.2499 66.75 70.2499Z" fill="#3491FF"/>
<path d="M51.7499 30.25H26.75C25.9999 30.25 25.5 30.75 25.5 31.5V51.5C25.5 52.25 26 52.7499 26.75 52.7499H51.7499C52.5 52.7499 52.9999 52.2499 52.9999 51.5V31.5C53 30.7499 52.5 30.25 51.7499 30.25ZM41.7499 32.75V36.6251L39.9999 35.3751C39.6249 35.1251 38.9999 35.1251 38.6249 35.3751L36.8749 36.6251V32.75H41.7499ZM50.3749 50.25H27.9999V32.75H34.2499V39C34.2499 39.5001 34.4999 39.875 34.8749 40.1251C35.2499 40.3752 35.7499 40.375 36.1249 40.1251L39.1249 38.1251L42.1248 40.1251C42.3748 40.2501 42.6249 40.375 42.8748 40.375C43.1248 40.375 43.2499 40.375 43.4998 40.25C43.8748 40 44.1248 39.625 44.1248 39.125V32.75H50.3748V50.25H50.3749Z" fill="#00C673"/>
<path d="M36.7499 45.25H31.75C30.9999 45.25 30.5 45.75 30.5 46.5C30.5 47.25 31 47.7499 31.75 47.7499H36.7499C37.4999 47.7499 37.9999 47.2499 37.9999 46.5C37.9999 45.75 37.4999 45.25 36.7499 45.25Z" fill="#0180F7"/>
<defs>
<linearGradient id="paint0_linear_2145_1445" x1="0" y1="0" x2="104.167" y2="93.5185" gradientUnits="userSpaceOnUse">
<stop stop-color="#92DCDF"/>
<stop offset="0.0001" stop-color="#DEFFF1"/>
<stop offset="1" stop-color="#B0D3FE"/>
</linearGradient>
</defs>
</svg>
