<svg width="100" height="100" viewBox="0 0 100 100" fill="none" xmlns="http://www.w3.org/2000/svg">
<circle cx="50" cy="50" r="50" fill="url(#paint0_linear_1364_1342)"/>
<path d="M27.5766 32.6761C27.802 32.6761 28.0183 32.5865 28.1776 32.4271C28.337 32.2678 28.4266 32.0515 28.4266 31.8261V23.3261C28.4266 22.8567 28.046 22.4761 27.5766 22.4761C27.1072 22.4761 26.7266 22.8567 26.7266 23.3261V31.8261C26.7266 32.0515 26.8161 32.2678 26.9755 32.4271C27.1349 32.5865 27.3512 32.6761 27.5766 32.6761Z" fill="#3491FF"/>
<path d="M31.7895 27.5761C32.0149 27.5761 32.2312 27.4865 32.3905 27.3271C32.5499 27.1678 32.6395 26.9515 32.6395 26.7261V23.3261C32.6395 22.8567 32.2588 22.4761 31.7895 22.4761C31.3201 22.4761 30.9395 22.8567 30.9395 23.3261V26.7261C30.9395 26.9515 31.029 27.1678 31.1884 27.3271C31.3478 27.4865 31.5641 27.5761 31.7895 27.5761Z" fill="#3491FF"/>
<path d="M23.3266 27.5761C23.552 27.5761 23.7683 27.4865 23.9276 27.3271C24.087 27.1678 24.1766 26.9515 24.1766 26.7261V23.3261C24.1766 22.8567 23.796 22.4761 23.3266 22.4761C22.8572 22.4761 22.4766 22.8567 22.4766 23.3261V26.7261C22.4766 26.9515 22.5661 27.1678 22.7255 27.3271C22.8849 27.4865 23.1012 27.5761 23.3266 27.5761Z" fill="#3491FF"/>
<path d="M71.7758 66.676C71.3064 66.676 70.9258 67.0566 70.9258 67.526V76.026C70.9258 76.4954 71.3064 76.876 71.7758 76.876C72.2452 76.876 72.6258 76.4954 72.6258 76.026V67.526C72.6258 67.3006 72.5362 67.0843 72.3769 66.925C72.2175 66.7656 72.0012 66.676 71.7758 66.676Z" fill="#3491FF"/>
<path d="M67.5648 71.7761C67.0954 71.7761 66.7148 72.1567 66.7148 72.6261V76.0261C66.7148 76.4955 67.0954 76.8761 67.5648 76.8761C68.0342 76.8761 68.4148 76.4955 68.4148 76.0261V72.6261C68.4148 72.4007 68.3253 72.1844 68.1659 72.0251C68.0065 71.8657 67.7902 71.7761 67.5648 71.7761Z" fill="#3491FF"/>
<path d="M76.0258 71.7761C75.5564 71.7761 75.1758 72.1567 75.1758 72.6261V76.0261C75.1758 76.4955 75.5564 76.8761 76.0258 76.8761C76.4952 76.8761 76.8758 76.4955 76.8758 76.0261V72.6261C76.8758 72.4007 76.7862 72.1844 76.6269 72.0251C76.4675 71.8657 76.2512 71.7761 76.0258 71.7761Z" fill="#3491FF"/>
<path d="M65.8906 59.0262C65.6178 58.4076 65.1328 57.9071 64.5238 57.6142C63.9144 57.3213 63.2207 57.2552 62.5672 57.4283L50.3438 60.9853C49.9096 61.1288 49.6668 61.5894 49.7935 62.0285C49.9206 62.4679 50.3722 62.7278 50.8158 62.6174L63.0344 59.0603C63.5656 58.9431 64.1075 59.2094 64.339 59.702L64.7299 60.6074V60.607C64.9321 61.1011 64.7534 61.6692 64.3049 61.9586L47.2796 71.5083C46.5935 71.838 45.8004 71.8627 45.0951 71.5766L37.5171 67.777H37.5175C37.1001 67.5854 36.606 67.7596 36.4015 68.1709C36.197 68.5823 36.3564 69.0813 36.7609 69.2983L44.3388 73.0978C44.8913 73.3585 45.4958 73.4894 46.1067 73.4803C46.8076 73.4921 47.4997 73.324 48.1171 72.9916L65.1462 63.4378C65.7279 63.0886 66.1636 62.5411 66.373 61.8956C66.5825 61.2505 66.5514 60.5512 66.2854 59.9269L65.8906 59.0262Z" fill="#00C673"/>
<path d="M41.603 58.2052L47.128 64.4486C47.4612 64.836 47.4612 65.4086 47.128 65.7961L46.7797 66.1702V66.1698C46.6324 66.3296 46.4271 66.4233 46.2101 66.429C45.993 66.4283 45.7851 66.3448 45.6276 66.1953L42.368 63.0419C42.0287 62.7133 41.4876 62.722 41.159 63.0609C40.8304 63.4001 40.8388 63.9416 41.178 64.2702L44.4422 67.4194C44.9059 67.8748 45.5301 68.1298 46.1802 68.129H46.2781C46.9501 68.1131 47.5865 67.8247 48.0418 67.3302L48.3902 66.9561C48.8417 66.4574 49.0925 65.8097 49.0948 65.1373C49.0971 64.4648 48.8508 63.8156 48.4031 63.3139L42.8781 57.0747C42.5331 56.7096 42.0584 56.4945 41.5564 56.4755H31.7819V55.6255C31.7683 54.9379 31.4833 54.2838 30.9885 53.8056C30.494 53.3279 29.8303 53.0653 29.1427 53.0756H25.1177C24.4298 53.0642 23.7653 53.3264 23.2705 53.8045C22.7756 54.2826 22.4907 54.9376 22.4785 55.6255V68.3755C22.4907 69.0635 22.7756 69.7184 23.2705 70.1966C23.7653 70.6747 24.4298 70.9369 25.1177 70.9255H29.1511C29.8387 70.9358 30.5024 70.6732 30.9972 70.1954C31.4916 69.7173 31.777 69.0631 31.7903 68.3756V58.1756H41.5318C41.5561 58.1843 41.5803 58.1942 41.6039 58.2052L41.603 58.2052Z" fill="#00C673"/>
<path d="M36.6515 48.1887C35.1579 48.6057 33.6408 48.9336 32.1081 49.1703C31.7427 49.2178 31.4494 49.4948 31.3818 49.8572C31.3139 50.2192 31.4869 50.5838 31.8106 50.7599L38.9335 54.6741C39.0637 54.7462 39.2101 54.7826 39.3585 54.7803H39.4306C45.5164 54.2449 52.8315 50.1903 57.5487 47.16V47.1603C57.0657 46.8063 56.6069 46.42 56.1762 46.0042C51.637 48.8558 44.9737 52.4812 39.5162 53.0762L34.7262 50.4241C35.6612 50.2245 36.8257 49.9437 38.1262 49.5741C37.5862 49.1666 37.0918 48.7021 36.6515 48.1887H36.6515Z" fill="#3491FF"/>
<path d="M70.0757 50.5261C69.1225 50.3011 68.2004 49.9599 67.3303 49.5103C66.6279 49.626 65.9171 49.6844 65.2053 49.6844H64.5848C65.3711 50.3906 66.2666 50.9648 67.2366 51.3844C63.5224 52.579 55.9146 54.7761 49.4886 54.7761C48.4598 54.7806 47.4318 54.7154 46.4115 54.5807C45.6252 54.874 44.8348 55.1332 44.0527 55.3627L44.4777 55.7877C44.5927 55.9084 44.7407 55.9926 44.9027 56.0298C46.41 56.3288 47.9438 56.4715 49.4802 56.4548C58.6644 56.4548 69.7141 52.294 70.1823 52.1157C70.506 51.9696 70.7048 51.6383 70.6813 51.2839C70.6574 50.9298 70.4161 50.6274 70.0761 50.5261H70.0757Z" fill="#3491FF"/>
<path d="M65.2362 25.026C62.1906 25.0146 59.2654 26.2148 57.1047 28.3619C54.9444 30.5089 53.7264 33.4266 53.7188 36.4725C53.7112 39.5184 54.9152 42.4422 57.0649 44.5999C59.2145 46.7575 62.1338 47.9722 65.1797 47.976C68.2253 47.9798 71.148 46.7723 73.3029 44.62C75.4579 42.4677 76.6687 39.5469 76.6687 36.501C76.6744 33.4633 75.473 30.5476 73.329 28.3956C71.1851 26.2437 68.2739 25.0317 65.2362 25.026ZM63.2983 34.8947C63.6937 35.4897 64.6075 35.7447 65.5721 35.9743C66.8471 36.3101 68.475 36.7264 69.0358 38.3201C69.5245 39.7143 68.7254 41.1759 67.1316 41.7922C66.7935 41.9204 66.441 42.0077 66.082 42.0517V43.3013C66.082 43.7707 65.7014 44.1513 65.232 44.1513C64.7626 44.1513 64.382 43.7707 64.382 43.3013V41.9879C64.0093 41.9131 63.6458 41.7978 63.2982 41.6437C62.2763 41.2191 61.4669 40.4036 61.0499 39.3783C60.952 39.1647 60.9467 38.9199 61.0358 38.7021C61.125 38.4843 61.3003 38.3132 61.52 38.2297C61.7397 38.1458 61.9845 38.1568 62.1958 38.2604C62.4072 38.3637 62.5662 38.55 62.6353 38.775C62.8948 39.3753 63.3828 39.8477 63.9911 40.0884C64.7853 40.4538 65.6911 40.4952 66.5152 40.203C66.9402 40.0413 67.6669 39.5526 67.4332 38.8813C67.1994 38.2097 66.4048 37.9463 65.1423 37.6063C63.9694 37.3047 62.639 36.9559 61.8869 35.8255C61.5533 35.3508 61.375 34.7846 61.375 34.2041C61.375 33.6239 61.5537 33.0577 61.8873 32.583C62.4956 31.8066 63.3926 31.3095 64.3735 31.2059V29.7013C64.3735 29.2319 64.7538 28.8513 65.2235 28.8513C65.6929 28.8513 66.0735 29.2319 66.0735 29.7013V31.2101L66.2394 31.2355C66.9547 31.3516 67.6259 31.6556 68.1852 32.1166C68.7446 32.5773 69.1714 33.178 69.4223 33.858C69.5236 34.0785 69.5259 34.3323 69.428 34.5547C69.3304 34.7771 69.1422 34.9471 68.9111 35.0214C68.6797 35.0962 68.4277 35.0681 68.2186 34.9452C68.0091 34.8218 67.8627 34.6146 67.816 34.3763C67.4866 33.6098 66.79 33.0637 65.9673 32.9272C65.0239 32.7655 63.7785 32.9272 63.2769 33.6072C63.0162 33.9991 63.0247 34.5115 63.2983 34.8947Z" fill="#00C673"/>
<path d="M43.6455 49.676C45.676 49.684 47.6264 48.884 49.0672 47.4531C50.5076 46.0218 51.32 44.0766 51.3254 42.0457C51.3303 40.0152 50.5281 38.0659 49.0953 36.6274C47.662 35.1885 45.7158 34.3787 43.6853 34.376C41.6548 34.3733 39.7062 35.1782 38.2696 36.6133C36.8326 38.0481 36.0254 39.9954 36.0254 42.026C36.0254 44.0497 36.8272 45.991 38.2555 47.425C39.6834 48.8586 41.6217 49.668 43.6454 49.676H43.6455ZM44.3384 43.4626C44.2788 43.2756 44.0705 43.1864 43.4884 43.0122C42.9063 42.838 42.073 42.5872 41.6142 41.8264C41.2731 41.2773 41.212 40.5996 41.4491 39.9985C41.6859 39.3975 42.1933 38.9437 42.8167 38.7747V38.201C42.8167 37.7316 43.1973 37.351 43.6667 37.351C44.1361 37.351 44.5167 37.7316 44.5167 38.201V38.7664C45.317 39.0244 45.939 39.6604 46.1783 40.4664C46.2626 40.6899 46.2489 40.9384 46.1404 41.1509C46.0322 41.3638 45.8395 41.5213 45.6091 41.5851C45.3788 41.6484 45.1325 41.6124 44.9306 41.4853C44.7284 41.3581 44.5891 41.1517 44.5466 40.9168C44.4491 40.6493 44.2241 40.4482 43.9471 40.3814C43.62 40.3177 43.195 40.3814 43.0588 40.581H43.0591C42.9889 40.7005 42.9889 40.8481 43.0591 40.9677C43.1783 41.1673 43.5521 41.2735 43.9516 41.3927C44.6571 41.5968 45.622 41.8773 45.962 42.9693H45.9616C46.0994 43.441 46.0554 43.9468 45.8379 44.3878C45.6209 44.8284 45.2463 45.1714 44.7887 45.3493C44.6961 45.3892 44.6008 45.4233 44.5041 45.4514V45.8764C44.5041 46.3458 44.1235 46.7264 43.6541 46.7264C43.1843 46.7264 42.8041 46.3458 42.8041 45.8764V45.3793L42.5999 45.3027C41.9146 45.0056 41.3868 44.4329 41.1466 43.726C41.0559 43.5086 41.0597 43.2635 41.1568 43.0491C41.254 42.8347 41.4357 42.67 41.6585 42.5945C41.8816 42.519 42.126 42.5395 42.3332 42.6506C42.5407 42.7622 42.6925 42.9546 42.7528 43.1819C42.85 43.4331 43.0496 43.6308 43.3012 43.726C43.5588 43.8482 43.8556 43.8592 44.1216 43.7556C44.1216 43.7556 44.3933 43.6452 44.3382 43.4627L44.3384 43.4626Z" fill="#00C673"/>
<defs>
<linearGradient id="paint0_linear_1364_1342" x1="0" y1="0" x2="104.167" y2="93.5185" gradientUnits="userSpaceOnUse">
<stop stop-color="#92DCDF"/>
<stop offset="0.0001" stop-color="#DEFFF1"/>
<stop offset="1" stop-color="#B0D3FE"/>
</linearGradient>
</defs>
</svg>
