<svg width="100" height="100" viewBox="0 0 100 100" fill="none" xmlns="http://www.w3.org/2000/svg">
<circle cx="50" cy="50" r="50" fill="url(#paint0_linear_1845_1359)"/>
<path d="M71.2372 21.3436C70.7604 21.003 70.1445 20.9051 69.5872 21.0973L59.2252 24.5116L50.6817 21.1333C50.2455 20.9594 49.7577 20.9594 49.3215 21.1333L40.7781 24.5116L30.4128 21.0973C29.8517 20.9051 29.2391 21.003 28.7628 21.3436C28.286 21.6843 28 22.2316 28 22.8153V77.1848C28 77.7685 28.2824 78.3159 28.7628 78.6528C29.2395 78.9971 29.8555 79.0768 30.4165 78.9029L40.7785 75.4886L49.3256 78.8668C49.7618 79.0444 50.2496 79.0444 50.6858 78.8668L59.2293 75.4886L69.5913 78.9029C69.7779 78.9643 69.9723 78.9971 70.1666 78.9971C70.548 78.9971 70.9221 78.881 71.2372 78.6528C71.7176 78.3159 72 77.7685 72 77.1848V22.8153C72 22.2316 71.7176 21.6842 71.2372 21.3436Z" fill="#3491FF"/>
<path d="M36.8333 32H51.5C52.512 32 53.3334 32.8119 53.3334 33.8123C53.3334 34.8127 52.512 35.6246 51.5 35.6246H36.8333C35.8213 35.6246 35 34.8127 35 33.8123C35 32.8119 35.8213 32 36.8333 32ZM47.8333 60.997H36.8333C35.8213 60.997 35 60.1851 35 59.1847C35 58.1843 35.8213 57.3724 36.8333 57.3724H47.8333C48.8454 57.3724 49.6667 58.1843 49.6667 59.1847C49.6667 60.1851 48.8454 60.997 47.8333 60.997ZM47.8333 50.1231H36.8333C35.8213 50.1231 35 49.3112 35 48.3108C35 47.3104 35.8213 46.4985 36.8333 46.4985H47.8333C48.8454 46.4985 49.6667 47.3104 49.6667 48.3108C49.6667 49.3112 48.8454 50.1231 47.8333 50.1231ZM62.5 42.8739H36.8333C35.8213 42.8739 35 42.062 35 41.0616C35 40.0612 35.8213 39.2493 36.8333 39.2493H62.5C63.512 39.2493 64.3334 40.0612 64.3334 41.0616C64.3334 42.062 63.512 42.8739 62.5 42.8739Z" fill="#00C673"/>
<path d="M56.9532 62.302L55.7872 60.938V59.904H58.2952C58.9259 59.904 59.4319 59.6913 59.8132 59.266C60.2092 58.826 60.4072 58.276 60.4072 57.616C60.4072 57.1467 60.2972 56.736 60.0772 56.384C59.8572 56.0173 59.5492 55.7387 59.1532 55.548C58.7572 55.3427 58.3026 55.24 57.7892 55.24H54.5992V52.644H64.9612V55.064H60.5172L58.4712 53.524C59.1166 53.568 59.7252 53.7 60.2972 53.92C60.8839 54.1253 61.3972 54.404 61.8372 54.756C62.2772 55.0933 62.6219 55.504 62.8712 55.988C63.1352 56.472 63.2672 57.0073 63.2672 57.594C63.2672 58.2393 63.1352 58.848 62.8712 59.42C62.6219 59.9773 62.2699 60.476 61.8152 60.916C61.3606 61.356 60.8252 61.7007 60.2092 61.95C59.6079 62.1847 58.9626 62.302 58.2732 62.302H56.9532ZM60.7152 68.044L55.8312 60.96L58.7572 60.41L64.1032 68.066L60.7152 68.044ZM58.1852 58.54V56.692H65.0272V58.54H58.1852Z" fill="#00C673"/>
<defs>
<linearGradient id="paint0_linear_1845_1359" x1="0" y1="0" x2="104.167" y2="93.5185" gradientUnits="userSpaceOnUse">
<stop stop-color="#92DCDF"/>
<stop offset="0.0001" stop-color="#DEFFF1"/>
<stop offset="1" stop-color="#B0D3FE"/>
</linearGradient>
</defs>
</svg>
