<svg width="100" height="100" viewBox="0 0 100 100" fill="none" xmlns="http://www.w3.org/2000/svg">
<circle cx="50" cy="50" r="50" fill="url(#paint0_linear_2189_1484)"/>
<path d="M76.1181 30.503L69.3157 29.2515C68.9346 28.6367 68.312 28.1724 67.5465 28.0316L64.9261 27.5495L65.0076 27.104C65.1837 26.1394 64.0587 25.0133 62.8401 24.7891C61.6215 24.5649 60.1714 25.2172 59.9952 26.1817L59.9138 26.6273L57.2933 26.1452C56.5278 26.0043 55.7817 26.2167 55.208 26.6558L48.4025 25.4037C47.6809 25.2709 46.9952 25.7504 46.8634 26.4714L39.858 64.8066C39.7265 65.5261 40.1962 66.2203 40.9192 66.3534L68.635 71.4528C69.355 71.5853 70.0446 71.1091 70.1771 70.3849L77.1825 32.0497C77.314 31.3287 76.838 30.6355 76.1181 30.503ZM67.8065 68.5989L42.6986 63.9793L49.2266 28.2568L52.9939 28.95L52.9938 28.9502L54.1938 29.171C54.3592 30.2676 55.1849 31.1914 56.3339 31.4028L61.4591 32.3458L66.5845 33.2888C67.7334 33.5002 68.8322 32.9304 69.3745 31.9641L70.5745 32.1849V32.1846L74.3347 32.8764L67.8065 68.5989Z" fill="#00C673"/>
<path d="M71.0882 36.9162L50.84 33.1907L50.4688 35.2225L70.717 38.948L71.0882 36.9162Z" fill="#3491FF"/>
<path d="M70.2718 41.3858L50.0236 37.6604L49.6523 39.6924L69.9005 43.4178L70.2718 41.3858Z" fill="#3491FF"/>
<path d="M69.4554 45.8556L49.2072 42.1301L48.8359 44.162L69.0841 47.8874L69.4554 45.8556Z" fill="#3491FF"/>
<path d="M68.639 50.3253L48.3908 46.5999L48.0195 48.6318L68.2677 52.3573L68.639 50.3253Z" fill="#3491FF"/>
<path d="M62.6151 44.6761C61.0469 44.8972 59.9544 46.3521 60.1747 47.9256L60.2744 48.6379L65.9535 47.8371L65.8537 47.1247C65.6333 45.5512 64.1834 44.4549 62.6151 44.6761Z" fill="#319385"/>
<path d="M66.2516 49.9741L63.4121 50.3745L66.1059 69.6062L68.9453 69.2059L66.2516 49.9741Z" fill="#2D98ED"/>
<path d="M63.4117 50.3743L60.5723 50.7746L63.266 70.0064L66.1055 69.606L63.4117 50.3743Z" fill="#00C673"/>
<path d="M60.5726 50.7748L63.4121 50.3744L66.2517 49.9739L65.9524 47.8372L60.2734 48.6379L60.5726 50.7748Z" fill="#565659"/>
<path d="M63.2676 70.0067L65.0845 72.6531L67.9269 72.2522L68.9465 69.2058L66.1071 69.6063L63.2676 70.0067Z" fill="#3CA589"/>
<path d="M66.9045 75.3045L67.9263 72.2522L65.084 72.653L66.9045 75.3045Z" fill="#565659"/>
<path d="M58.9963 73.1035C59.1103 73.7515 58.696 74.4262 57.9857 74.552L30.0837 79.4886C29.4379 79.6028 28.7655 79.1872 28.6402 78.4743L22.3879 42.8951C22.274 42.2469 22.6882 41.5724 23.3986 41.4466L51.3005 36.51C51.9464 36.3957 52.6188 36.8113 52.7441 37.5243L58.9963 73.1035Z" fill="#00C673"/>
<path d="M58.8245 72.1313C58.9385 72.7793 58.5242 73.454 57.8137 73.5798L29.9119 78.5164C29.266 78.6306 28.5936 78.215 28.4683 77.5021L22.216 41.9229C22.1021 41.2749 22.5163 40.6002 23.2268 40.4744L51.1287 35.5378C51.7745 35.4236 52.4469 35.8392 52.5722 36.5521L58.8245 72.1313Z" fill="#2D98ED"/>
<path d="M22.216 41.9229C22.1021 41.2749 22.5163 40.6002 23.2268 40.4744L51.1287 35.5378C51.7745 35.4236 52.4469 35.8392 52.5722 36.5521L58.8245 72.1313C58.9385 72.7793 58.5242 73.454 57.8137 73.5798" fill="#3491FF"/>
<path d="M52.0082 48.8804C52.236 50.1764 51.3848 51.3962 50.0931 51.6247L29.748 55.2244C28.4562 55.4528 27.2406 54.5989 27.0128 53.3027L25.5779 45.137C25.3501 43.8408 26.2013 42.621 27.493 42.3925L47.7736 38.8043C49.0653 38.5758 50.2809 39.4299 50.5087 40.726L51.9437 48.8918L52.0082 48.8804Z" fill="#53AD8A"/>
<path d="M47.7736 38.8044L27.493 42.3926C26.2013 42.6212 25.3501 43.8409 25.5779 45.1371L26.8876 52.5899C27.1153 53.8861 28.3309 54.7402 29.6227 54.5116L49.9032 50.9235C51.195 50.6949 52.0462 49.4751 51.8184 48.179L50.5087 40.7261C50.3456 39.4186 49.0653 38.5759 47.7736 38.8044Z" fill="#3CA589"/>
<path d="M26.8242 52.6012C27.052 53.8974 28.2676 54.7515 29.5594 54.523L49.8399 50.9348C51.1317 50.7062 51.9829 49.4865 51.7551 48.1903L50.4454 40.7375C50.2176 39.4413 49.002 38.5873 47.7102 38.8158" fill="#319385"/>
<path d="M29.9005 78.4515C29.2546 78.5658 28.5822 78.1502 28.4569 77.4373L22.216 41.9228C22.1021 41.2748 22.5163 40.6001 23.2268 40.4744" fill="#00C673"/>
<path d="M23.2277 40.4744C22.5818 40.5886 22.0916 41.2099 22.2169 41.9228L23.7174 43.2611L23.2277 40.4744Z" fill="#AECED6"/>
<path d="M32.5411 59.742C32.655 60.3901 32.2407 61.0648 31.5303 61.1905L30.1093 61.4419C29.4635 61.5561 28.7911 61.1405 28.6658 60.4277L28.4152 59.0019C28.3014 58.3539 28.7802 57.6678 29.426 57.5534L30.847 57.302C31.4928 57.1878 32.1652 57.6034 32.2905 58.3162L32.5411 59.742Z" fill="#769AA5"/>
<path d="M32.4493 59.2236C32.5632 59.8716 32.1489 60.5464 31.4385 60.6721L30.0175 60.9235C29.3717 61.0377 28.6993 60.6222 28.574 59.9093L28.3234 58.4835C28.2096 57.8354 28.6884 57.1494 29.3342 57.035L30.7552 56.7837C31.401 56.6694 32.0734 57.085 32.1987 57.7978L32.4493 59.2236Z" fill="white"/>
<path d="M30.7554 56.7837C31.4013 56.6694 32.0737 57.085 32.1989 57.7978L32.4495 59.2236C32.5634 59.8716 32.1492 60.5464 31.4387 60.6721L30.0178 60.9235C29.3719 61.0377 28.6995 60.6222 28.5742 59.9093" fill="white"/>
<path d="M39.0625 58.588C39.1763 59.236 38.7622 59.9107 38.0517 60.0364L36.6309 60.2878C35.9849 60.4021 35.3125 59.9864 35.1872 59.2735L34.9367 57.8478C34.8228 57.1998 35.237 56.5251 35.9475 56.3994L37.3684 56.1479C38.0143 56.0337 38.6866 56.4492 38.8119 57.1622L39.0625 58.588Z" fill="#769AA5"/>
<path d="M38.9726 58.0695C39.0866 58.7177 38.6723 59.3924 37.9618 59.518L36.541 59.7694C35.8951 59.8838 35.2227 59.4681 35.0974 58.7552L34.8468 57.3295C34.733 56.6814 35.1472 56.0066 35.8576 55.8811L37.2786 55.6296C37.9244 55.5154 38.5969 55.9309 38.7222 56.6438L38.9726 58.0695Z" fill="white"/>
<path d="M37.2789 55.6296C37.9247 55.5154 38.5971 55.9309 38.7224 56.6438L38.9729 58.0695C39.0868 58.7177 38.6726 59.3924 37.9621 59.518L36.5412 59.7694C35.8953 59.8838 35.2229 59.4681 35.0977 58.7552" fill="white"/>
<path d="M45.5859 57.4338C45.6999 58.082 45.2856 58.7567 44.5751 58.8823L43.1543 59.1337C42.5083 59.2481 41.836 58.8324 41.7107 58.1195L41.4601 56.6938C41.3463 56.0456 41.7604 55.3709 42.4709 55.2454L43.8919 54.9939C44.5377 54.8796 45.2102 55.2952 45.3355 56.0081L45.5859 57.4338Z" fill="#769AA5"/>
<path d="M45.4961 56.9152C45.61 57.5634 45.1958 58.2381 44.4853 58.3638L43.0644 58.6151C42.4184 58.7295 41.7462 58.3138 41.6209 57.6009L41.3703 56.1752C41.2564 55.5271 41.6706 54.8525 42.3811 54.7268L43.8021 54.4753C44.4479 54.3611 45.1203 54.7766 45.2456 55.4895L45.4961 56.9152Z" fill="white"/>
<path d="M43.8023 54.4753C44.4481 54.3611 45.1205 54.7766 45.2458 55.4895L45.4963 56.9152C45.6103 57.5634 45.196 58.2381 44.4855 58.3638L43.0646 58.6151C42.4187 58.7295 41.7464 58.3138 41.6211 57.6009" fill="white"/>
<path d="M33.6563 66.0932C33.7702 66.7414 33.356 67.4161 32.6455 67.5417L31.2246 67.7931C30.5787 67.9075 29.9063 67.4918 29.781 66.7789L29.5305 65.3532C29.4166 64.705 29.8954 64.0189 30.5413 63.9047L31.9622 63.6533C32.6081 63.5391 33.2805 63.9546 33.4057 64.6675L33.6563 66.0932Z" fill="#769AA5"/>
<path d="M33.5645 65.5748C33.6784 66.2228 33.2642 66.8975 32.5537 67.0233L31.1328 67.2746C30.4869 67.3889 29.8145 66.9732 29.6892 66.2603L29.4387 64.8346C29.3248 64.1865 29.8036 63.5004 30.4495 63.3862L31.8704 63.1347C32.5163 63.0205 33.1887 63.4361 33.3139 64.149L33.5645 65.5748Z" fill="white"/>
<path d="M31.8706 63.1347C32.5165 63.0205 33.1889 63.4361 33.3142 64.149L33.5647 65.5748C33.6786 66.2228 33.2644 66.8975 32.5539 67.0233L31.133 67.2746C30.4871 67.3889 29.8147 66.9732 29.6895 66.2603" fill="white"/>
<path d="M40.1797 64.939C40.2935 65.5871 39.8794 66.2617 39.1689 66.3874L37.748 66.6389C37.1021 66.7531 36.4296 66.3375 36.3043 65.6246L36.0539 64.1988C35.94 63.5508 36.3542 62.8761 37.0647 62.7503L38.4855 62.499C39.1315 62.3847 39.8038 62.8004 39.9291 63.5133L40.1797 64.939Z" fill="#769AA5"/>
<path d="M40.0879 64.4207C40.2018 65.0688 39.7876 65.7435 39.0771 65.8691L37.6562 66.1206C37.0102 66.2348 36.338 65.8192 36.2127 65.1063L35.9621 63.6806C35.8482 63.0325 36.2624 62.3578 36.9729 62.2322L38.3937 61.9807C39.0397 61.8664 39.7121 62.282 39.8374 62.995L40.0879 64.4207Z" fill="white"/>
<path d="M38.394 61.9807C39.0399 61.8664 39.7123 62.282 39.8376 62.995L40.0881 64.4207C40.2021 65.0688 39.7878 65.7435 39.0773 65.8691L37.6564 66.1206C37.0105 66.2348 36.3382 65.8192 36.2129 65.1063" fill="white"/>
<path d="M46.7031 63.785C46.8171 64.433 46.4028 65.1077 45.6923 65.2335L44.2714 65.4848C43.6256 65.5991 42.9532 65.1835 42.8279 64.4705L42.5773 63.0448C42.4635 62.3968 42.8776 61.7221 43.5881 61.5964L45.0091 61.3449C45.6549 61.2307 46.3273 61.6463 46.4526 62.3592L46.7031 63.785Z" fill="#769AA5"/>
<path d="M46.6114 63.2665C46.7253 63.9145 46.311 64.5892 45.6006 64.7149L44.1796 64.9662C43.5338 65.0806 42.8614 64.6649 42.7361 63.9521L42.4855 62.5263C42.3717 61.8783 42.7859 61.2036 43.4963 61.0778L44.9173 60.8264C45.5631 60.7122 46.2355 61.1277 46.3608 61.8406L46.6114 63.2665Z" fill="white"/>
<path d="M44.9175 60.8264C45.5633 60.7122 46.2358 61.1277 46.3611 61.8406L46.6117 63.2665C46.7255 63.9145 46.3112 64.5892 45.6009 64.7149L44.1799 64.9662C43.534 65.0806 42.8616 64.6649 42.7363 63.9521" fill="white"/>
<path d="M34.7715 72.4443C34.8854 73.0925 34.4712 73.7672 33.7607 73.8928L32.3398 74.1442C31.6939 74.2584 31.0215 73.8429 30.8963 73.13L30.6457 71.7043C30.5318 71.0561 31.0106 70.3701 31.6565 70.2559L33.0774 70.0044C33.7233 69.8901 34.3957 70.3057 34.521 71.0186L34.7715 72.4443Z" fill="#769AA5"/>
<path d="M34.6817 71.926C34.7956 72.5742 34.3814 73.2487 33.6709 73.3745L32.25 73.6259C31.6041 73.7401 30.9317 73.3246 30.8064 72.6117L30.5559 71.1859C30.442 70.5378 30.9208 69.8517 31.5667 69.7374L32.9876 69.4861C33.6335 69.3717 34.3059 69.7874 34.4311 70.5003L34.6817 71.926Z" fill="white"/>
<path d="M32.9764 69.4211C33.6223 69.3069 34.2947 69.7224 34.42 70.4354L34.6819 71.9259C34.7958 72.574 34.3816 73.2487 33.6711 73.3744L32.2502 73.6258C31.6043 73.7401 30.9319 73.3244 30.8066 72.6116" fill="white"/>
<path d="M41.2949 71.2904C41.4088 71.9384 40.9945 72.6131 40.2841 72.7388L38.8631 72.9901C38.2173 73.1045 37.5449 72.6888 37.4196 71.976L37.1691 70.5502C37.0552 69.9022 37.4694 69.2275 38.1798 69.1018L39.6008 68.8503C40.2466 68.7361 40.919 69.1516 41.0443 69.8645L41.2949 71.2904Z" fill="#769AA5"/>
<path d="M41.2051 70.7718C41.3189 71.4198 40.9048 72.0945 40.1943 72.2203L38.7733 72.4717C38.1275 72.5859 37.455 72.1703 37.3297 71.4575L37.0793 70.0317C36.9653 69.3836 37.3796 68.7089 38.0901 68.5832L39.5109 68.3318C40.1569 68.2175 40.8292 68.6332 40.9545 69.346L41.2051 70.7718Z" fill="white"/>
<path d="M39.4999 68.2671C40.1458 68.1527 40.8182 68.5684 40.9435 69.2812L41.2054 70.7718C41.3192 71.4199 40.9051 72.0946 40.1946 72.2202L38.7738 72.4717C38.1278 72.5859 37.4554 72.1704 37.3301 71.4575" fill="white"/>
<path d="M47.8184 70.1359C47.9322 70.7841 47.5181 71.4588 46.8076 71.5845L45.3867 71.8358C44.7407 71.9502 44.0683 71.5345 43.9432 70.8216L43.6926 69.3959C43.5786 68.7478 43.9929 68.0732 44.7034 67.9475L46.1242 67.696C46.7702 67.5818 47.4426 67.9973 47.5678 68.7103L47.8184 70.1359Z" fill="#769AA5"/>
<path d="M47.7285 69.6177C47.8425 70.2658 47.4282 70.9405 46.7177 71.0661L45.2968 71.3176C44.6509 71.4318 43.9786 71.0163 43.8533 70.3033L43.6027 68.8776C43.4889 68.2295 43.903 67.5548 44.6135 67.4292L46.0343 67.1777C46.6803 67.0634 47.3527 67.4791 47.478 68.192L47.7285 69.6177Z" fill="white"/>
<path d="M46.0234 67.1128C46.6692 66.9986 47.3416 67.4141 47.4669 68.127L47.7289 69.6176C47.8427 70.2656 47.4284 70.9403 46.7181 71.066L45.2971 71.3175C44.6512 71.4317 43.9788 71.0162 43.8535 70.3033" fill="white"/>
<path d="M55.0519 68.8564C55.1659 69.5044 54.7516 70.1791 54.0413 70.3048L51.8452 70.6932C51.1994 70.8076 50.527 70.3919 50.4017 69.6791L48.4543 58.597C48.3403 57.949 48.7546 57.2743 49.465 57.1485L51.661 56.76C52.3068 56.6458 52.9792 57.0614 53.1045 57.7742L55.0519 68.8564Z" fill="#769AA5"/>
<path d="M54.9388 68.2081C55.0526 68.8562 54.6385 69.5308 53.928 69.6565L51.7319 70.0451C51.0861 70.1593 50.4137 69.7437 50.2884 69.0308L48.341 57.9488C48.227 57.3006 48.6413 56.6261 49.3518 56.5003L51.5477 56.1118C52.1937 55.9976 52.8661 56.4131 52.9912 57.126L54.9388 68.2081Z" fill="#FF7300"/>
<path d="M50.224 69.0422L48.2766 57.9602C48.1626 57.3122 48.5769 56.6374 49.2874 56.5117" fill="#FFAA00"/>
<path d="M48.8241 54.255C48.8696 54.5142 48.71 54.7429 48.4517 54.7887C48.1933 54.8343 48.03 54.6628 47.9844 54.4035C47.9389 54.1443 48.0985 53.9156 48.2922 53.8813C48.562 53.9005 48.7899 54.0606 48.8241 54.255Z" fill="#769AA5"/>
<path d="M50.5681 53.9462C50.6138 54.2055 50.4541 54.4342 50.1957 54.4798C49.9374 54.5256 49.774 54.354 49.7285 54.0948C49.683 53.8356 49.8425 53.6069 50.0364 53.5725C50.306 53.5916 50.534 53.7518 50.5681 53.9462Z" fill="#769AA5"/>
<defs>
<linearGradient id="paint0_linear_2189_1484" x1="0" y1="0" x2="104.167" y2="93.5185" gradientUnits="userSpaceOnUse">
<stop stop-color="#92DCDF"/>
<stop offset="0.0001" stop-color="#DEFFF1"/>
<stop offset="1" stop-color="#B0D3FE"/>
</linearGradient>
</defs>
</svg>
