<svg width="100" height="100" viewBox="0 0 100 100" fill="none" xmlns="http://www.w3.org/2000/svg">
<circle cx="50" cy="50" r="50" fill="url(#paint0_linear_1133_13994)"/>
<path d="M74.9342 45.4666H72.1915C71.6079 42.6361 70.4885 39.9435 68.8936 37.5335L70.8315 35.5842C71.2572 35.1589 71.4963 34.5821 71.4963 33.9802C71.4963 33.3788 71.2573 32.802 70.8315 32.3766L67.6357 29.1693C67.2103 28.7435 66.6336 28.5045 66.0317 28.5045C65.4302 28.5045 64.8534 28.7435 64.428 29.1693L62.4673 31.1072C60.0573 29.5123 57.3647 28.3929 54.5342 27.8093V25.0666C54.5342 24.4655 54.2952 23.8891 53.8702 23.4641C53.4452 23.0387 52.8687 22.8 52.2673 22.8H47.7342C47.1328 22.8 46.5564 23.0387 46.1314 23.4641C45.7064 23.8891 45.4673 24.4656 45.4673 25.0666V27.8093C42.6369 28.3929 39.9443 29.5123 37.5342 31.1072L35.5735 29.1693C35.1481 28.7435 34.5714 28.5045 33.9699 28.5045C33.368 28.5045 32.7912 28.7435 32.3658 29.1693L29.17 32.3651C28.7443 32.7905 28.5052 33.3672 28.5052 33.9691C28.5052 34.5706 28.7443 35.1474 29.17 35.5728L31.1079 37.5335C29.5131 39.9435 28.3937 42.6361 27.81 45.4666H25.0673C24.4662 45.4666 23.8898 45.7056 23.4648 46.1306C23.0395 46.5556 22.8008 47.1321 22.8008 47.7335V52.267V52.2666C22.8008 52.868 23.0395 53.4444 23.4648 53.8694C23.8898 54.2944 24.4663 54.5335 25.0673 54.5335H27.81C28.3937 57.3639 29.5131 60.0565 31.1079 62.4666L29.17 64.4273C28.7443 64.8527 28.5052 65.4294 28.5052 66.0309C28.5052 66.6328 28.7443 67.2096 29.17 67.635L32.3658 70.8308C32.7912 71.2565 33.368 71.4956 33.9699 71.4956C34.5713 71.4956 35.1481 71.2565 35.5735 70.8308L37.5342 68.8929C39.9443 70.4877 42.6369 71.6071 45.4673 72.1908V74.9335C45.4673 75.5346 45.7064 76.111 46.1314 76.536C46.5564 76.9613 47.1328 77.2 47.7342 77.2H52.2677H52.2673C52.8688 77.2 53.4452 76.9613 53.8702 76.536C54.2952 76.111 54.5342 75.5345 54.5342 74.9335V72.1908C57.3647 71.6071 60.0573 70.4877 62.4673 68.8929L64.4166 70.8308C64.8419 71.2565 65.4187 71.4956 66.0206 71.4956C66.622 71.4956 67.1988 71.2565 67.6242 70.8308L70.82 67.635C71.2458 67.2096 71.4849 66.6328 71.4849 66.0309C71.4849 65.4295 71.2458 64.8527 70.82 64.4273L68.8935 62.4666C70.4884 60.0565 71.6078 57.3639 72.1914 54.5335H74.9341C75.5352 54.5335 76.1116 54.2944 76.5366 53.8694C76.962 53.4444 77.2007 52.868 77.2007 52.2666V47.7335C77.2007 47.132 76.962 46.5556 76.5366 46.1306C76.1116 45.7056 75.5351 45.4666 74.9341 45.4666L74.9342 45.4666ZM74.9342 52.2666H71.2394C70.6782 52.2594 70.1959 52.6643 70.1059 53.2187C69.6054 56.3716 68.3665 59.3618 66.4908 61.9452C66.1621 62.3998 66.2153 63.0259 66.6156 63.4187L69.2221 66.0252L66.0259 69.2666L63.4194 66.66C63.0267 66.2597 62.4006 66.2066 61.9459 66.5352C59.3625 68.4112 56.3724 69.6498 53.2194 70.1507C52.665 70.2407 52.2601 70.7226 52.2673 71.2842V74.9335H47.7343V71.2386C47.7415 70.6774 47.3366 70.1951 46.7822 70.1052C43.6292 69.6047 40.6391 68.3657 38.0556 66.49C37.8579 66.3549 37.6257 66.2802 37.3866 66.2748C37.0838 66.276 36.7943 66.3985 36.5822 66.6148L33.9756 69.2666L30.7343 66.0252L33.3408 63.4187C33.7412 63.0259 33.7943 62.3998 33.4657 61.9452C31.5896 59.3618 30.3511 56.3716 29.8501 53.2187C29.7602 52.6643 29.2783 52.2594 28.7166 52.2666H25.0674V47.7335H28.7622C29.3234 47.7407 29.8057 47.3358 29.8957 46.7814C30.3962 43.6285 31.6351 40.6383 33.5108 38.0549C33.8395 37.6003 33.7863 36.9742 33.386 36.5814L30.7343 33.9749L33.9756 30.7335L36.5822 33.3401C36.9749 33.7404 37.601 33.7935 38.0556 33.4649C40.6391 31.5889 43.6292 30.3503 46.7822 29.8493C47.3366 29.7594 47.7415 29.2775 47.7343 28.7159V25.0666H52.2677L52.2673 28.7614C52.2601 29.3227 52.665 29.805 53.2194 29.8949C56.3724 30.3954 59.3625 31.6343 61.946 33.5101C62.4006 33.8387 63.0267 33.7856 63.4194 33.3852L66.026 30.7335L69.2673 33.9749L66.6608 36.5814C66.2605 36.9742 66.2073 37.6003 66.5359 38.0549C68.412 40.6383 69.6505 43.6285 70.1515 46.7814C70.2414 47.3358 70.7234 47.7407 71.285 47.7335H74.9342L74.9342 52.2666Z" fill="#3491FF"/>
<path d="M49.9998 33.0002C45.491 33.0002 41.167 34.7913 37.9793 37.9795C34.7911 41.1674 33 45.4914 33 50C33 54.5086 34.7911 58.8328 37.9793 62.0205C41.1672 65.2087 45.4912 66.9998 49.9998 66.9998C54.5084 66.9998 58.8326 65.2087 62.0203 62.0205C65.2085 58.8326 66.9996 54.5086 66.9996 50C66.9996 47.0159 66.2141 44.0842 64.7221 41.5C63.2301 38.9158 61.0838 36.7696 58.4996 35.2775C55.9154 33.7855 52.9837 33 49.9996 33L49.9998 33.0002Z" fill="#00C673"/>
<path d="M54.8621 43.5285L43.5284 54.8622C43.314 55.0751 43.1934 55.3646 43.1934 55.6667C43.1934 55.9691 43.314 56.2586 43.5284 56.4715C43.7413 56.6859 44.0308 56.8066 44.3333 56.8066C44.6353 56.8066 44.9249 56.6859 45.1377 56.4715L56.4714 45.1378C56.9157 44.6935 56.9157 43.9729 56.4714 43.5286C56.027 43.0842 55.3065 43.0842 54.8621 43.5286L54.8621 43.5285Z" fill="white"/>
<path d="M55.6676 53.9666C55.6676 54.9058 54.9068 55.6666 53.9676 55.6666C53.0288 55.6666 52.2676 54.9058 52.2676 53.9666C52.2676 53.0278 53.0288 52.2666 53.9676 52.2666C54.9068 52.2666 55.6676 53.0278 55.6676 53.9666Z" fill="white"/>
<path d="M47.734 46.034C47.734 46.9728 46.9728 47.734 46.034 47.734C45.0948 47.734 44.334 46.9728 44.334 46.034C44.334 45.0948 45.0948 44.334 46.034 44.334C46.9728 44.334 47.734 45.0948 47.734 46.034Z" fill="white"/>
<defs>
<linearGradient id="paint0_linear_1133_13994" x1="0" y1="0" x2="104.167" y2="93.5185" gradientUnits="userSpaceOnUse">
<stop stop-color="#92DCDF"/>
<stop offset="0.0001" stop-color="#DEFFF1"/>
<stop offset="1" stop-color="#B0D3FE"/>
</linearGradient>
</defs>
</svg>
