<svg width="100" height="100" viewBox="0 0 100 100" fill="none" xmlns="http://www.w3.org/2000/svg">
<circle cx="50" cy="50" r="50" fill="url(#paint0_linear_1133_13504)"/>
<path d="M35.1285 41.2767H53.8285C54.9399 41.26 54.9506 39.5956 53.8285 39.5767H35.1285C34.0174 39.5934 34.0064 41.2577 35.1285 41.2767Z" fill="#00C673"/>
<path d="M35.1286 45.5267H48.7286C49.8415 45.5092 49.8491 43.8456 48.7286 43.8267H35.1286C34.0156 43.8441 34.008 45.5077 35.1286 45.5267Z" fill="#00C673"/>
<path d="M48.7286 56.5767H35.1286C34.0156 56.5941 34.008 58.2577 35.1286 58.2767H48.7286C49.8415 58.2592 49.8491 56.5956 48.7286 56.5767Z" fill="#00C673"/>
<path d="M52.1293 48.9267C52.1293 48.4569 51.7487 48.0767 51.2793 48.0767H35.1293C34.6599 48.0767 34.2793 48.4569 34.2793 48.9267C34.2793 49.3964 34.6599 49.7767 35.1293 49.7767H51.2793C51.7487 49.7767 52.1293 49.3964 52.1293 48.9267Z" fill="#00C673"/>
<path d="M49.5786 52.3267H35.1286C34.016 52.3441 34.0077 54.0077 35.1286 54.0267H49.5786C50.6912 54.0092 50.6995 52.3456 49.5786 52.3267Z" fill="#00C673"/>
<path d="M74.8622 57.7978C74.0213 56.5369 74.0217 54.9082 74.863 53.6491C75.0884 53.3114 75.044 52.8621 74.7571 52.576L71.4307 49.2492C71.1438 48.9627 70.6839 48.9255 70.3466 49.1513C69.0891 49.988 67.4634 49.9888 66.2047 49.1506C65.9179 48.9521 65.5354 48.9529 65.2458 49.1464C64.1028 49.908 62.6598 49.9702 61.4793 49.3627L61.4797 35.3265C62.2955 34.7144 62.8822 33.8136 63.0947 32.7765H64.8797C65.3491 32.7765 65.7297 32.3963 65.7297 31.9265C65.7297 31.4567 65.3491 31.0765 64.8797 31.0765H63.0947C62.7038 29.1386 60.9868 27.6765 58.9297 27.6765H31.7297C29.6749 27.6765 27.9597 29.1374 27.5655 31.0765H25.7797C25.3103 31.0765 24.9297 31.4567 24.9297 31.9265C24.9297 32.3963 25.3103 32.7765 25.7797 32.7765H27.5757C27.8557 34.1441 28.7846 35.2764 30.0297 35.8282V62.5269C30.0297 64.4053 31.5513 65.9269 33.4297 65.9269H52.1277C52.1285 66.6505 51.9183 67.3738 51.4967 68.0045C51.2713 68.3422 51.3157 68.7915 51.6026 69.0776L54.9289 72.4044C55.2154 72.6909 55.6761 72.7281 56.013 72.5023C57.2706 71.6656 58.8962 71.6648 60.1549 72.503C60.4418 72.7015 60.8243 72.7008 61.1138 72.5072C62.3737 71.6679 64.0012 71.6679 65.236 72.4905C65.524 72.6996 65.9137 72.7057 66.21 72.5087C67.4703 71.6679 69.0989 71.6679 70.3579 72.5103C70.6938 72.7338 71.1434 72.692 71.4311 72.404L74.7574 69.0772C75.0439 68.7908 75.0804 68.3301 74.8561 67.9924C74.0186 66.7348 74.0186 65.1103 74.8743 63.8236C75.0542 63.5397 75.047 63.172 74.8606 62.8924C74.0205 61.6333 74.0205 60.0054 74.8527 58.7578C75.0534 58.4713 75.0565 58.0888 74.8622 57.7974L74.8622 57.7978ZM51.5061 62.8952C51.1684 63.3391 51.4633 63.8226 51.7061 64.2267H33.4297C32.4947 64.2267 31.7297 63.4617 31.7297 62.5267V36.1767H59.7797V49.3532C58.5817 49.9702 57.142 49.9049 56.0021 49.1422C55.6651 48.9198 55.2158 48.9612 54.9289 49.2484L51.6026 52.5752C51.3161 52.8617 51.2796 53.3224 51.5039 53.6601C52.3414 54.9176 52.3414 56.5421 51.4857 57.8289C51.3058 58.1127 51.313 58.4804 51.4994 58.7601C52.3395 60.0191 52.3395 61.6471 51.5073 62.8947L51.5061 62.8952ZM73.1651 63.3718C72.3375 64.923 72.3144 66.771 73.0938 68.3374L70.6887 70.7421C69.1416 69.9775 67.3213 69.9942 65.7443 70.8191C64.1472 69.9646 62.248 69.9684 60.6413 70.8157C59.095 69.9881 57.2531 69.9615 55.6711 70.7436L53.2638 68.3355C54.0402 66.7729 53.9871 64.9242 53.1891 63.3884C54.0478 61.7806 54.044 59.859 53.1932 58.282C54.0208 56.7308 54.044 54.8828 53.2646 53.3164L55.6696 50.9117C57.2179 51.6763 59.0378 51.6604 60.614 50.8347C62.2017 51.6847 64.1012 51.6904 65.717 50.8381C67.2633 51.6657 69.1053 51.6923 70.6872 50.9102L73.0945 53.3183C72.3254 54.8714 72.3455 56.6982 73.1693 58.2654C72.3106 59.8732 72.3144 61.7948 73.1651 63.3718Z" fill="#3491FF"/>
<path d="M69.9793 53.1768H56.3793C55.9099 53.1768 55.5293 53.557 55.5293 54.0268V67.6268C55.5293 68.0965 55.9099 68.4768 56.3793 68.4768H69.9793C70.4487 68.4768 70.8293 68.0965 70.8293 67.6268V54.0268C70.8293 53.557 70.4487 53.1768 69.9793 53.1768ZM68.2793 62.9396C66.5948 62.8535 65.2056 64.2427 65.2918 65.9271C64.1617 64.6753 62.1969 64.6753 61.0668 65.9271C61.153 64.2427 59.7638 62.8534 58.0793 62.9396C59.3312 61.8096 59.3312 59.8447 58.0793 58.7147C59.7638 58.8008 61.153 57.4116 61.0668 55.7271C62.1969 56.979 64.1617 56.979 65.2918 55.7271C65.2056 57.4116 66.5948 58.8008 68.2793 58.7147C67.0274 59.8447 67.0274 61.8096 68.2793 62.9396Z" fill="#00C673"/>
<defs>
<linearGradient id="paint0_linear_1133_13504" x1="0" y1="0" x2="104.167" y2="93.5185" gradientUnits="userSpaceOnUse">
<stop stop-color="#92DCDF"/>
<stop offset="0.0001" stop-color="#DEFFF1"/>
<stop offset="1" stop-color="#B0D3FE"/>
</linearGradient>
</defs>
</svg>
