<svg width="120" height="120" viewBox="0 0 120 120" fill="none" xmlns="http://www.w3.org/2000/svg">
<circle cx="60" cy="60" r="60" fill="url(#paint0_linear_1133_16151)"/>
<g clip-path="url(#clip0_1133_16151)">
<path d="M25 60.14C25.0425 56.6347 26.1606 53.6315 28.5691 51.2105C36.0754 43.6672 43.5745 36.105 51.1657 28.6417C56.1195 23.7668 63.8239 23.8093 68.8131 28.63C71.9458 31.6614 74.9842 34.7919 78.0862 37.8564C78.5321 38.2949 78.6594 38.5778 78.1499 39.0681C77.3604 39.8342 76.6146 40.644 75.916 41.4937C75.4725 42.0288 75.2083 41.9793 74.7365 41.5079C71.8397 38.5707 68.9122 35.6665 65.9941 32.7505C62.2198 28.9788 57.7378 28.9788 53.9799 32.7387L32.6383 54.0628C28.9819 57.719 28.9654 62.278 32.6029 65.9106C39.7695 73.0768 46.9392 80.2407 54.112 87.4021C57.7024 90.9899 62.267 90.9805 65.8762 87.3786C73.0475 80.2171 80.2172 73.0533 87.3853 65.8871C90.9851 62.2875 90.9827 57.7308 87.3853 54.1289C85.6915 52.4316 84.0096 50.7249 82.2899 49.0559C81.8299 48.6104 81.7544 48.3158 82.2427 47.8372C83.0283 47.0687 83.7595 46.2413 84.4814 45.4139C84.8447 44.999 85.0947 44.8458 85.5689 45.3338C87.5669 47.3893 89.6687 49.3412 91.6173 51.4486C93.8303 53.8163 95.0411 56.9476 94.9962 60.1872C94.9514 63.4267 93.6544 66.5233 91.3766 68.829C83.9129 76.3723 76.4106 83.8701 68.8697 91.3223C67.6993 92.4932 66.3085 93.4209 64.7775 94.052C63.2465 94.6831 61.6056 95.0051 59.9495 94.9994C58.2934 94.9937 56.6547 94.6604 55.1281 94.0188C53.6015 93.3772 52.2171 92.4399 51.0548 91.261C43.5863 83.8403 36.1375 76.3998 28.7083 68.9398C26.255 66.4882 25.0731 63.4944 25 60.14Z" fill="#3491FF"/>
<path d="M46.6817 52.5921C47.347 52.5638 47.9296 52.948 48.5028 53.3841C51.9729 56.0173 55.4618 58.6268 58.9035 61.3C59.5994 61.8398 59.9273 61.7502 60.4911 61.1349C67.5995 53.3747 74.7283 45.6349 81.8775 37.9156C82.4154 37.3333 82.6324 37.0033 81.8775 36.381C80.6485 35.365 80.7712 34.9784 82.2856 34.4598C84.8459 33.5828 87.4054 32.7091 89.9641 31.8384C91.186 31.4259 91.5587 31.7324 91.2639 32.9417C90.586 35.7217 89.8878 38.4955 89.1691 41.2629C88.8931 42.3261 88.4779 42.4156 87.6027 41.6637C86.3147 40.5604 86.3124 40.5557 85.1895 41.7744C77.6408 49.9731 70.0842 58.1726 62.5198 66.3729C60.786 68.2587 59.8424 68.3341 57.8019 66.783C54.4238 64.2207 51.0317 61.6795 47.6796 59.0865C47.0474 58.6009 46.736 58.615 46.1769 59.2161C43.4098 62.217 40.572 65.1565 37.7931 68.1479C37.2765 68.7042 36.9698 68.7702 36.4414 68.1691C35.6913 67.3158 34.8609 66.5332 34.0282 65.7553C33.6225 65.3734 33.6296 65.1282 34.0282 64.7204C37.6044 60.9676 41.1547 57.1935 44.7167 53.4289C44.9642 53.1558 45.2681 52.9395 45.6073 52.795C45.9466 52.6505 46.3131 52.5813 46.6817 52.5921Z" fill="#3491FF"/>
<path d="M68.9221 82.6171C68.9221 75.9153 68.9221 69.4469 68.9221 62.9761C68.9182 62.7627 68.958 62.5507 69.0391 62.3533C69.1203 62.1558 69.241 61.9771 69.3939 61.8281C71.7183 59.3246 74.0317 56.8102 76.334 54.2847C76.4728 54.1238 76.6471 53.9975 76.8433 53.9156C77.0394 53.8338 77.2519 53.7987 77.464 53.8133C78.601 53.8415 79.7404 53.8015 80.8798 53.8298C82.2244 53.8628 82.9391 54.537 82.9486 55.8665C82.9816 59.9493 82.9486 64.0298 82.9722 68.1103C82.9757 68.3237 82.9333 68.5354 82.8478 68.731C82.7623 68.9267 82.6358 69.1016 82.4768 69.2441C78.1363 73.5674 73.8013 77.8939 69.4718 82.2234C69.2972 82.3663 69.1136 82.4978 68.9221 82.6171Z" fill="#00C673"/>
<path d="M53.0152 65.6259C54.532 66.7739 55.8035 67.7474 57.0891 68.7069C59.3537 70.39 61.6608 70.1731 63.6046 68.0963C64.6685 66.9601 65.7276 65.8098 66.801 64.6382C67.1171 65.0342 66.9802 65.3972 66.9802 65.7225C66.9802 71.6912 66.9802 77.6599 67.0062 83.638C67.0062 84.4136 66.8104 84.9793 66.2277 85.4814C65.6451 85.9835 65.1261 86.5988 64.5482 87.1315C61.9038 89.576 58.0634 89.4582 55.3482 87.1056C53.579 85.5757 52.8571 83.9209 52.9562 81.54C53.1567 76.757 53.0175 71.9623 53.0175 67.1723L53.0152 65.6259Z" fill="#00C673"/>
<path d="M51.0136 82.7441C46.8406 78.5623 42.9129 74.6162 38.9829 70.6842C38.622 70.3235 38.629 70.0901 38.9829 69.7248C41.5589 67.0233 44.1207 64.3101 46.6684 61.585C47.0222 61.2078 47.2794 61.2408 47.6545 61.5379C48.598 62.2922 49.577 63.03 50.5631 63.7419C50.723 63.8509 50.8511 64.0005 50.934 64.1754C51.0169 64.3502 51.0517 64.544 51.0348 64.7367C51.0113 70.6205 51.0136 76.5044 51.0136 82.7441Z" fill="#00C673"/>
</g>
<defs>
<linearGradient id="paint0_linear_1133_16151" x1="0" y1="0" x2="125" y2="112.222" gradientUnits="userSpaceOnUse">
<stop stop-color="#92DCDF"/>
<stop offset="0.0001" stop-color="#DEFFF1"/>
<stop offset="1" stop-color="#B0D3FE"/>
</linearGradient>
<clipPath id="clip0_1133_16151">
<rect width="70" height="70" fill="white" transform="translate(25 25)"/>
</clipPath>
</defs>
</svg>
