<svg width="120" height="120" viewBox="0 0 120 120" fill="none" xmlns="http://www.w3.org/2000/svg">
<circle cx="60" cy="60" r="60" fill="url(#paint0_linear_1133_16159)"/>
<g clip-path="url(#clip0_1133_16159)">
<path d="M48.6868 65.642C48.6868 73.0914 48.7138 79.9399 48.6868 86.7928C48.6868 88.0799 48.889 88.9679 50.718 89.0621V67.0593L51.2618 66.6108C52.6863 68.176 54.1827 69.6829 55.5129 71.3244C56.6678 72.7506 57.643 72.9793 58.7305 71.3244C59.0091 70.9073 59.3327 70.5171 59.6293 70.1135L60.1281 70.396V81.7114C60.1281 84.0301 60.0876 86.3443 60.1595 88.6585C60.182 89.394 59.5573 90.6677 61.1661 90.6004C62.7749 90.5331 62.0649 89.255 62.0649 88.5598C62.1248 82.2092 62.1248 75.8601 62.0649 69.5125C62.0237 69.0006 62.1016 68.4861 62.2926 68.0092C62.4836 67.5323 62.7825 67.1059 63.1659 66.7633C65.9655 64.2114 68.7157 61.6012 71.4524 59.0448V88.3131C73.2499 87.9857 74.5576 87.1067 75.8743 86.3218C87.356 79.4959 93.0452 66.0547 89.7692 53.2414C89.0187 50.3083 91.6925 49.8777 92.7171 47.9492C98.604 62.8211 93.1665 81.7517 76.9618 90.6452C62.9546 98.3368 45.8602 95.619 34.7201 84.2139C32.8911 82.3438 34.3156 81.7652 35.2324 80.626C36.6254 78.8814 37.1333 80.5139 37.8882 81.2136C38.2803 81.6386 38.645 82.088 38.9802 82.559C39.4296 80.7202 39.5734 79.1819 39.151 77.8903C38.6072 76.2264 39.3127 75.1993 40.2654 74.1992C42.8538 71.4634 45.5636 68.7904 48.6868 65.642Z" fill="#00C673"/>
<path d="M33.8307 64.8751C32.5724 58.0178 33.6869 51.9318 37.1201 46.4512C42.8183 37.3469 51.1723 32.8351 62.0113 33.5976C64.7076 33.7904 66.3658 32.8351 67.8533 30.6106C63.9097 29.3419 59.7104 29.0797 55.6391 29.8482C41.8432 32.2611 33.3768 40.4863 30.1008 53.9903C28.8291 59.2331 29.283 64.5074 30.8962 69.6336C31.7501 72.3245 32.0152 72.3245 33.979 70.3915C38.5806 65.799 43.2138 61.2289 47.757 56.5781C48.8849 55.4255 49.6309 55.2326 50.7903 56.5332C52.3676 58.3272 54.1696 59.9148 55.8368 61.6325C56.8929 62.7224 57.6344 63.2695 58.6949 61.4666C59.4184 60.2153 60.6182 59.1704 61.7731 58.2375C64.02 56.4032 65.3008 53.6495 67.6825 51.9587C68.2982 51.5102 68.1723 51.0841 67.6825 50.7253C66.95 50.2051 66.1681 49.7476 65.4087 49.2633L65.912 48.4291C69.2733 47.5321 72.6527 46.6351 76.005 45.7381C76.9577 45.4915 77.2094 45.931 76.9487 46.8369C76.1848 49.492 75.4748 52.1605 74.7018 54.8066C74.3244 56.0982 73.5784 56.6633 72.5089 55.4479C71.4977 54.2998 70.8147 54.7662 69.9743 55.6408C66.2445 59.5202 62.4427 63.3323 58.7398 67.2431C57.5984 68.4541 56.83 68.7456 55.5942 67.3104C54.1472 65.6107 52.3451 64.2069 50.8802 62.5206C49.6803 61.1347 48.8714 61.3052 47.6716 62.5206C42.7554 67.5436 37.7583 72.4815 32.7926 77.4507C30.7839 79.46 30.7479 79.4824 29.4177 77.083C21.6435 63.0946 24.0252 44.4913 37.3583 33.4585C48.2243 24.4664 60.4699 22.7397 73.6772 27.7672C75.322 28.3906 75.8972 28.9198 74.2794 30.3819C71.8932 32.5347 69.6643 34.8668 67.4488 37.1855C67.1154 37.5845 66.6751 37.8807 66.1795 38.0395C65.6838 38.1983 65.153 38.2132 64.6492 38.0825C51.4059 35.3198 40.5355 44.1595 38.1088 54.9815C37.8302 56.2148 37.3853 57.5154 37.5426 58.7174C37.9246 61.6281 36.0866 63.0274 33.8307 64.8751Z" fill="#3491FF"/>
</g>
<defs>
<linearGradient id="paint0_linear_1133_16159" x1="0" y1="0" x2="125" y2="112.222" gradientUnits="userSpaceOnUse">
<stop stop-color="#92DCDF"/>
<stop offset="0.0001" stop-color="#DEFFF1"/>
<stop offset="1" stop-color="#B0D3FE"/>
</linearGradient>
<clipPath id="clip0_1133_16159">
<rect width="70" height="70" fill="white" transform="translate(25 25)"/>
</clipPath>
</defs>
</svg>
