<svg width="120" height="120" viewBox="0 0 120 120" fill="none" xmlns="http://www.w3.org/2000/svg">
<circle cx="60" cy="60" r="60" fill="url(#paint0_linear_1391_1338)"/>
<path d="M77.6117 83.4233H74.5492L73.3463 75.2002H55.5192L54.3163 83.4233H51.2538C50.707 83.4233 50.1602 83.8562 50.1602 84.5053C50.1602 85.0462 50.5977 85.5872 51.2538 85.5872H77.5034C78.0502 85.5872 78.597 85.1543 78.597 84.5053C78.597 83.8562 78.1595 83.4233 77.6127 83.4233H77.6117Z" fill="#00C673"/>
<path d="M64.3768 59.0794C68.8612 59.0794 72.4704 55.5088 72.4704 51.0724C72.4704 46.636 68.8612 43.0654 64.3768 43.0654C59.8925 43.0654 56.2832 46.636 56.2832 51.0724C56.393 55.4006 60.0023 59.0794 64.3768 59.0794ZM58.9085 51.2891C59.3461 50.8562 60.0022 50.8562 60.4398 51.2891L62.1895 53.0201L68.5329 46.7446C68.9704 46.3117 69.6265 46.3117 70.0641 46.7446C70.5017 47.1774 70.5017 47.8265 70.0641 48.2594L62.9549 55.2925C62.7364 55.5087 62.5173 55.6173 62.1896 55.6173C61.8613 55.6173 61.6427 55.5092 61.4242 55.2925L58.9085 52.8038C58.471 52.3709 58.471 51.7218 58.9085 51.2889V51.2891Z" fill="#3491FF"/>
<path d="M91.9378 29H36.9238C35.1741 29 33.8613 30.4067 33.8613 32.0297V55.0767C34.7365 54.8605 35.7209 54.6439 36.7052 54.6439H37.0335C38.0178 54.6439 38.893 54.7519 39.7676 54.9686V36.0342C39.7676 35.4932 40.2052 34.9522 40.8613 34.9522H87.8911C88.4379 34.9522 88.9848 35.3851 88.9848 36.0342V65.1398H95.0004V32.03C95.0004 30.407 93.5784 29.0003 91.9379 29.0003L91.9378 29Z" fill="#00C673"/>
<path d="M50.92 71.5233V73.0381H91.934C93.5745 73.0381 94.9964 71.6314 94.9964 70.0084V67.0869L48.8418 67.0874C50.1545 68.1694 50.9198 69.7923 50.9198 71.5233L50.92 71.5233Z" fill="#00C673"/>
<path d="M86.9031 65.0301V37.0059H41.9512V55.9403C45.1228 57.6713 47.3101 61.0258 47.3101 64.8125V65.1373H86.9024L86.9031 65.0301ZM64.3724 41.0101C69.9503 41.0101 74.544 45.5546 74.544 51.0728C74.544 56.5911 69.9503 61.1356 64.3724 61.1356C58.7944 61.1356 54.2007 56.5911 54.2007 51.0728C54.2012 45.4459 58.7949 41.0101 64.3724 41.0101Z" fill="#00C673"/>
<path d="M37.7983 78.774C38.6734 78.4492 39.2202 77.584 39.2202 76.7182C39.2202 75.5282 38.2358 74.4463 37.0328 74.4463C35.8299 74.4463 34.7363 75.4201 34.7363 76.7182C34.7363 77.584 35.2832 78.4492 36.1582 78.774C36.7051 78.9902 36.9236 79.5312 36.7051 80.0727L35.1733 83.8595H38.5641L37.1422 80.0727C36.9231 79.5312 37.2514 78.9902 37.7983 78.774Z" fill="#00C673"/>
<path d="M45.2341 67.9533V64.8156C45.2341 60.3792 41.6248 56.8086 37.1404 56.8086H36.7029C32.2185 56.8086 28.6093 60.3792 28.6093 64.8156V67.9533C26.6405 67.9533 25 69.5762 25 71.5239V87.4297C25 89.3773 26.6405 91.0003 28.6093 91.0003H45.2337C47.2024 91.0003 48.843 89.3773 48.843 87.4297L48.8435 71.5239C48.8435 69.5766 47.203 67.9533 45.2342 67.9533H45.2341ZM41.1877 84.5082C41.297 84.8329 41.297 85.1572 41.0784 85.482C40.8599 85.8068 40.5316 85.9149 40.2033 85.9149H33.6409C33.3126 85.9149 32.9848 85.6987 32.7658 85.482C32.6565 85.2653 32.5472 84.8329 32.6565 84.5082L34.297 80.1803C33.2034 79.4232 32.4375 78.1245 32.4375 76.7178C32.4375 74.3373 34.4062 72.39 36.8122 72.39C39.2185 72.39 41.1869 74.3376 41.1869 76.7178C41.1869 78.1245 40.5308 79.4227 39.4371 80.1803L41.1877 84.5082ZM43.0467 67.9533H30.797V64.8156C30.797 61.5698 33.4219 58.973 36.7028 58.973H37.1404C40.4213 58.973 43.0461 61.5698 43.0461 64.8156L43.0467 67.9533Z" fill="#3491FF"/>
<defs>
<linearGradient id="paint0_linear_1391_1338" x1="0" y1="0" x2="125" y2="112.222" gradientUnits="userSpaceOnUse">
<stop stop-color="#92DCDF"/>
<stop offset="0.0001" stop-color="#DEFFF1"/>
<stop offset="1" stop-color="#B0D3FE"/>
</linearGradient>
</defs>
</svg>
