<svg width="120" height="120" viewBox="0 0 120 120" fill="none" xmlns="http://www.w3.org/2000/svg">
<circle cx="60" cy="60" r="60" fill="url(#paint0_linear_1133_16183)"/>
<g clip-path="url(#clip0_1133_16183)">
<path d="M85.6839 55.6467C85.6839 63.9708 85.6839 72.3043 85.6839 80.6284C85.6274 89.7453 80.4336 94.9362 71.394 94.9645C63.8531 94.9645 56.3123 94.9645 48.7714 94.9645C40.6085 94.9645 35.2451 89.651 35.0848 81.459C34.9717 75.488 34.9717 69.5107 35.0848 63.5272C35.2545 55.3258 40.486 50.1067 48.6866 49.767C50.2514 49.7009 51.8255 49.767 53.3997 49.767C58.4897 49.767 59.7716 51.5979 58.6122 56.6093C58.1127 58.8083 56.5951 58.176 55.3414 58.2326C45.1236 58.7139 45.1235 58.7046 45.1141 68.7936C45.1141 72.5687 45.1141 76.3438 45.1141 80.1189C45.1801 85.6589 45.9814 86.4705 51.3542 86.4988C57.1607 86.4988 62.9671 86.4988 68.7736 86.4988C74.8722 86.4988 75.6169 85.791 75.6263 79.7697C75.6263 63.1215 75.7865 46.4543 75.532 29.806C75.466 25.6251 76.946 24.955 80.6316 25.0022C84.3171 25.0494 85.9855 25.3986 85.797 29.7211C85.4105 38.3473 85.6839 47.0017 85.6839 55.6467Z" fill="#3491FF"/>
<path d="M65.9262 84.9016C62.9664 85.6378 62.0427 84.241 62.0992 80.9189C62.2878 69.8106 62.7968 58.6457 61.8919 47.6035C61.4771 42.5165 63.2775 39.1095 65.436 35.2306C66.4352 33.428 67.2647 32.7202 68.4901 35.0513C70.6581 39.1851 73.156 42.7997 72.7224 48.2642C71.9118 58.3721 72.4962 68.5931 72.4773 78.7671C72.4679 84.4203 71.9495 84.9111 65.9262 84.9016Z" fill="#00C673"/>
<path d="M58.5742 75.6715V78.9465C58.5742 85.5529 58.5742 85.4396 52.2304 84.9205C49.4969 84.7035 48.3092 83.3727 48.2715 80.7868C48.2715 77.9554 48.2715 75.1807 48.2715 72.3682C48.2715 65.4503 49.6854 64.4311 56.7549 65.6485C58.5647 65.96 58.6401 66.8944 58.6401 68.1874C58.5647 70.6789 58.5647 73.1799 58.5742 75.6715Z" fill="#00C673"/>
</g>
<defs>
<linearGradient id="paint0_linear_1133_16183" x1="0" y1="0" x2="125" y2="112.222" gradientUnits="userSpaceOnUse">
<stop stop-color="#92DCDF"/>
<stop offset="0.0001" stop-color="#DEFFF1"/>
<stop offset="1" stop-color="#B0D3FE"/>
</linearGradient>
<clipPath id="clip0_1133_16183">
<rect width="50.8065" height="70" fill="white" transform="translate(35 25)"/>
</clipPath>
</defs>
</svg>
