<svg width="120" height="120" viewBox="0 0 120 120" fill="none" xmlns="http://www.w3.org/2000/svg">
<circle cx="60" cy="60" r="60" fill="url(#paint0_linear_1133_16164)"/>
<g clip-path="url(#clip0_1133_16164)">
<path d="M88.135 60.0739C87.4811 59.7078 86.8583 59.2613 86.165 58.9947C84.882 58.4995 83.5576 58.1122 82.2498 57.6763C82.0681 57.6426 81.8941 57.5744 81.7371 57.4753C79.5221 55.4925 76.8234 54.6714 74.021 54.0895C73.6192 54.0034 73.2284 53.8706 72.8564 53.6938C71.8828 53.2367 70.8905 52.8875 69.7965 53.0081C69.2983 53.0632 68.854 53.26 68.6651 53.7551C68.5281 54.1085 68.3226 54.1657 67.9905 54.2101C65.5762 54.5381 63.1557 54.8449 60.756 55.2682C59.2199 55.5413 57.7484 56.1086 56.4194 56.9399C57.0796 57.2305 57.7234 57.5583 58.3479 57.9218C58.8731 58.2625 59.2717 58.1842 59.7803 57.8922C61.5131 56.8989 63.3863 56.185 65.3333 55.776C66.2654 55.5771 67.2141 55.4523 68.1752 55.2893C68.416 56.6881 68.6672 57.9578 69.3439 59.0857C69.3315 58.8148 69.2485 58.5609 69.2152 58.3006C69.1011 57.3864 68.9059 56.468 68.9184 55.5496C68.9371 54.2799 69.6657 53.7213 70.8822 54.0112C71.6461 54.1932 72.3665 54.5635 73.1076 54.8407C73.49 54.9987 73.8817 55.1322 74.2804 55.2407C76.4145 55.7337 78.4613 56.4553 80.3275 57.6404C80.6947 57.9099 81.0416 58.207 81.3655 58.5291C81.3302 58.6032 81.297 58.6751 81.2638 58.7407C80.9835 58.7683 80.7012 58.7683 80.4209 58.7407C79.8874 58.6307 79.3685 58.4318 78.8308 58.3281C78.4156 58.2456 78.0108 58.3281 77.77 58.7069L79.5532 59.5808C79.4909 59.6845 79.4515 59.7523 79.3975 59.8369C79.8418 59.907 80.2957 59.8777 80.7277 59.7508C81.1596 59.624 81.5593 59.4028 81.899 59.1026C82.0401 58.9841 82.283 58.8487 82.4242 58.891C83.5244 59.2359 84.6246 59.5851 85.6916 60.0146C86.1068 60.1797 86.4265 60.5585 86.8334 60.8759C86.5171 61.0605 86.2127 61.2655 85.9221 61.4896C85.7613 61.6652 85.622 61.8599 85.5069 62.0694C85.6863 62.2197 85.8854 62.3436 86.0985 62.4376C86.4678 62.5192 86.8414 62.5793 87.2174 62.6175C86.1089 63.9824 84.4544 64.503 82.9639 63.8872C82.447 63.6756 82.1543 63.8068 81.7578 64.0988C80.8735 64.7505 79.9912 65.4404 79.0218 65.9356C77.55 66.6889 76.2256 66.3588 75.1461 65.0891C74.7839 64.6207 74.4511 64.1295 74.1497 63.6184C74.0417 63.4534 73.9587 63.2714 73.8632 63.0979L73.668 63.1381C73.7407 63.8131 73.7262 64.5157 73.9109 65.1568C74.0957 65.798 74.4818 66.4159 74.76 67.0021C71.9596 67.1883 69.728 68.7627 67.6313 70.5636C65.5347 72.3644 63.7494 74.4191 62.7924 77.1426C62.1302 72.0639 60.0626 67.7068 56.38 64.0522L57.0235 64.0141C57.9929 63.9591 58.9458 63.8195 59.7969 63.2968C60.4612 62.8905 60.6273 62.3212 60.2681 61.625C59.2032 59.5745 57.6089 58.1905 55.3649 57.6679C54.7047 57.5155 54.028 57.4436 53.3325 57.3293C53.3512 56.9061 53.3782 56.4955 53.3844 56.0765C53.4363 52.5955 51.6428 50.399 48.284 49.8001C46.123 49.4171 43.9848 49.6266 41.8487 50.0117C41.1616 50.1344 40.7775 50.5682 40.79 51.1544C40.8024 51.7406 41.2052 52.0897 41.8944 52.2654C42.9904 52.5426 44.1156 52.7775 45.1452 53.2261C46.644 53.8821 46.8952 55.046 46.0295 56.4532C43.1897 55.9961 41.6328 57.8456 40.1547 59.839L40.0302 59.7565C40.1921 59.2042 40.3561 58.6519 40.5263 58.0742C39.2933 58.2985 38.5542 59.1089 38.0353 60.1585C37.8505 60.5331 37.6533 60.5945 37.2817 60.4781C36.8988 60.3611 36.5476 60.1555 36.2555 59.8772C35.9635 59.599 35.7385 59.2556 35.5981 58.8741C35.3368 58.174 35.1286 57.4545 34.9754 56.722C34.8218 56.049 34.5311 55.6639 34.0039 55.5962C33.4766 55.5285 33.0261 55.7951 32.7583 56.4638C32.5543 56.9543 32.3809 57.4576 32.2393 57.9705C31.5875 60.4569 32.2933 62.5646 34.3049 64.1072C34.8155 64.4966 35.3781 64.814 35.8659 65.1336C35.8659 65.7134 35.7393 66.3038 35.895 66.8074C36.1545 67.6539 35.9988 68.3797 35.6687 69.1352C35.5842 69.3289 35.5148 69.5292 35.4611 69.734C35.4294 69.8901 35.3551 70.0339 35.2468 70.1488C35.1384 70.2637 35.0005 70.3452 34.8488 70.3837C34.5187 70.5037 34.2238 70.707 33.9916 70.9745C33.7594 71.2421 33.5975 71.5652 33.5208 71.9137C33.4441 72.2623 33.4552 72.6249 33.5531 72.9679C33.651 73.3109 33.8325 73.6231 34.0807 73.8753C34.2816 74.093 34.4345 74.352 34.5291 74.635C34.8654 75.5999 35.3802 76.3702 36.4451 76.5395C36.8335 76.5856 37.195 76.7646 37.4706 77.0474C37.6604 77.2397 37.8951 77.3794 38.1527 77.4535C38.4102 77.5276 38.682 77.5334 38.9424 77.4706C39.7728 77.3034 40.6031 77.077 41.4169 76.859C43.3267 76.3533 43.9952 76.7871 44.3231 78.7636C44.3231 78.7932 44.3522 78.8143 44.3688 78.844C44.51 76.639 43.4741 75.6528 41.3608 75.9724C41.0785 76.0168 40.8045 76.0888 40.5305 76.1226C39.9703 76.2065 39.4063 76.2608 38.8407 76.2856C38.3383 76.2856 37.9439 76.0443 37.8028 75.6719L39.6856 74.0679C40.6633 74.7598 41.7906 74.7027 42.8887 74.0679C43.5055 73.7324 44.0775 73.3178 44.5909 72.8342C45.4462 71.9877 46.2143 71.0608 47.0135 70.1615C47.0841 70.0721 47.1466 69.9765 47.2003 69.8758C47.109 70.9339 46.6129 71.719 46.0109 72.4406C45.4088 73.1622 44.7882 73.8118 44.072 74.6096C44.9272 74.4932 45.6434 74.4297 46.3451 74.2943C49.4153 73.6975 51.2525 71.9941 51.7424 69.2008C51.873 68.3065 51.9071 67.4003 51.8441 66.4985C51.8068 65.652 51.6365 64.8056 51.4995 63.847C54.1131 67.0021 54.5636 70.5763 53.9906 74.4001C53.783 72.5993 53.9159 70.735 53.0876 68.9659C52.8572 70.5424 52.6973 72.0152 52.4109 73.4626C52.0372 75.3502 51.3542 77.0495 50.9577 77.4833C51.1487 76.0464 51.3459 74.5546 51.5431 73.0627C51.4705 73.0394 51.3978 73.0183 51.3252 72.9929C51.1964 73.1685 51.0615 73.3399 50.9349 73.5177C49.0105 76.2475 48.4251 79.2926 48.9254 82.5747C48.9683 82.9868 49.1253 83.378 49.378 83.7026C52.3035 86.8347 55.6416 89.5375 59.2966 91.7333C59.6497 91.9775 60.0666 92.108 60.4934 92.108C60.9201 92.108 61.337 91.9775 61.6901 91.7333C65.5277 89.4106 69.0224 86.5442 72.0696 83.2201C71.5699 82.8023 71.1279 82.3176 70.7556 81.779C70.6269 81.6563 70.5272 81.5674 70.44 81.4764C68.1981 79.0894 67.8887 75.8666 69.7052 73.0415C71.5569 70.1636 74.2721 68.6887 77.5666 68.2379C77.6693 68.2389 77.7705 68.2637 77.8625 68.3102C77.9546 68.3567 78.0351 68.4239 78.098 68.5067C78.947 69.7933 80.1926 70.3519 81.6457 70.4556C82.9037 70.5445 83.8441 69.8927 84.1368 68.7987C84.3444 67.9734 84.1368 67.5671 83.3895 67.1693C83.2739 67.1026 83.1736 67.0115 83.0956 66.902C83.0175 66.7924 82.9634 66.6671 82.9369 66.5344C82.9382 66.0723 82.9806 65.6112 83.0636 65.1568C83.9072 65.2427 84.759 65.1538 85.5681 64.8956C86.3772 64.6374 87.1267 64.2152 87.7717 63.6544C88.2183 63.2722 88.5829 62.8004 88.8429 62.2683C89.0246 61.88 89.0524 61.4352 88.9205 61.0264C88.7887 60.6177 88.5073 60.2765 88.135 60.0739ZM34.6578 62.9603C33.4973 62.0398 32.7708 60.8272 32.9472 59.2698C33.0323 58.5249 33.323 57.8054 33.5181 57.0732L33.7112 57.0986C33.7444 57.3653 33.7714 57.634 33.8108 57.8985C34.1658 60.2072 35.3532 61.4367 37.5931 61.8493C37.7322 61.8726 37.9501 62.0821 37.9398 62.1879C37.9002 62.8287 37.812 63.4655 37.6761 64.0924C37.5723 64.5347 37.3004 64.9389 37.1572 65.3621C37.0139 65.7853 36.9599 66.2086 36.8478 66.7058C36.4742 65.8742 36.7378 65.1547 37.0056 64.4966C36.2002 63.9782 35.3802 63.5338 34.6578 62.9603ZM39.1666 72.9061C39.0245 72.6863 38.8581 72.4839 38.6705 72.303C38.5975 72.2684 38.5177 72.2518 38.4373 72.2544C38.3569 72.2569 38.2782 72.2787 38.2076 72.3178C38.1432 72.3559 38.1951 72.6014 38.1972 72.7537C38.1993 72.9061 38.1972 73.0161 38.1972 73.1495C38.0477 73.1347 37.7965 73.1685 37.7633 73.0987C37.645 72.8426 37.454 72.4448 37.5557 72.3009C37.6597 72.168 37.7888 72.0578 37.9354 71.9767C38.0819 71.8957 38.243 71.8454 38.4089 71.829C38.9217 71.8078 39.1853 72.2607 39.1666 72.904V72.9061ZM40.4122 72.1951C40.0821 71.8121 39.8122 71.3656 39.4282 71.0799C39.2071 70.9033 38.932 70.812 38.6513 70.822C38.3706 70.8321 38.1024 70.9429 37.8941 71.1349C37.3211 71.6893 36.6901 71.5116 36.0507 71.5412C36.2458 70.5382 36.2832 70.5212 37.1405 70.6651C37.315 70.658 37.4828 70.5951 37.6201 70.4853C37.9032 70.2883 38.2371 70.1811 38.5798 70.1769C38.9226 70.1728 39.2589 70.272 39.5465 70.462C39.8381 70.636 40.0747 70.8915 40.2285 71.1982C40.3822 71.505 40.4467 71.8501 40.4142 72.193L40.4122 72.1951ZM43.3662 65.5695C43.0361 64.0607 43.6942 63.2756 45.5645 62.9074C45.1099 64.7717 45.002 65.3769 43.3682 65.5674L43.3662 65.5695ZM48.9877 59.5808C48.0369 59.6591 47.0986 59.8517 46.1147 60.0041C46.5298 59.2338 46.945 58.5503 47.2834 57.8223C48.587 54.9402 47.7788 52.944 44.8587 51.8337C44.0761 51.5353 43.2541 51.3449 42.4486 51.1057L42.4362 51.019C43.0783 50.9079 43.7265 50.8372 44.3771 50.8074C45.6974 50.8074 47.0364 50.7566 48.3213 50.983C51.02 51.4528 52.3631 53.2515 52.2655 56.0406C52.2386 56.8447 52.1098 57.6446 52.0206 58.5164C54.5656 58.3725 56.9114 58.8296 58.5514 61.1002C57.2598 59.9557 55.6044 59.3285 53.893 59.3354C52.2697 59.3036 50.6256 59.4518 48.9898 59.5787L48.9877 59.5808ZM55.1282 61.661C55.2299 61.2081 54.9206 61.0939 54.6528 61.0262C53.9802 60.8421 53.2952 60.7024 52.6122 60.5606C52.3403 60.5035 52.06 60.4887 51.7922 60.4061C53.8681 59.9067 55.697 60.4844 57.4262 61.7732C56.8201 61.8705 56.2201 62.0017 55.6119 62.044C55.452 62.0461 55.1074 61.7478 55.1303 61.6589L55.1282 61.661ZM82.8581 68.8558C82.6505 69.0526 82.3702 69.1542 82.0277 69.3595C81.9883 68.8389 81.9613 68.513 81.928 68.0411C81.7599 68.2527 81.6603 68.3797 81.5668 68.5067C81.4734 68.6336 81.3593 68.7839 81.2741 68.9299C80.1781 68.2358 80.4666 66.4794 81.9758 64.8987C81.8678 65.925 81.5606 66.9175 82.2768 67.8147L82.8809 67.3132C82.7086 67.8295 83.3313 68.3691 82.8601 68.8453L82.8581 68.8558Z" fill="black"/>
<path d="M70.3913 58.1102C70.2605 57.1601 70.0841 56.3369 70.0467 55.5074C70.0135 54.7477 70.4494 54.4176 71.1428 54.6609C71.7889 54.8969 72.3949 55.2346 72.9384 55.6618C72.4817 55.5074 72.0313 55.3233 71.5642 55.2069C71.3711 55.1582 71.149 55.2577 70.931 55.2915C70.9347 55.5037 70.9697 55.7142 71.0348 55.9158C71.4334 56.7136 71.2798 57.433 70.3913 58.1102Z" fill="black"/>
<path fill-rule="evenodd" clip-rule="evenodd" d="M50.0233 38.0042V46.0667C49.6913 45.9704 49.3546 45.892 49.0145 45.8318C48.2679 45.7018 47.513 45.6276 46.7559 45.6096H46.3241C45.8549 45.6096 45.3754 45.6286 44.871 45.6646C44.0053 45.7323 43.0691 45.8551 42.0125 46.0413C42.0085 46.0429 42.004 46.0429 42 46.0413V38L50.0233 38.0042Z" fill="#3491FF"/>
<path fill-rule="evenodd" clip-rule="evenodd" d="M62.0296 32V49.7755L61.056 49.9405C59.3144 50.2543 57.6466 50.9005 56.1402 51.8451L55.6358 52.1582C55.613 50.1352 55.0463 48.436 54 47.1388V32H62.0296Z" fill="#3491FF"/>
<path fill-rule="evenodd" clip-rule="evenodd" d="M74.0379 29V53.0942C73.0767 52.6251 72.0288 52.3691 70.9635 52.343C70.7554 52.3432 70.5475 52.3553 70.3407 52.379C69.145 52.5102 68.4848 53.0964 68.1257 53.636L67.1376 53.7693L66 53.9195V29H74.0379Z" fill="#3491FF"/>
<path fill-rule="evenodd" clip-rule="evenodd" d="M73.278 84.3693L73.3029 84.3418V94.076H65.2754V91.3843C68.1863 89.351 70.8699 86.9986 73.278 84.3693Z" fill="#3491FF"/>
<path d="M58.3714 94.0801H56.4844V100.198H58.3714V94.0801Z" fill="#3491FF"/>
<path fill-rule="evenodd" clip-rule="evenodd" d="M61.0581 87.0884C61.3864 87.0881 61.7132 87.0425 62.0296 86.9529V87.3762H54V83C55.6017 84.2617 57.2773 85.4228 59.0174 86.4768C59.6302 86.8666 60.3359 87.0781 61.0581 87.0884Z" fill="#3491FF"/>
<path fill-rule="evenodd" clip-rule="evenodd" d="M49.5801 86.6949V94.4357H41.5547V78.9351L41.8308 78.8631C42.0559 78.7997 42.2857 78.7551 42.5179 78.7298C42.5888 78.9455 42.6409 79.1671 42.6736 79.3922C42.7181 79.6649 42.8239 79.9235 42.9829 80.1476L44.4257 82.4754L45.692 84.5195L46.0283 79.3033C46.0988 78.1881 45.9307 77.2464 45.5321 76.4909C45.7937 76.4571 46.0532 76.419 46.3126 76.3746C46.4247 76.3576 46.5348 76.3365 46.6489 76.3153C47.0753 76.2351 47.4967 76.1298 47.9111 76C47.0911 78.2071 46.8731 80.611 47.2634 83.1843C47.3568 83.7747 47.5831 84.6063 48.1519 85.2179C48.6155 85.7229 49.0916 86.2153 49.5801 86.6949Z" fill="#3491FF"/>
<path d="M88.135 60.0739C87.4811 59.7078 86.8583 59.2613 86.165 58.9947C84.882 58.4995 83.5576 58.1122 82.2498 57.6763C82.0681 57.6426 81.8941 57.5744 81.7371 57.4753C79.5221 55.4925 76.8234 54.6714 74.021 54.0895C73.6192 54.0034 73.2284 53.8706 72.8564 53.6938C71.8828 53.2367 70.8905 52.8875 69.7965 53.0081C69.2983 53.0632 68.854 53.26 68.6651 53.7551C68.5281 54.1085 68.3226 54.1657 67.9905 54.2101C65.5762 54.5381 63.1557 54.8449 60.756 55.2682C59.2199 55.5413 57.7484 56.1086 56.4194 56.9399C57.0796 57.2305 57.7234 57.5583 58.3479 57.9218C58.8731 58.2625 59.2717 58.1842 59.7803 57.8922C61.5131 56.8989 63.3863 56.185 65.3333 55.776C66.2654 55.5771 67.2141 55.4523 68.1752 55.2893C68.416 56.6881 68.6672 57.9578 69.3439 59.0857C69.3315 58.8148 69.2485 58.5609 69.2152 58.3006C69.1011 57.3864 68.9059 56.468 68.9184 55.5496C68.9371 54.2799 69.6657 53.7213 70.8822 54.0112C71.6461 54.1932 72.3665 54.5635 73.1076 54.8407C73.49 54.9987 73.8817 55.1322 74.2804 55.2407C76.4145 55.7337 78.4613 56.4553 80.3275 57.6404C80.6947 57.9099 81.0416 58.207 81.3655 58.5291C81.3302 58.6032 81.297 58.6751 81.2638 58.7407C80.9835 58.7683 80.7012 58.7683 80.4209 58.7407C79.8874 58.6307 79.3685 58.4318 78.8308 58.3281C78.4156 58.2456 78.0108 58.3281 77.77 58.7069L79.5532 59.5808C79.4909 59.6845 79.4515 59.7522 79.3975 59.8369C79.8418 59.907 80.2957 59.8777 80.7277 59.7508C81.1596 59.624 81.5593 59.4028 81.899 59.1026C82.0401 58.9841 82.283 58.8487 82.4242 58.891C83.5244 59.2359 84.6246 59.5851 85.6916 60.0146C86.1068 60.1797 86.4265 60.5585 86.8334 60.8759C86.5171 61.0605 86.2127 61.2655 85.9221 61.4896C85.7613 61.6652 85.622 61.8599 85.5069 62.0694C85.6863 62.2197 85.8854 62.3436 86.0985 62.4376C86.4678 62.5192 86.8414 62.5793 87.2174 62.6175C86.1089 63.9824 84.4544 64.503 82.9639 63.8872C82.447 63.6756 82.1543 63.8068 81.7578 64.0988C80.8735 64.7505 79.9912 65.4404 79.0218 65.9356C77.55 66.6889 76.2256 66.3588 75.1461 65.0891C74.7839 64.6207 74.4511 64.1295 74.1497 63.6184C74.0417 63.4534 73.9587 63.2714 73.8632 63.0979L73.668 63.1381C73.7407 63.8131 73.7262 64.5157 73.9109 65.1568C74.0957 65.798 74.4818 66.4159 74.76 67.0021C71.9596 67.1883 69.728 68.7627 67.6313 70.5636C65.5347 72.3644 63.7494 74.4191 62.7924 77.1426C62.1302 72.0639 60.0626 67.7068 56.38 64.0522L57.0235 64.0141C57.9929 63.9591 58.9458 63.8195 59.7969 63.2968C60.4612 62.8905 60.6273 62.3212 60.2681 61.625C59.2032 59.5745 57.6089 58.1905 55.3649 57.6679C54.7047 57.5155 54.028 57.4436 53.3325 57.3293C53.3512 56.9061 53.3782 56.4955 53.3844 56.0765C53.4363 52.5955 51.6428 50.399 48.284 49.8001C46.123 49.4171 43.9848 49.6266 41.8487 50.0117C41.1616 50.1344 40.7775 50.5682 40.79 51.1544C40.8024 51.7406 41.2052 52.0897 41.8944 52.2654C42.9904 52.5426 44.1156 52.7775 45.1452 53.2261C46.644 53.8821 46.8952 55.046 46.0295 56.4532C43.1897 55.9961 41.6328 57.8456 40.1547 59.839L40.0302 59.7565C40.1921 59.2042 40.3561 58.6519 40.5263 58.0742C39.2933 58.2985 38.5542 59.1089 38.0353 60.1585C37.8505 60.5331 37.6533 60.5945 37.2817 60.4781C36.8988 60.3611 36.5476 60.1555 36.2555 59.8772C35.9635 59.599 35.7385 59.2556 35.5981 58.8741C35.3368 58.174 35.1286 57.4545 34.9754 56.722C34.8218 56.049 34.5311 55.6639 34.0039 55.5962C33.4766 55.5285 33.0261 55.7951 32.7583 56.4638C32.5543 56.9543 32.3809 57.4576 32.2393 57.9705C31.5875 60.4569 32.2933 62.5646 34.3049 64.1072C34.8155 64.4966 35.3781 64.814 35.8659 65.1336C35.8659 65.7134 35.7393 66.3038 35.895 66.8074C36.1545 67.6539 35.9988 68.3797 35.6687 69.1352C35.5842 69.3289 35.5148 69.5292 35.4611 69.734C35.4294 69.8901 35.3551 70.0339 35.2468 70.1488C35.1384 70.2637 35.0005 70.3452 34.8488 70.3837C34.5187 70.5037 34.2238 70.707 33.9916 70.9745C33.7594 71.2421 33.5975 71.5652 33.5208 71.9137C33.4441 72.2623 33.4552 72.6249 33.5531 72.9679C33.651 73.3109 33.8325 73.6231 34.0807 73.8753C34.2816 74.093 34.4345 74.352 34.5291 74.635C34.8654 75.5999 35.3802 76.3702 36.4451 76.5395C36.8335 76.5856 37.195 76.7646 37.4706 77.0474C37.6604 77.2397 37.8951 77.3794 38.1527 77.4535C38.4102 77.5276 38.682 77.5334 38.9424 77.4706C39.7728 77.3034 40.6031 77.077 41.4169 76.859C43.3267 76.3533 43.9952 76.7871 44.3231 78.7636C44.3231 78.7932 44.3522 78.8143 44.3688 78.844C44.51 76.639 43.4741 75.6528 41.3608 75.9724C41.0785 76.0168 40.8045 76.0888 40.5305 76.1226C39.9703 76.2065 39.4063 76.2608 38.8407 76.2856C38.3383 76.2856 37.9439 76.0443 37.8028 75.6719L39.6856 74.0679C40.6633 74.7598 41.7906 74.7027 42.8887 74.0679C43.5055 73.7324 44.0775 73.3178 44.5909 72.8342C45.4462 71.9877 46.2143 71.0608 47.0135 70.1615C47.0841 70.0721 47.1466 69.9765 47.2003 69.8758C47.109 70.9339 46.6129 71.719 46.0109 72.4406C45.4088 73.1622 44.7882 73.8118 44.072 74.6096C44.9272 74.4932 45.6434 74.4297 46.3451 74.2943C49.4153 73.6975 51.2525 71.9941 51.7424 69.2008C51.873 68.3065 51.9071 67.4003 51.8441 66.4985C51.8068 65.652 51.6365 64.8056 51.4995 63.847C54.1131 67.0021 54.5636 70.5763 53.9906 74.4001C53.783 72.5993 53.9159 70.735 53.0876 68.9659C52.8572 70.5424 52.6973 72.0152 52.4109 73.4626C52.0372 75.3502 51.3542 77.0495 50.9577 77.4833C51.1487 76.0464 51.3459 74.5546 51.5431 73.0627C51.4705 73.0394 51.3978 73.0183 51.3252 72.9929C51.1964 73.1685 51.0615 73.3399 50.9349 73.5177C49.0105 76.2475 48.4251 79.2926 48.9254 82.5747C48.9683 82.9868 49.1253 83.378 49.378 83.7026C52.3035 86.8347 55.6416 89.5375 59.2966 91.7333C59.6497 91.9775 60.0666 92.108 60.4934 92.108C60.9201 92.108 61.337 91.9775 61.6901 91.7333C65.5277 89.4106 69.0224 86.5442 72.0696 83.2201C71.5699 82.8023 71.1279 82.3176 70.7556 81.779C70.6269 81.6563 70.5272 81.5674 70.44 81.4764C68.1981 79.0894 67.8887 75.8666 69.7052 73.0415C71.5569 70.1636 74.2721 68.6887 77.5666 68.2379C77.6693 68.2389 77.7705 68.2637 77.8625 68.3102C77.9546 68.3567 78.0351 68.4239 78.098 68.5067C78.947 69.7933 80.1926 70.3519 81.6457 70.4556C82.9037 70.5445 83.8441 69.8927 84.1368 68.7987C84.3444 67.9734 84.1368 67.5671 83.3895 67.1693C83.2739 67.1026 83.1736 67.0115 83.0956 66.902C83.0175 66.7924 82.9634 66.6671 82.9369 66.5344C82.9382 66.0723 82.9806 65.6112 83.0636 65.1568C83.9072 65.2427 84.759 65.1538 85.5681 64.8956C86.3772 64.6374 87.1267 64.2152 87.7717 63.6544C88.2183 63.2722 88.5829 62.8004 88.8429 62.2683C89.0246 61.88 89.0524 61.4352 88.9205 61.0264C88.7887 60.6177 88.5073 60.2765 88.135 60.0739ZM34.6578 62.9603C33.4973 62.0398 32.7708 60.8272 32.9472 59.2698C33.0323 58.5249 33.323 57.8054 33.5181 57.0732L33.7112 57.0986C33.7444 57.3653 33.7714 57.634 33.8108 57.8985C34.1658 60.2072 35.3532 61.4367 37.5931 61.8493C37.7322 61.8726 37.9501 62.0821 37.9398 62.1879C37.9002 62.8287 37.812 63.4655 37.6761 64.0924C37.5723 64.5347 37.3004 64.9389 37.1572 65.3621C37.0139 65.7853 36.9599 66.2086 36.8478 66.7058C36.4742 65.8742 36.7378 65.1547 37.0056 64.4966C36.2002 63.9782 35.3802 63.5338 34.6578 62.9603ZM39.1666 72.9061C39.0245 72.6863 38.8581 72.4839 38.6705 72.303C38.5975 72.2684 38.5177 72.2518 38.4373 72.2544C38.3569 72.2569 38.2782 72.2787 38.2076 72.3178C38.1432 72.3559 38.1951 72.6014 38.1972 72.7537C38.1993 72.9061 38.1972 73.0161 38.1972 73.1495C38.0477 73.1347 37.7965 73.1685 37.7633 73.0987C37.645 72.8426 37.454 72.4448 37.5557 72.3009C37.6597 72.168 37.7888 72.0578 37.9354 71.9767C38.0819 71.8957 38.243 71.8454 38.4089 71.829C38.9217 71.8078 39.1853 72.2607 39.1666 72.904V72.9061ZM40.4122 72.1951C40.0821 71.8121 39.8122 71.3656 39.4282 71.0799C39.2071 70.9033 38.932 70.812 38.6513 70.822C38.3706 70.8321 38.1024 70.9429 37.8941 71.1349C37.3211 71.6893 36.6901 71.5116 36.0507 71.5412C36.2458 70.5382 36.2832 70.5212 37.1405 70.6651C37.315 70.658 37.4828 70.5951 37.6201 70.4853C37.9032 70.2883 38.2371 70.1811 38.5798 70.1769C38.9226 70.1728 39.2589 70.272 39.5465 70.462C39.8381 70.636 40.0747 70.8915 40.2285 71.1982C40.3822 71.505 40.4467 71.8501 40.4142 72.193L40.4122 72.1951ZM43.3662 65.5695C43.0361 64.0607 43.6942 63.2756 45.5645 62.9074C45.1099 64.7717 45.002 65.3769 43.3682 65.5674L43.3662 65.5695ZM48.9877 59.5808C48.0369 59.6591 47.0986 59.8517 46.1147 60.0041C46.5298 59.2338 46.945 58.5503 47.2834 57.8223C48.587 54.9402 47.7788 52.944 44.8587 51.8337C44.0761 51.5353 43.2541 51.3449 42.4486 51.1057L42.4362 51.019C43.0783 50.9079 43.7265 50.8372 44.3771 50.8074C45.6974 50.8074 47.0364 50.7566 48.3213 50.983C51.02 51.4528 52.3631 53.2515 52.2655 56.0406C52.2386 56.8447 52.1098 57.6446 52.0206 58.5164C54.5656 58.3725 56.9114 58.8296 58.5514 61.1002C57.2598 59.9557 55.6044 59.3285 53.893 59.3354C52.2697 59.3036 50.6256 59.4518 48.9898 59.5787L48.9877 59.5808ZM55.1282 61.661C55.2299 61.2081 54.9206 61.0939 54.6528 61.0262C53.9802 60.8421 53.2952 60.7024 52.6122 60.5606C52.3403 60.5035 52.06 60.4887 51.7922 60.4061C53.8681 59.9067 55.697 60.4844 57.4262 61.7732C56.8201 61.8705 56.2201 62.0017 55.6119 62.044C55.452 62.0461 55.1074 61.7478 55.1303 61.6589L55.1282 61.661ZM82.8581 68.8558C82.6505 69.0526 82.3702 69.1542 82.0277 69.3595C81.9883 68.8389 81.9613 68.513 81.928 68.0411C81.7599 68.2527 81.6603 68.3797 81.5668 68.5067C81.4734 68.6336 81.3593 68.7839 81.2741 68.9299C80.1781 68.2358 80.4666 66.4794 81.9758 64.8987C81.8678 65.925 81.5606 66.9175 82.2768 67.8147L82.8809 67.3132C82.7086 67.8295 83.3313 68.3691 82.8601 68.8453L82.8581 68.8558Z" fill="#00C673"/>
<path d="M70.3913 58.1102C70.2605 57.1601 70.0841 56.3369 70.0467 55.5074C70.0135 54.7477 70.4494 54.4176 71.1428 54.6609C71.7889 54.8969 72.3949 55.2346 72.9384 55.6618C72.4817 55.5074 72.0313 55.3233 71.5642 55.2069C71.3711 55.1582 71.149 55.2577 70.931 55.2915C70.9347 55.5037 70.9697 55.7142 71.0348 55.9158C71.4334 56.7136 71.2798 57.433 70.3913 58.1102Z" fill="#00C673"/>
<path d="M46.3108 34.3145H44.4238V40.2819H46.3108V34.3145Z" fill="#3491FF"/>
<path d="M46.3108 91.8965H44.4238V100.998H46.3108V91.8965Z" fill="#3491FF"/>
<path d="M58.3714 29.7734H56.4844V35.7409H58.3714V29.7734Z" fill="#3491FF"/>
<path d="M70.2327 19H68.3457V27.9364H70.2327V19Z" fill="#3491FF"/>
<path d="M70.2327 94.0801H68.3457V100.048H70.2327V94.0801Z" fill="#3491FF"/>
</g>
<defs>
<linearGradient id="paint0_linear_1133_16164" x1="0" y1="0" x2="125" y2="112.222" gradientUnits="userSpaceOnUse">
<stop stop-color="#92DCDF"/>
<stop offset="0.0001" stop-color="#DEFFF1"/>
<stop offset="1" stop-color="#B0D3FE"/>
</linearGradient>
<clipPath id="clip0_1133_16164">
<rect width="57" height="82" fill="white" transform="translate(32 19)"/>
</clipPath>
</defs>
</svg>
