<svg width="120" height="120" viewBox="0 0 120 120" fill="none" xmlns="http://www.w3.org/2000/svg">
<circle cx="60" cy="60" r="60" fill="url(#paint0_linear_1391_1339)"/>
<path d="M93.8175 32.3022V72.6781C93.8141 75.3366 92.9125 77.9113 91.268 79.9564C89.6235 82.0015 87.3397 83.3898 84.8109 83.8811L59.8037 88.0985L59.6974 80.5934C59.69 79.9657 59.5551 79.3472 59.3005 78.7771L58.6485 77.3128L73.5299 69.6979C74.516 69.1938 75.6831 69.2489 76.6203 69.844C77.5574 70.439 78.1328 71.4902 78.1432 72.6266C78.1432 74.3387 79.027 75.9209 80.4619 76.777C81.8969 77.633 83.665 77.633 85.1 76.777C86.5349 75.921 87.4192 74.3387 87.4192 72.6266V35.6046H50.2374V58.692L47.3394 52.2702L43.8457 44.4719V32.3025C43.8457 31.4266 44.1823 30.5869 44.7814 29.9674C45.381 29.3483 46.1936 29 47.0413 29H90.6223C91.4695 29 92.2827 29.3483 92.8817 29.9674C93.4813 30.5869 93.8179 31.4266 93.8179 32.3025L93.8175 32.3022ZM41.867 50.5269L33.5899 54.5471L47.097 84.6482L54.0771 90.8723C54.3376 91.0884 54.6949 91.1313 54.9965 90.9832C55.2985 90.8351 55.4918 90.522 55.4942 90.1767L55.3524 80.6576L41.867 50.5269ZM37.8063 74.4341L29.6928 56.2605C29.3958 55.6368 29.3083 54.9279 29.4447 54.2471C29.6414 53.3436 30.2331 52.5861 31.0462 52.1969L32.2152 51.6478L40.4993 47.6572L38.8834 44.0691L37.7356 41.528C37.3738 40.7266 36.7193 40.1066 35.9155 39.8032C35.1118 39.4998 34.2246 39.5382 33.4485 39.91L31.0105 41.052C30.2335 41.4259 29.6315 42.1032 29.3378 42.9357C29.0442 43.7677 29.0822 44.6866 29.4445 45.4895L30.5923 48.0376L30.8686 48.6526L29.7065 49.2093C28.8632 49.5924 28.1222 50.1803 27.5454 50.9225C26.8386 51.8393 26.3917 52.9411 26.2553 54.1045C26.1189 55.268 26.2983 56.4479 26.7729 57.5128L34.9081 75.7884C35.7796 77.714 38.6639 76.433 37.8274 74.4926L37.8063 74.4341Z" fill="#3491FF"/>
<path d="M80.9856 42.9486H56.6857H56.6794C55.7911 42.9486 55.0709 42.2044 55.0709 41.2865C55.0709 40.3687 55.7912 39.6245 56.6794 39.6245H80.9856C81.8738 39.6245 82.594 40.3687 82.594 41.2865C82.594 42.2044 81.8738 42.9486 80.9856 42.9486Z" fill="#00C673"/>
<path d="M80.9856 49.5389L56.6857 49.5384L56.6794 49.5389C55.7911 49.5389 55.0709 48.7947 55.0709 47.8768C55.0709 46.9585 55.7912 46.2143 56.6794 46.2143H80.9856C81.8738 46.2143 82.594 46.9585 82.594 47.8768C82.594 48.7947 81.8738 49.5389 80.9856 49.5389Z" fill="#00C673"/>
<path d="M80.9856 56.1286L56.6857 56.1281L56.6794 56.1286C55.7911 56.1286 55.0709 55.3845 55.0709 54.4666C55.0709 53.5488 55.7912 52.8046 56.6794 52.8046H80.9856C81.8738 52.8046 82.594 53.5488 82.594 54.4666C82.594 55.3845 81.8738 56.1286 80.9856 56.1286Z" fill="#00C673"/>
<path d="M80.9856 62.7189L56.6857 62.7179L56.6794 62.7189C55.7911 62.7189 55.0709 61.9747 55.0709 61.0564C55.0709 60.1385 55.7912 59.3944 56.6794 59.3944H80.9856C81.8738 59.3944 82.594 60.1386 82.594 61.0564C82.594 61.9748 81.8738 62.7189 80.9856 62.7189Z" fill="#00C673"/>
<path d="M67.3508 66.0138C68.2391 66.0138 68.9593 66.758 68.9593 67.6759V67.7857C68.9035 68.6606 68.1995 69.3399 67.3508 69.3379H56.6788C55.7905 69.3379 55.0703 68.5937 55.0703 67.6759C55.0703 66.758 55.7905 66.0138 56.6788 66.0138H67.3508Z" fill="#00C673"/>
<defs>
<linearGradient id="paint0_linear_1391_1339" x1="0" y1="0" x2="125" y2="112.222" gradientUnits="userSpaceOnUse">
<stop stop-color="#92DCDF"/>
<stop offset="0.0001" stop-color="#DEFFF1"/>
<stop offset="1" stop-color="#B0D3FE"/>
</linearGradient>
</defs>
</svg>
