<svg width="70" height="70" viewBox="0 0 70 70" fill="none" xmlns="http://www.w3.org/2000/svg">
<circle cx="35" cy="35" r="35" fill="url(#paint0_linear_1133_12899)"/>
<g clip-path="url(#clip0_1133_12899)">
<path d="M15.9765 30.0635C17.0086 29.5892 18.1119 29.3181 19.1801 28.9483C20.8795 28.3567 22.5945 27.8085 24.3007 27.2485C26.1952 26.6283 28.0926 26.018 29.9881 25.3997C31.8208 24.8029 33.6535 24.205 35.4863 23.6062C35.7009 23.5362 35.9087 23.4297 36.1447 23.4563C36.2872 23.4958 36.3398 23.6151 36.3974 23.7354C37.4276 25.9223 38.4363 28.1201 39.2479 30.4017C39.5201 31.1659 39.8986 31.9024 39.9737 32.7316C38.9231 33.2019 37.8119 33.4977 36.7262 33.8636C34.7302 34.536 32.7216 35.171 30.7198 35.8286C27.6722 36.8298 24.6249 37.8328 21.578 38.8379C21.4384 38.8749 21.2967 38.9032 21.1536 38.9227C21.1482 38.8661 21.1302 38.8114 21.101 38.7627C21.0718 38.7141 21.0321 38.6727 20.9849 38.6417C20.0884 38.0166 19.3548 37.213 18.6065 36.4262C16.9198 34.6474 15.9257 32.5768 15.9765 30.0635Z" fill="#00C673"/>
<path d="M53.4502 42.5044C53.3448 43.2814 52.9966 43.7527 52.1761 44.0021C49.3705 44.854 46.5922 45.7967 43.806 46.7107C41.7896 47.3713 39.7761 48.0418 37.7577 48.7073C37.6016 48.7586 37.4406 48.8059 37.4231 49.011L37.3197 48.9065C37.0865 48.1364 36.6553 47.4561 36.349 46.7176C35.4886 44.6401 34.6291 42.5636 33.9102 40.4289C35.3861 39.9359 36.8592 39.436 38.3371 38.9499C39.86 38.446 41.3867 37.9511 42.9114 37.4541L51.385 34.6973C51.9421 35.3091 52.4138 35.9952 52.7868 36.7363C53.3856 37.8823 53.6785 39.1662 53.6365 40.4614C53.6209 41.1496 53.498 41.8221 53.4502 42.5044Z" fill="#5EAAFD"/>
<path d="M39.9735 32.7332C39.8984 31.904 39.5199 31.1675 39.2477 30.4033C38.4361 28.1217 37.4274 25.9239 36.3972 23.737C36.3406 23.6167 36.287 23.4974 36.1445 23.4579C36.1543 23.4264 36.1631 23.3948 36.1728 23.3593C37.3386 23.0783 38.4507 22.6297 39.5872 22.2678C41.2056 21.7551 42.8211 21.2335 44.4278 20.6824C45.5858 20.288 46.7798 19.9922 47.9017 19.4854C49.3582 20.6814 50.5766 22.0933 51.6312 23.6591C52.5043 24.9537 53.1384 26.3666 53.7364 27.8003C53.874 28.1316 53.7979 28.2529 53.4759 28.3574C50.4193 29.3486 47.3671 30.3471 44.3195 31.3528C43.0572 31.767 41.7978 32.19 40.5364 32.608C40.3559 32.6751 40.1755 32.7559 39.9735 32.7332Z" fill="#63D7B5"/>
<path d="M33.9177 40.4287C34.6338 42.5634 35.4932 44.6399 36.3566 46.7174C36.6629 47.4559 37.0941 48.1363 37.3272 48.9063C37.247 48.9048 37.1668 48.9124 37.0882 48.929C34.1362 49.8913 31.1813 50.8478 28.2342 51.8269C27.3338 52.1227 26.407 52.3504 25.5378 52.7488C23.2941 51.605 21.4211 49.988 19.7744 48.088C19.169 47.4067 18.6272 46.6703 18.1559 45.8882C18.0467 45.7008 18.0584 45.6042 18.3384 45.5155C21.4555 44.5078 24.5694 43.4919 27.6801 42.4678C29.6995 41.8052 31.7149 41.1337 33.7285 40.4682C33.7908 40.4514 33.8539 40.4383 33.9177 40.4287Z" fill="#3491FF"/>
<path d="M47.9101 19.4897C46.7882 19.9956 45.5941 20.2894 44.4362 20.6867C42.8295 21.2379 41.2169 21.7595 39.5955 22.2722C38.4551 22.6341 37.343 23.0827 36.1812 23.3637C35.1481 21.4154 34.035 19.5183 32.6058 17.8273C32.2209 17.3741 31.7964 16.9566 31.3376 16.5801C30.7523 16.1018 30.124 15.7035 29.2129 15.6542C29.885 15.386 30.4635 15.3131 31.0362 15.2421C34.7305 14.7826 38.382 14.9354 41.9622 16.0634C44.1855 16.7664 46.1541 17.9358 47.9101 19.4897Z" fill="#A1E4DC"/>
<path d="M25.5352 52.7491C26.4044 52.3547 27.3311 52.1269 28.2315 51.8272C31.1786 50.8481 34.1336 49.8916 37.0855 48.9293C37.1526 48.9134 37.2215 48.9064 37.2904 48.9086L37.4133 48.9826C38.3654 50.8796 39.1771 52.8713 40.9067 54.2793C39.1805 54.7198 37.4101 54.9597 35.63 54.9942C32.9102 55.0504 30.2499 54.7132 27.6843 53.7735C26.933 53.5125 26.2123 53.1689 25.5352 52.7491Z" fill="#88C2F1"/>
<path d="M15.9767 30.0629C15.926 32.5742 16.9201 34.6448 18.6107 36.4196C19.3589 37.2084 20.0925 38.01 20.9891 38.6351C21.0368 38.6669 21.0768 38.7092 21.1059 38.7589C21.135 38.8087 21.1524 38.8645 21.1569 38.9221C19.4799 39.5669 17.7513 40.055 16.0548 40.6387C15.7972 40.7284 15.7738 40.5638 15.7407 40.4119C15.5046 39.3273 15.2363 38.2575 15.0997 37.1581C14.9924 36.2934 15.0022 35.4287 15.0022 34.562C15.0022 33.1698 15.2051 31.8012 15.49 30.4435C15.5475 30.1723 15.7173 30.055 15.9767 30.0629Z" fill="#A1E4DC"/>
<path d="M53.45 42.5041C53.4978 41.8217 53.6207 41.1493 53.6451 40.4611C53.687 39.1658 53.3942 37.8819 52.7954 36.736C52.4196 35.9943 51.945 35.3082 51.3848 34.6969L54.726 33.5601C54.9786 33.4743 54.9943 33.6439 54.9943 33.8233C54.9943 35.2432 55.0518 36.663 54.7991 38.073C54.5416 39.5046 54.2031 40.9087 53.6548 42.2576C53.61 42.369 53.5846 42.4784 53.45 42.5041Z" fill="#88C3F1"/>
</g>
<defs>
<linearGradient id="paint0_linear_1133_12899" x1="0" y1="0" x2="72.9167" y2="65.463" gradientUnits="userSpaceOnUse">
<stop stop-color="#92DCDF"/>
<stop offset="0.0001" stop-color="#DEFFF1"/>
<stop offset="1" stop-color="#B0D3FE"/>
</linearGradient>
<clipPath id="clip0_1133_12899">
<rect width="40" height="40" fill="white" transform="translate(15 15)"/>
</clipPath>
</defs>
</svg>
