<svg width="70" height="70" viewBox="0 0 70 70" fill="none" xmlns="http://www.w3.org/2000/svg">
<circle cx="35" cy="35" r="35" fill="url(#paint0_linear_1133_12522)"/>
<g clip-path="url(#clip0_1133_12522)">
<path d="M52.9378 41.7969C52.8584 41.7969 52.8447 41.855 52.8201 41.9021C52.3174 42.9276 51.7294 43.9079 51.0624 44.8325C49.2528 47.3565 46.8783 49.4113 44.1332 50.8289C42.5767 51.636 40.9188 52.2248 39.2052 52.5793C38.9698 52.6264 38.9068 52.6901 38.9753 52.9366C39.1055 53.3972 39.2088 53.8652 39.2846 54.3381C39.3449 54.7369 39.4927 54.8228 39.8787 54.7092C46.2486 52.8498 50.5377 48.7599 52.7462 42.4394C52.8575 42.2428 52.923 42.023 52.9378 41.7969V41.7969Z" fill="#FEFEFE"/>
<path d="M28.6763 48.862H26.5354C24.9721 48.862 23.4062 48.862 21.8429 48.862C21.7272 48.8686 21.6118 48.8454 21.5074 48.7945C21.403 48.7437 21.3131 48.6668 21.2461 48.5712C12.2745 37.4924 18.3085 21.201 31.9589 18.5033C32.2455 18.4401 32.5352 18.392 32.8268 18.3593C33.0595 18.3399 33.1005 18.2652 33.0376 18.0408C32.8021 17.0548 32.5886 16.0632 32.3476 14.9941L45.8612 17.0686L34.6364 25.0315L34.1162 22.7908C34.0943 22.6939 34.0752 22.597 34.0533 22.5C33.8644 21.6913 33.8561 21.6691 33.0978 21.9461C27.3978 23.9458 23.6389 27.8179 22.5438 33.8807C21.4815 39.7553 23.554 44.5828 28.0603 48.3773C28.2273 48.5186 28.4135 48.6543 28.6763 48.862Z" fill="#3491FF"/>
<path d="M24.832 52.9721L26.9155 51.4931C29.8357 49.4177 32.756 47.3404 35.6763 45.2613C35.9911 45.0342 36.0814 45.0646 36.1581 45.4413C36.3278 46.2722 36.5414 47.117 36.7056 47.959C36.7631 48.2359 36.848 48.3384 37.1492 48.2359C43.1722 46.2778 47.1091 42.2728 48.1741 35.9025C49.1515 30.0418 46.9804 25.2502 42.4385 21.5333C42.3509 21.464 42.2605 21.3976 42.1647 21.3256C42.1458 21.304 42.1301 21.2797 42.1182 21.2535C42.1976 21.1067 42.3399 21.1732 42.4494 21.1732C44.5712 21.1732 46.6929 21.1732 48.8147 21.1594C48.9453 21.1608 49.0735 21.1959 49.187 21.2613C49.3005 21.3268 49.3957 21.4203 49.4636 21.5333C51.7259 24.2919 53.1351 27.6635 53.5154 31.2272C54.0411 36.1407 52.8447 40.5943 49.8879 44.5218C46.8545 48.5434 42.819 50.9226 37.8664 51.6731C37.5927 51.7175 37.568 51.8144 37.6255 52.0581C37.8281 52.889 38.0061 53.7338 38.1922 54.573C38.2963 55.0383 38.2935 55.0494 37.8144 54.9774C36.2941 54.7521 34.7774 54.5222 33.2643 54.2877L24.832 52.9721Z" fill="#00C673"/>
<path d="M41.8069 42.509C40.7611 42.509 39.7153 42.509 38.6695 42.5283C38.3957 42.5283 38.3765 42.4092 38.3793 42.1932C38.3793 41.5589 38.3793 40.9247 38.3793 40.2877C38.3793 35.8728 38.3793 31.4569 38.3793 27.0402C38.3684 26.903 38.3961 26.7655 38.459 26.6435C38.522 26.5215 38.6177 26.4199 38.7352 26.3505C39.6824 25.7024 40.6078 25.0266 41.5496 24.3702C41.6372 24.3093 41.7248 24.0932 41.8836 24.2899C41.7631 24.3868 41.8097 24.5253 41.8097 24.6444C41.806 30.5992 41.8051 36.5541 41.8069 42.509Z" fill="#00C673"/>
<path d="M35.2709 42.5056C34.2388 42.5056 33.2094 42.5056 32.1773 42.5277C31.8734 42.5277 31.8843 42.3643 31.8871 42.1538C31.8871 40.4754 31.8871 38.7979 31.8871 37.1213C31.8871 35.0745 31.8871 33.0304 31.8871 30.9864C31.8761 30.8493 31.9044 30.712 31.9685 30.5907C32.0325 30.4694 32.1297 30.3693 32.2484 30.3023C33.182 29.6625 34.0992 28.995 35.03 28.3497C35.1176 28.2887 35.1997 28.0727 35.3613 28.2638C35.2271 28.3718 35.2791 28.5241 35.2791 28.6571C35.2718 33.2751 35.2691 37.8913 35.2709 42.5056Z" fill="#00C673"/>
<path d="M41.8077 42.5091C41.8077 36.5543 41.8077 30.5994 41.8077 24.6446C41.8077 24.5255 41.7611 24.387 41.8816 24.29C42.4291 24.9908 42.9603 25.6943 43.5078 26.3895C43.6126 26.5199 43.6679 26.684 43.6639 26.852C43.6639 31.9612 43.6639 37.0713 43.6639 42.1823C43.6639 42.4593 43.5817 42.5424 43.3134 42.5285C42.8124 42.5064 42.3032 42.5147 41.8077 42.5091Z" fill="#3491FF"/>
<path d="M28.7375 42.5035C27.7053 42.5035 26.6732 42.5035 25.6411 42.5257C25.4084 42.5257 25.3673 42.4315 25.3673 42.2238C25.3673 39.7384 25.3673 37.2531 25.3673 34.7677C25.3577 34.7053 25.3654 34.6415 25.3896 34.5833C25.4137 34.5251 25.4534 34.4748 25.5042 34.4381C26.5993 33.6958 27.6232 32.8816 28.7402 32.1836L28.7375 42.5035Z" fill="#00C673"/>
<path d="M52.9393 41.7972C52.9347 42.0207 52.8805 42.2404 52.7806 42.4398C50.5776 48.775 46.2884 52.8649 39.9131 54.7096C39.5271 54.8231 39.3793 54.7372 39.319 54.3384C39.2432 53.8655 39.1399 53.3975 39.0097 52.9369C38.9412 52.6904 39.0097 52.6267 39.2396 52.5797C40.9532 52.2252 42.6111 51.6363 44.1676 50.8292C46.9008 49.4073 49.2636 47.3528 51.064 44.8328C51.7272 43.9078 52.3115 42.9275 52.8107 41.9025C52.8463 41.8554 52.8599 41.7917 52.9393 41.7972Z" fill="#3491FF"/>
<path d="M17.7441 28.1008C18.4253 25.7423 19.5686 23.5467 21.1061 21.6446C23.5799 18.5447 26.9741 16.3325 30.7868 15.3352C31.1263 15.2411 31.3124 15.2466 31.3617 15.6787C31.4248 16.1392 31.5274 16.5933 31.6683 17.0358C31.7505 17.3128 31.6875 17.4319 31.3946 17.4873C30.3279 17.6987 29.2836 18.0131 28.2763 18.4262C23.9239 20.1571 20.3297 23.41 18.1466 27.5939C18.0672 27.8008 17.9267 27.9778 17.7441 28.1008V28.1008Z" fill="#00C673"/>
<path d="M35.2716 42.5055C35.2716 37.8893 35.2716 33.2731 35.2716 28.657C35.2716 28.524 35.2196 28.38 35.3538 28.2637C35.9013 28.9727 36.4489 29.6845 36.9964 30.388C37.0946 30.5249 37.1403 30.6932 37.1251 30.8617C37.1251 34.6266 37.1251 38.3906 37.1251 42.1537C37.1251 42.4473 37.0567 42.547 36.7582 42.5304C36.2791 42.4999 35.7727 42.511 35.2716 42.5055Z" fill="#3491FF"/>
<path d="M28.7363 42.5035V32.1836C29.2182 32.5963 29.4974 33.1807 29.9327 33.6294C30.1903 33.9014 30.3873 34.226 30.5105 34.5814C30.6338 34.9369 30.6804 35.3149 30.6473 35.69C30.5925 37.8366 30.6226 39.9831 30.6473 42.1324C30.6473 42.4453 30.5761 42.5533 30.253 42.5312C29.7438 42.498 29.2401 42.5118 28.7363 42.5035Z" fill="#3491FF"/>
</g>
<defs>
<linearGradient id="paint0_linear_1133_12522" x1="0" y1="0" x2="72.9167" y2="65.463" gradientUnits="userSpaceOnUse">
<stop stop-color="#92DCDF"/>
<stop offset="0.0001" stop-color="#DEFFF1"/>
<stop offset="1" stop-color="#B0D3FE"/>
</linearGradient>
<clipPath id="clip0_1133_12522">
<rect width="36.6667" height="40" fill="white" transform="translate(17 15)"/>
</clipPath>
</defs>
</svg>
