<svg width="125" height="125" viewBox="0 0 125 125" fill="none" xmlns="http://www.w3.org/2000/svg">
<circle cx="62.5" cy="62.5" r="62.5" fill="url(#paint0_linear_1133_19076)"/>
<g clip-path="url(#clip0_1133_19076)">
<path d="M88.8722 57.4155C88.8722 66.2153 88.8722 75.025 88.8722 83.8248C88.8132 93.4627 83.3951 98.9501 73.9653 98.98C66.0988 98.98 58.2324 98.98 50.366 98.98C41.8506 98.98 36.2557 93.3629 36.0885 84.7028C35.9705 78.3906 35.9705 72.0718 36.0885 65.7463C36.2655 57.0762 41.7228 51.559 50.2775 51.1998C51.9098 51.13 53.5519 51.1998 55.1941 51.1998C60.5039 51.1998 61.8411 53.1353 60.6317 58.4332C60.1105 60.7578 58.5274 60.0893 57.2197 60.1492C46.5607 60.658 46.5606 60.6481 46.5508 71.3136C46.5508 75.3045 46.5508 79.2953 46.5508 83.2861C46.6196 89.1427 47.4555 90.0007 53.0603 90.0306C59.1174 90.0306 65.1746 90.0306 71.2317 90.0306C77.5937 90.0306 78.3705 89.2823 78.3803 82.917C78.3803 65.3174 78.5475 47.6978 78.282 30.0982C78.2131 25.6784 79.757 24.9701 83.6017 25.0199C87.4464 25.0698 89.1868 25.439 88.9902 30.0085C88.587 39.1275 88.8722 48.2765 88.8722 57.4155Z" fill="#3491FF"/>
<path d="M68.2631 88.3249C65.1756 89.1031 64.2119 87.6265 64.2709 84.1146C64.4676 72.3716 64.9986 60.5686 64.0546 48.8955C63.622 43.5178 65.5 39.9161 67.7518 35.8155C68.7941 33.9099 69.6595 33.1617 70.9378 35.626C73.1993 39.996 75.8051 43.8172 75.3528 49.5939C74.5071 60.2794 75.1168 71.0845 75.0971 81.8398C75.0873 87.8161 74.5464 88.3349 68.2631 88.3249Z" fill="#00C673"/>
<path d="M60.5912 78.5672V82.0294C60.5912 89.0133 60.5913 88.8936 53.9736 88.3448C51.1221 88.1153 49.8831 86.7086 49.8438 83.9748C49.8438 80.9817 49.8438 78.0484 49.8438 75.0752C49.8438 67.762 51.3187 66.6845 58.6935 67.9716C60.5814 68.3008 60.6601 69.2886 60.6601 70.6555C60.5814 73.2894 60.5814 75.9333 60.5912 78.5672Z" fill="#00C673"/>
</g>
<defs>
<linearGradient id="paint0_linear_1133_19076" x1="0" y1="0" x2="130.208" y2="116.898" gradientUnits="userSpaceOnUse">
<stop stop-color="#92DCDF"/>
<stop offset="0.0001" stop-color="#DEFFF1"/>
<stop offset="1" stop-color="#B0D3FE"/>
</linearGradient>
<clipPath id="clip0_1133_19076">
<rect width="53" height="74" fill="white" transform="translate(36 25)"/>
</clipPath>
</defs>
</svg>
