<svg width="185" height="185" viewBox="0 0 185 185" fill="none" xmlns="http://www.w3.org/2000/svg">
<circle cx="92.5" cy="92.5" r="92.5" fill="url(#paint0_linear_1813_1351)"/>
<path d="M44.9855 76.8393V65.3228C52.2406 70.8318 67.0428 73.7394 81.2072 73.7394C95.373 73.7394 110.175 70.8311 117.429 65.3228L117.43 76.8393C117.43 82.3129 101.938 88.4342 81.208 88.4342C60.4767 88.4349 44.9844 82.3129 44.9844 76.8393H44.9855ZM81.2091 107.688C83.8091 107.688 86.3257 107.595 88.7385 107.418L88.0936 102.021C87.9419 100.762 88.1879 99.4864 88.7951 98.3736C89.403 97.2601 90.3432 96.3649 91.4842 95.8121L101.458 90.9451C94.7973 92.3278 88.0115 93.0141 81.2081 92.9937C67.0431 92.9937 52.2441 90.0919 44.9845 84.5799V96.0927C44.9845 101.573 60.4807 107.689 81.2081 107.689L81.2091 107.688ZM81.2091 126.949C85.0706 126.953 88.9285 126.732 92.764 126.284C91.1594 122.803 90.1206 119.089 89.6853 115.281L89.2797 111.942C86.6071 112.15 83.8925 112.254 81.2092 112.254C67.0442 112.254 52.2452 109.342 44.9856 103.84V115.353C44.9856 120.824 60.4817 126.949 81.2091 126.949ZM81.2084 69.1749C101.94 69.1749 117.43 63.0528 117.43 57.5793C117.431 52.1064 101.94 45.9844 81.2084 45.9844C60.4771 45.9844 44.9848 52.1064 44.9848 57.5793C44.9848 63.0536 60.476 69.1749 81.2084 69.1749ZM115.523 89.8672L93.7571 100.484C93.4125 100.652 93.2115 101.021 93.2572 101.402L94.8467 114.66C96.9193 131.956 110.396 138.528 115.918 139.585C121.44 138.529 134.916 131.956 136.989 114.66L138.578 101.402C138.624 101.021 138.423 100.652 138.078 100.484L116.312 89.8672C116.063 89.7453 115.771 89.7453 115.521 89.8672H115.523Z" fill="#3491FF"/>
<path d="M115.461 89.3576L93.1799 100.187C92.8272 100.358 92.6215 100.734 92.6683 101.123L94.2954 114.646C96.417 132.288 110.213 138.991 115.865 140.069C121.518 138.992 135.314 132.288 137.436 114.646L139.063 101.123C139.109 100.734 138.904 100.358 138.55 100.187L116.269 89.3576C116.014 89.2333 115.715 89.2333 115.46 89.3576H115.461Z" fill="#00C673"/>
<defs>
<linearGradient id="paint0_linear_1813_1351" x1="0" y1="0" x2="192.708" y2="173.009" gradientUnits="userSpaceOnUse">
<stop stop-color="#92DCDF"/>
<stop offset="0.0001" stop-color="#DEFFF1"/>
<stop offset="1" stop-color="#B0D3FE"/>
</linearGradient>
</defs>
</svg>
