<svg width="185" height="185" viewBox="0 0 185 185" fill="none" xmlns="http://www.w3.org/2000/svg">
<circle cx="92.5" cy="92.5" r="92.5" fill="url(#paint0_linear_1813_1353)"/>
<path d="M135.588 103.217H97.5391V110.338H135.7C138.244 110.338 140.276 108.274 140.276 105.761V49.8726C140.276 47.3604 138.244 45.2964 135.7 45.2964H97.5391V50.1604H135.588V103.217Z" fill="#3491FF"/>
<path d="M48.547 50.1619H86.5961V45.2979H48.4356C45.8915 45.2979 43.8594 47.3617 43.8594 49.874V105.761C43.8594 108.273 45.8913 110.337 48.4356 110.337H86.5961V103.217L48.547 103.218V50.1619Z" fill="#3491FF"/>
<path d="M40.8684 117.635L41.2681 124.467C41.4444 127.283 43.1397 129.955 45.8283 130.803C46.5001 131.011 47.2204 131.123 47.956 131.123L86.5957 131.107V125.587H85.6041C84.5964 125.587 83.7484 124.755 83.7484 123.731C83.7484 122.691 84.5964 121.859 85.6041 121.859H86.5957V116.323L42.1469 116.322C41.4432 116.322 40.8672 116.914 40.8672 117.634L40.8684 117.635Z" fill="#3491FF"/>
<path d="M141.956 116.331H97.541V121.867H98.5327C99.5403 121.867 100.388 122.699 100.388 123.738C100.388 124.762 99.5403 125.594 98.5327 125.594H97.541V131.114L136.756 131.098C140.405 130.81 143.269 127.754 143.269 124.01V117.642C143.268 116.923 142.676 116.331 141.956 116.331L141.956 116.331Z" fill="#3491FF"/>
<path d="M89.8008 42.7334H94.3333V61.2664H89.8008V42.7334Z" fill="#00C673"/>
<path d="M89.8008 73.0649H94.3333V87.465H89.8008V73.0649Z" fill="#00C673"/>
<path d="M89.8008 97.2651H94.3333V143.281H89.8008V97.2651Z" fill="#00C673"/>
<path d="M81.603 82.4267L66.7226 91.7226C66.3867 91.9308 66.3867 92.4103 66.7226 92.6186L81.603 101.914C81.9548 102.139 82.4191 101.883 82.4191 101.466V95.9941C82.4191 95.7061 82.6592 95.4659 82.9472 95.4659H110.947C111.235 95.4659 111.476 95.2258 111.476 94.9378V89.4018C111.476 89.1138 111.235 88.8737 110.947 88.8737H82.9472C82.6592 88.8737 82.4191 88.6336 82.4191 88.3456V82.8735C82.4184 82.4585 81.9548 82.2025 81.603 82.4266V82.4267Z" fill="#00C673"/>
<path d="M66.4688 65.2221V70.758C66.4688 71.046 66.7089 71.2862 66.9969 71.2862H94.997C95.285 71.2862 95.5252 71.5263 95.5252 71.8143V77.2864C95.5252 77.7021 95.9894 77.9581 96.3413 77.7347L111.222 68.4388C111.558 68.2306 111.558 67.7511 111.222 67.5429L96.3413 58.2469C95.9894 58.0228 95.5252 58.2788 95.5252 58.6953V64.1673C95.5252 64.4553 95.285 64.6955 94.997 64.6955H66.9969C66.7082 64.694 66.4688 64.9341 66.4688 65.2221V65.2221Z" fill="#00C673"/>
<defs>
<linearGradient id="paint0_linear_1813_1353" x1="0" y1="0" x2="192.708" y2="173.009" gradientUnits="userSpaceOnUse">
<stop stop-color="#92DCDF"/>
<stop offset="0.0001" stop-color="#DEFFF1"/>
<stop offset="1" stop-color="#B0D3FE"/>
</linearGradient>
</defs>
</svg>
