<svg width="185" height="185" viewBox="0 0 185 185" fill="none" xmlns="http://www.w3.org/2000/svg">
<circle cx="92.5" cy="92.5" r="92.5" fill="url(#paint0_linear_1813_1354)"/>
<path d="M121.779 90.3101L121.667 90.1411L121.496 90.242C120.509 90.8158 119.511 91.3751 118.491 91.9177L118.286 92.0273L118.414 92.2195C121.451 96.8289 123.228 102.131 123.56 107.563H111.73C111.555 103.7 110.878 99.8685 109.717 96.1789L109.648 95.9664L109.442 96.0404C108.374 96.443 107.29 96.8144 106.203 97.1525L106.002 97.2163L106.064 97.4166C107.093 100.714 107.698 104.125 107.87 107.56H93.9904V99.3688L93.3999 99.3935C92.3763 99.437 91.3613 99.4101 90.3559 99.3644L90.1368 99.3521V107.56H76.2619C76.4353 104.186 77.0417 100.804 78.0675 97.4862L78.1292 97.2838L77.9246 97.2244C76.8183 96.8943 75.7272 96.5432 74.6624 96.1558L74.4542 96.0796L74.3881 96.2922C73.2492 99.963 72.5803 103.754 72.3989 107.561H60.5712C60.8991 102.171 62.6365 96.9162 65.6057 92.345L65.7319 92.1527L65.5317 92.0432C64.4958 91.4839 63.4931 90.9122 62.5254 90.3304L62.3498 90.2252L62.2381 90.4029C58.5528 96.1398 56.6232 102.804 56.6587 109.676C56.7581 129.098 72.6424 144.903 92.067 144.903H92.2505C111.775 144.8 127.573 128.832 127.475 109.305C127.439 102.57 125.471 96.0017 121.779 90.3101L121.779 90.3101ZM123.563 111.422C123.208 117.287 121.244 122.899 117.868 127.668C115.301 125.959 112.538 124.496 109.657 123.316C110.887 119.467 111.585 115.464 111.743 111.422H123.563ZM115.439 130.686C115.134 131.029 114.818 131.363 114.491 131.689C110.449 135.772 105.426 138.657 99.9252 140.065C103.491 136.202 106.316 131.79 108.328 126.939C110.809 127.961 113.2 129.219 115.439 130.686L115.439 130.686ZM93.9926 119.911V111.422H107.886C107.732 115.016 107.106 118.578 106.031 122.005C102.127 120.784 98.0805 120.078 93.9926 119.911H93.9926ZM104.698 125.633C102.282 131.367 98.6827 136.357 93.9926 140.475V123.77C97.6308 123.932 101.231 124.56 104.698 125.633ZM76.2449 111.422H90.14V119.911C86.0543 120.078 82.0035 120.784 78.0955 122.013C77.0189 118.59 76.3958 115.024 76.2449 111.422H76.2449ZM75.7907 126.945C77.5528 131.167 79.9504 135.088 82.9205 138.604C83.3355 139.093 83.7627 139.576 84.2002 140.05C78.2261 138.511 72.8883 135.281 68.7053 130.676C70.9541 129.211 73.3372 127.956 75.7907 126.945L75.7907 126.945ZM90.1409 123.77V140.476C88.6218 139.141 87.1862 137.678 85.8672 136.12C83.1933 132.95 81.0264 129.424 79.4266 125.637C82.8993 124.56 86.5027 123.932 90.1407 123.77H90.1409ZM74.4618 123.32C71.6144 124.484 68.8634 125.942 66.2801 127.657C62.8958 122.872 60.9256 117.268 60.5701 111.424H72.3877C72.5408 115.468 73.2386 119.469 74.4618 123.32Z" fill="#00C673"/>
<path d="M137.395 67.7087C137.395 67.7007 137.39 67.6898 137.39 67.6797L137.331 67.2088C137.135 65.9872 136.563 64.8258 135.705 63.9254C133.21 60.9909 130.173 58.1248 126.143 54.9205C117.697 48.1934 109.196 43.8872 100.865 42.1164C95.4325 40.9608 89.8131 40.8803 84.2105 41.8814C79.5923 42.7091 74.9058 44.3573 69.8815 46.9246C63.3401 50.2697 57.0303 54.9373 51.1318 60.7953C50.1329 61.7833 49.0745 62.8584 48.111 64.0083C45.963 66.5546 45.963 69.8461 48.111 72.3902C50.5747 75.3144 53.6352 78.201 57.7392 81.4734C66.1769 88.2006 74.6826 92.509 83.0186 94.2835C85.9341 94.9023 88.9157 95.2164 91.8914 95.2164C94.4603 95.2164 97.0812 94.9813 99.677 94.5192C104.295 93.69 108.983 92.0368 113.999 89.4715C120.549 86.1244 126.857 81.4611 132.755 75.6068C133.718 74.6492 134.744 73.6096 135.707 72.4744C136.549 71.5872 137.119 70.4518 137.325 69.2468L137.41 69.0365L137.414 68.4256C137.419 68.3495 137.419 68.2733 137.419 68.1964L137.395 67.7087ZM96.3925 69.795C96.3925 72.2462 94.4034 74.2332 91.9579 74.2332C89.5087 74.2332 87.521 72.2462 87.521 69.795C87.521 69.2422 87.6341 68.7199 87.8199 68.2353H96.0986C96.2793 68.7199 96.3924 69.2415 96.3924 69.795H96.3925ZM131.305 68.2926L131.138 68.4761C130.3 69.4627 129.364 70.4139 128.474 71.2988C123.02 76.7115 117.224 81.0054 111.236 84.0659C106.754 86.3562 102.621 87.8216 98.6054 88.5398C96.3601 88.9424 94.0968 89.1441 91.8885 89.1441C89.3379 89.1441 86.7792 88.8757 84.2785 88.3432C76.8724 86.7668 69.2154 82.8581 61.5192 76.7258C57.7368 73.7109 54.9511 71.0885 52.7492 68.476C52.6295 68.3338 52.5983 68.2591 52.5882 68.2308L77.6336 68.2301C77.5719 68.7749 77.5328 69.3277 77.5328 69.8914C77.5328 77.8626 83.9958 84.3212 91.9605 84.3212C99.9296 84.3212 106.385 77.8646 106.385 69.8914C106.385 69.3299 106.343 68.7749 106.284 68.2301H131.335L131.325 68.2918L131.305 68.2926Z" fill="#3491FF"/>
<defs>
<linearGradient id="paint0_linear_1813_1354" x1="0" y1="0" x2="192.708" y2="173.009" gradientUnits="userSpaceOnUse">
<stop stop-color="#92DCDF"/>
<stop offset="0.0001" stop-color="#DEFFF1"/>
<stop offset="1" stop-color="#B0D3FE"/>
</linearGradient>
</defs>
</svg>
