<svg width="185" height="185" viewBox="0 0 185 185" fill="none" xmlns="http://www.w3.org/2000/svg">
<circle cx="92.5" cy="92.5" r="92.5" fill="url(#paint0_linear_1813_1352)"/>
<path d="M64.0201 129.522C64.0201 131.37 62.5324 132.867 60.6986 132.867H48.5207C46.6868 132.867 45.1992 131.37 45.1992 129.522L45.2003 106.686C45.2003 104.838 46.688 103.341 48.5217 103.341H60.6997C62.5335 103.341 64.0211 104.838 64.0211 106.686L64.0201 129.522Z" fill="#3491FF"/>
<path d="M88.9439 129.52C88.9439 131.368 87.4562 132.866 85.6224 132.866H73.4445C71.6107 132.866 70.123 131.368 70.123 129.52L70.1241 89.9484C70.1241 88.1015 71.6118 86.6033 73.4455 86.6033H85.6235C87.4573 86.6033 88.9449 88.1016 88.9449 89.9484L88.9439 129.52Z" fill="#3491FF"/>
<path d="M113.868 129.521C113.868 131.369 112.38 132.867 110.547 132.867H98.3644C96.5306 132.867 95.043 131.369 95.043 129.521V73.2143C95.043 71.3674 96.5307 69.8691 98.3644 69.8691H110.547C112.38 69.8691 113.868 71.3675 113.868 73.2143V129.521Z" fill="#3491FF"/>
<path d="M135.476 56.4785V129.521H123.294V56.4785H135.476ZM135.476 53.1333H123.294C121.46 53.1333 119.973 54.6316 119.973 56.4785V129.521C119.973 131.369 121.46 132.866 123.294 132.866H135.476C137.31 132.866 138.798 131.369 138.798 129.521V56.4785C138.798 54.6305 137.31 53.1333 135.476 53.1333Z" fill="#00C673"/>
<defs>
<linearGradient id="paint0_linear_1813_1352" x1="0" y1="0" x2="192.708" y2="173.009" gradientUnits="userSpaceOnUse">
<stop stop-color="#92DCDF"/>
<stop offset="0.0001" stop-color="#DEFFF1"/>
<stop offset="1" stop-color="#B0D3FE"/>
</linearGradient>
</defs>
</svg>
