<svg width="1720" height="344" viewBox="0 0 1720 344" fill="none" xmlns="http://www.w3.org/2000/svg">
<path d="M355 11.3333C357.946 11.3333 360.333 8.94552 360.333 6C360.333 3.05448 357.946 0.666664 355 0.666664C352.054 0.666664 349.667 3.05448 349.667 6C349.667 8.94552 352.054 11.3333 355 11.3333ZM356 123L356 120.562L354 120.563L354 123L356 123ZM356 115.687L356 110.812L354 110.813L354 115.688L356 115.687ZM356 105.937L356 101.062L354 101.063L354 105.938L356 105.937ZM356 96.1875L356 91.3125L354 91.3125L354 96.1875L356 96.1875ZM356 86.4375L356 81.5625L354 81.5625L354 86.4375L356 86.4375ZM356 76.6875L356 71.8125L354 71.8125L354 76.6875L356 76.6875ZM356 66.9375L356 62.0625L354 62.0625L354 66.9375L356 66.9375ZM356 57.1875L356 52.3125L354 52.3125L354 57.1875L356 57.1875ZM356 47.4375L356 42.5625L354 42.5625L354 47.4375L356 47.4375ZM356 37.6875L356 32.8125L354 32.8125L354 37.6875L356 37.6875ZM356 27.9375L356 23.0625L354 23.0625L354 27.9375L356 27.9375ZM356 18.1875L356 13.3125L354 13.3125L354 18.1875L356 18.1875ZM356 8.43749L356 6L354 6L354 8.43749L356 8.43749Z" fill="#29AEAA"/>
<path d="M858 11.3333C860.946 11.3333 863.333 8.94552 863.333 6C863.333 3.05448 860.946 0.666664 858 0.666664C855.054 0.666664 852.667 3.05448 852.667 6C852.667 8.94552 855.054 11.3333 858 11.3333ZM859 123L859 120.562L857 120.563L857 123L859 123ZM859 115.687L859 110.812L857 110.813L857 115.688L859 115.687ZM859 105.937L859 101.062L857 101.063L857 105.938L859 105.937ZM859 96.1875L859 91.3125L857 91.3125L857 96.1875L859 96.1875ZM859 86.4375L859 81.5625L857 81.5625L857 86.4375L859 86.4375ZM859 76.6875L859 71.8125L857 71.8125L857 76.6875L859 76.6875ZM859 66.9375L859 62.0625L857 62.0625L857 66.9375L859 66.9375ZM859 57.1875L859 52.3125L857 52.3125L857 57.1875L859 57.1875ZM859 47.4375L859 42.5625L857 42.5625L857 47.4375L859 47.4375ZM859 37.6875L859 32.8125L857 32.8125L857 37.6875L859 37.6875ZM859 27.9375L859 23.0625L857 23.0625L857 27.9375L859 27.9375ZM859 18.1875L859 13.3125L857 13.3125L857 18.1875L859 18.1875ZM859 8.43749L859 6L857 6L857 8.43749L859 8.43749Z" fill="#29AEAA"/>
<path d="M1362 11.3333C1364.95 11.3333 1367.33 8.94552 1367.33 6C1367.33 3.05448 1364.95 0.666664 1362 0.666664C1359.05 0.666664 1356.67 3.05448 1356.67 6C1356.67 8.94552 1359.05 11.3333 1362 11.3333ZM1363 123L1363 120.562L1361 120.563L1361 123L1363 123ZM1363 115.687L1363 110.812L1361 110.813L1361 115.688L1363 115.687ZM1363 105.937L1363 101.062L1361 101.063L1361 105.938L1363 105.937ZM1363 96.1875L1363 91.3125L1361 91.3125L1361 96.1875L1363 96.1875ZM1363 86.4375L1363 81.5625L1361 81.5625L1361 86.4375L1363 86.4375ZM1363 76.6875L1363 71.8125L1361 71.8125L1361 76.6875L1363 76.6875ZM1363 66.9375L1363 62.0625L1361 62.0625L1361 66.9375L1363 66.9375ZM1363 57.1875L1363 52.3125L1361 52.3125L1361 57.1875L1363 57.1875ZM1363 47.4375L1363 42.5625L1361 42.5625L1361 47.4375L1363 47.4375ZM1363 37.6875L1363 32.8125L1361 32.8125L1361 37.6875L1363 37.6875ZM1363 27.9375L1363 23.0625L1361 23.0625L1361 27.9375L1363 27.9375ZM1363 18.1875L1363 13.3125L1361 13.3125L1361 18.1875L1363 18.1875ZM1363 8.43749L1363 6L1361 6L1361 8.43749L1363 8.43749Z" fill="#29AEAA"/>
<path d="M606 332.667C608.946 332.667 611.333 335.054 611.333 338C611.333 340.946 608.946 343.333 606 343.333C603.054 343.333 600.667 340.946 600.667 338C600.667 335.054 603.054 332.667 606 332.667ZM607 221L607 223.438L605 223.437L605 221L607 221ZM607 228.313L607 233.188L605 233.187L605 228.312L607 228.313ZM607 238.063L607 242.938L605 242.937L605 238.062L607 238.063ZM607 247.813L607 252.688L605 252.688L605 247.813L607 247.813ZM607 257.563L607 262.438L605 262.437L605 257.562L607 257.563ZM607 267.313L607 272.188L605 272.187L605 267.312L607 267.313ZM607 277.063L607 281.938L605 281.937L605 277.062L607 277.063ZM607 286.813L607 291.688L605 291.687L605 286.812L607 286.813ZM607 296.563L607 301.438L605 301.437L605 296.562L607 296.563ZM607 306.313L607 311.188L605 311.187L605 306.312L607 306.313ZM607 316.063L607 320.938L605 320.938L605 316.062L607 316.063ZM607 325.813L607 330.688L605 330.687L605 325.812L607 325.813ZM607 335.563L607 338L605 338L605 335.563L607 335.563Z" fill="#29AEAA"/>
<path d="M104 332.667C106.946 332.667 109.333 335.054 109.333 338C109.333 340.946 106.946 343.333 104 343.333C101.054 343.333 98.6667 340.946 98.6667 338C98.6667 335.054 101.054 332.667 104 332.667ZM105 221L105 223.438L103 223.437L103 221L105 221ZM105 228.313L105 233.188L103 233.187L103 228.312L105 228.313ZM105 238.063L105 242.938L103 242.937L103 238.062L105 238.063ZM105 247.813L105 252.688L103 252.688L103 247.813L105 247.813ZM105 257.563L105 262.438L103 262.437L103 257.562L105 257.563ZM105 267.313L105 272.188L103 272.187L103 267.312L105 267.313ZM105 277.063L105 281.938L103 281.937L103 277.062L105 277.063ZM105 286.813L105 291.688L103 291.687L103 286.812L105 286.813ZM105 296.563L105 301.438L103 301.437L103 296.562L105 296.563ZM105 306.313L105 311.188L103 311.187L103 306.312L105 306.313ZM105 316.063L105 320.938L103 320.938L103 316.062L105 316.063ZM105 325.813L105 330.688L103 330.687L103 325.812L105 325.813ZM105 335.563L105 338L103 338L103 335.563L105 335.563Z" fill="#29AEAA"/>
<path d="M1110 332.667C1112.95 332.667 1115.33 335.054 1115.33 338C1115.33 340.946 1112.95 343.333 1110 343.333C1107.05 343.333 1104.67 340.946 1104.67 338C1104.67 335.054 1107.05 332.667 1110 332.667ZM1111 221L1111 223.438L1109 223.437L1109 221L1111 221ZM1111 228.313L1111 233.188L1109 233.187L1109 228.312L1111 228.313ZM1111 238.063L1111 242.938L1109 242.937L1109 238.062L1111 238.063ZM1111 247.813L1111 252.688L1109 252.688L1109 247.813L1111 247.813ZM1111 257.563L1111 262.438L1109 262.437L1109 257.562L1111 257.563ZM1111 267.313L1111 272.188L1109 272.187L1109 267.312L1111 267.313ZM1111 277.063L1111 281.938L1109 281.937L1109 277.062L1111 277.063ZM1111 286.813L1111 291.688L1109 291.687L1109 286.812L1111 286.813ZM1111 296.563L1111 301.438L1109 301.437L1109 296.562L1111 296.563ZM1111 306.313L1111 311.188L1109 311.187L1109 306.312L1111 306.313ZM1111 316.063L1111 320.938L1109 320.938L1109 316.062L1111 316.063ZM1111 325.813L1111 330.688L1109 330.687L1109 325.812L1111 325.813ZM1111 335.563L1111 338L1109 338L1109 335.563L1111 335.563Z" fill="#29AEAA"/>
<path d="M1614 332.667C1616.95 332.667 1619.33 335.054 1619.33 338C1619.33 340.946 1616.95 343.333 1614 343.333C1611.05 343.333 1608.67 340.946 1608.67 338C1608.67 335.054 1611.05 332.667 1614 332.667ZM1615 221L1615 223.438L1613 223.437L1613 221L1615 221ZM1615 228.313L1615 233.188L1613 233.187L1613 228.312L1615 228.313ZM1615 238.063L1615 242.938L1613 242.937L1613 238.062L1615 238.063ZM1615 247.813L1615 252.688L1613 252.688L1613 247.813L1615 247.813ZM1615 257.563L1615 262.438L1613 262.437L1613 257.562L1615 257.563ZM1615 267.313L1615 272.188L1613 272.187L1613 267.312L1615 267.313ZM1615 277.063L1615 281.938L1613 281.937L1613 277.062L1615 277.063ZM1615 286.813L1615 291.688L1613 291.687L1613 286.812L1615 286.813ZM1615 296.563L1615 301.438L1613 301.437L1613 296.562L1615 296.563ZM1615 306.313L1615 311.188L1613 311.187L1613 306.312L1615 306.313ZM1615 316.063L1615 320.938L1613 320.938L1613 316.062L1615 316.063ZM1615 325.813L1615 330.688L1613 330.687L1613 325.812L1615 325.813ZM1615 335.563L1615 338L1613 338L1613 335.563L1615 335.563Z" fill="#29AEAA"/>
<path fill-rule="evenodd" clip-rule="evenodd" d="M1184.39 192.435C1170.55 205.71 1153.25 215.17 1134.3 219.513C1130.61 220.417 1126.87 221.121 1123.09 221.624L1121.82 221.783L1118.1 222.168H1116.29L1113.02 222.35H1110.94H1109.21H1107.94H1106.37C1106.17 222.35 1106.07 222.35 1105.97 222.346C1105.87 222.342 1105.44 222.313 1104.58 222.254C1103.98 222.213 1103.39 222.213 1102.8 222.213H1101.3L1099.85 222.077L1098.31 221.919C1097.04 221.805 1095.93 221.669 1094.77 221.51L1093.54 221.329L1089.87 220.717L1088.74 220.49C1087.68 220.305 1086.77 220.091 1085.83 219.871L1085.83 219.87L1085.82 219.869C1085.61 219.819 1085.39 219.769 1085.18 219.719L1083.91 219.401C1082.82 219.152 1081.75 218.857 1080.71 218.562L1079.1 218.086L1076.4 217.247L1074.36 216.544C1073.98 216.419 1073.68 216.301 1073.33 216.167L1073.33 216.167C1073.05 216.058 1072.74 215.938 1072.34 215.795C1071.46 215.478 1070.57 215.138 1069.71 214.775L1068.48 214.253C1068.11 214.088 1067.71 213.921 1067.3 213.75C1066.6 213.451 1065.87 213.142 1065.17 212.825L1064.88 212.666C1055.18 208.138 1046.22 202.158 1038.32 194.931C1032.34 189.621 1024.94 186.167 1017.03 184.991C1009.11 183.815 1001.03 184.968 993.759 188.309L988.18 190.804C980.788 194.123 974.506 199.497 970.084 206.284C966.343 212.722 964.362 220.045 964.358 227.514C964.412 247.621 958.705 267.319 947.919 284.279C944.168 290.447 939.767 296.255 934.757 301.595C916.465 321.094 891.436 332.897 864.755 334.607C838.074 336.316 811.744 327.803 791.113 310.798C770.483 293.793 757.1 269.571 753.685 243.055C753.232 239.336 752.869 235.639 752.869 231.988C752.753 223 750.081 214.23 745.166 206.704C740.25 199.179 733.294 193.207 725.111 189.488C717.052 185.836 708.118 184.562 699.359 185.816C690.601 187.069 682.383 190.798 675.672 196.564C657.762 212.129 635.12 221.189 611.417 222.277C587.714 223.365 564.338 216.416 545.078 202.558C538.809 198.047 533.095 192.891 528.016 187.2C524.175 185.294 520.041 183.989 515.755 183.352C507.842 182.176 499.758 183.329 492.489 186.671L486.91 189.165C479.477 192.502 473.168 197.917 468.742 204.757C464.316 211.597 461.962 219.571 461.964 227.719V227.991C461.961 254.726 451.779 280.458 433.487 299.956C415.195 319.455 390.166 331.259 363.485 332.968C336.804 334.677 310.474 326.165 289.843 309.16C269.213 292.155 255.83 267.933 252.415 241.416C251.962 237.697 251.599 234.001 251.599 230.349C251.483 221.361 248.811 212.592 243.896 205.066C238.98 197.54 232.024 191.569 223.841 187.85C215.782 184.198 206.848 182.924 198.089 184.177C189.331 185.431 181.113 189.16 174.402 194.926C156.492 210.49 133.85 219.55 110.147 220.638C86.4441 221.726 63.0682 214.778 43.8076 200.92C24.5471 187.061 10.5306 167.105 4.02979 144.285C-2.47106 121.465 -1.07535 97.1179 7.99072 75.1901C17.0568 53.2624 33.2619 35.0385 53.98 23.4721C74.698 11.9056 98.7149 7.67426 122.138 11.4638C145.562 15.2533 167.019 26.8415 183.034 44.3506C199.048 61.8597 208.68 84.2635 210.37 107.931C210.619 109.7 210.619 111.446 210.619 113.193C210.743 122.197 213.427 130.979 218.359 138.513C223.291 146.048 230.266 152.022 238.468 155.737L239.239 156.078C247.166 159.615 255.945 160.793 264.524 159.47C273.104 158.147 281.12 154.378 287.612 148.616C307.05 131.543 332.108 122.249 357.978 122.517C383.847 122.785 408.707 132.596 427.787 150.068C433.762 155.385 441.157 158.846 449.068 160.026C456.978 161.206 465.061 160.055 472.328 156.713L477.929 154.218C485.36 150.879 491.668 145.464 496.094 138.624C498.649 134.674 500.514 130.347 501.635 125.827C500.249 109.216 502.818 92.4118 509.261 76.8287C514.935 63.1056 523.404 50.8333 534.027 40.7355C534.584 40.176 535.143 39.6168 535.714 39.0797L536.145 38.6715C536.308 38.5207 536.471 38.3708 536.632 38.2217C537.611 37.3173 538.557 36.4439 539.569 35.5872L540.159 35.0883C540.714 34.6402 541.253 34.1971 541.79 33.7567L541.791 33.7561L541.792 33.7552C542.395 33.26 542.994 32.7681 543.606 32.2762L544.332 31.7319C544.973 31.2769 545.573 30.8279 546.165 30.3849L546.167 30.3835L546.168 30.3826L546.169 30.3814C546.726 29.9644 547.276 29.5529 547.847 29.1466L548.686 28.5796C549.404 28.1376 550.123 27.6787 550.851 27.2133L550.853 27.2122L550.854 27.2115C551.321 26.9134 551.791 26.6126 552.269 26.3118L553.199 25.7448L553.203 25.7425C554.404 25.0175 555.604 24.2927 556.85 23.613C557.168 23.4089 557.508 23.2275 557.848 23.0461C559.073 22.3884 560.32 21.7307 561.59 21.0957L562.633 20.6195L562.634 20.6189C563.904 20.0068 565.174 19.3947 566.466 18.8506L567.532 18.397C568.817 17.8527 570.132 17.3312 571.478 16.8322L572.453 16.492C573.836 15.9931 575.22 15.4942 576.648 15.0633L577.147 14.9046C581.82 13.5785 586.578 12.5782 591.389 11.911L592.614 11.7069C593.235 11.6103 593.865 11.5388 594.498 11.467L594.498 11.467C594.905 11.4209 595.313 11.3746 595.721 11.3214L598.306 11.0265C598.899 10.908 599.443 10.896 600.034 10.8829C600.347 10.876 600.674 10.8687 601.028 10.8451C601.309 10.8264 601.602 10.8042 601.896 10.7819L601.897 10.7819C602.672 10.7232 603.459 10.6637 604.067 10.6637H606.629H609.918H612.367H614.93H615.927H616.562C616.784 10.6738 617.006 10.7018 617.228 10.7298C617.505 10.7648 617.782 10.7998 618.059 10.7998C618.339 10.83 618.619 10.8577 618.898 10.8855C619.458 10.9409 620.017 10.9963 620.576 11.0719L622.958 11.3894L625.225 11.7296L627.743 12.1832L629.875 12.614L632.46 13.2037L634.433 13.6799L637.109 14.4283L638.946 14.9726L641.622 15.857L643.368 16.4467L646.022 17.4672L647.722 18.1475C648.394 18.4128 649.066 18.7056 649.727 18.9937C649.914 19.0751 650.1 19.1562 650.285 19.2361L652.009 20.0072L654.435 21.1865L656.227 22.0936L658.495 23.2956L660.377 24.3388L662.35 25.5407L664.368 26.7653L666.092 27.8993L668.36 29.396L669.789 30.4166C670.168 30.7229 670.575 31.0359 670.99 31.3555C671.343 31.6274 671.702 31.904 672.056 32.1855L673.145 33.0246L675.73 35.1337L676.456 35.7687C677.408 36.5851 678.338 37.4015 679.268 38.2633L679.654 38.6262C680.674 39.5787 681.672 40.5311 682.647 41.529C700.225 59.163 710.957 82.4753 712.923 107.296C712.941 107.558 712.959 107.819 712.978 108.079C713.098 109.786 713.218 111.478 713.218 113.17C713.377 122.113 716.069 130.828 720.983 138.303C725.896 145.777 732.829 151.705 740.976 155.397C748.637 158.856 757.091 160.174 765.441 159.211C773.791 158.249 781.724 155.042 788.396 149.932C788.495 149.854 788.593 149.776 788.693 149.698C789.144 149.344 789.602 148.984 790.029 148.594C793.941 145.166 798.102 142.035 802.48 139.228C803.841 138.366 805.224 137.504 806.63 136.688L806.925 136.529C808.263 135.712 809.623 134.964 810.984 134.261L811.415 134.034L811.418 134.033L811.418 134.033C812.778 133.353 814.138 132.673 815.52 132.038L815.996 131.834C817.402 131.199 818.808 130.587 820.26 130.02L820.622 129.861C822.165 129.249 823.707 128.659 825.294 128.138C830.077 126.501 834.973 125.217 839.943 124.296C840.155 124.256 840.37 124.237 840.586 124.237C840.793 124.237 840.999 124.219 841.203 124.184C842.533 123.955 843.881 123.746 845.229 123.557L846.703 123.398L850.263 123.012H852.146L855.343 122.831H857.611H859.289H860.536H862.136C862.213 122.831 862.275 122.831 862.328 122.831C862.409 122.832 862.47 122.832 862.532 122.835C862.634 122.838 863.062 122.867 863.918 122.926L863.921 122.926C864.521 122.967 865.114 122.967 865.707 122.967H867.204L868.655 123.103L870.198 123.262L873.735 123.67L874.96 123.852L878.634 124.464L879.768 124.691C880.821 124.875 881.738 125.09 882.679 125.311L882.683 125.311C882.896 125.361 883.111 125.411 883.328 125.462L884.598 125.757L887.819 126.618L889.406 127.072L892.105 127.934L894.146 128.637C894.599 128.788 895.053 128.959 895.507 129.131C895.733 129.216 895.96 129.302 896.187 129.385L898.772 130.383L900.042 130.927C900.485 131.128 900.968 131.334 901.461 131.544C902.08 131.808 902.715 132.078 903.308 132.356L903.625 132.515C913.322 137.042 922.276 143.014 930.182 150.227C936.161 155.543 943.56 159.003 951.474 160.183C959.388 161.363 967.474 160.212 974.745 156.871L980.324 154.377C986.47 151.617 991.848 147.437 996.029 142.205C996.491 141.571 996.936 140.923 997.364 140.262C1001.24 134.28 1003.52 127.43 1004.03 120.355C1003.72 113.126 1004.14 105.756 1005.36 98.3332C1014.89 40.2495 1069.7 0.89081 1127.79 10.4232C1184.07 19.6596 1222.77 71.4093 1216.44 127.454C1217.75 131.856 1219.7 136.065 1222.25 139.941C1227.17 147.416 1234.1 153.343 1242.25 157.036C1249.91 160.494 1258.36 161.812 1266.71 160.85C1275.06 159.888 1282.99 156.681 1289.67 151.57C1289.75 151.508 1289.82 151.446 1289.9 151.383L1289.96 151.337C1290.41 150.983 1290.87 150.623 1291.3 150.232C1295.21 146.805 1299.37 143.674 1303.75 140.866C1305.11 140.004 1306.49 139.142 1307.9 138.326L1308.19 138.167C1309.53 137.351 1310.89 136.603 1312.25 135.899L1312.69 135.673L1312.69 135.671C1314.05 134.991 1315.41 134.312 1316.79 133.677L1317.27 133.473C1318.67 132.838 1320.08 132.226 1321.53 131.659L1321.89 131.5C1323.43 130.888 1324.98 130.298 1326.56 129.776C1331.35 128.14 1336.24 126.856 1341.21 125.934C1341.43 125.895 1341.64 125.876 1341.86 125.876C1342.06 125.876 1342.27 125.858 1342.47 125.823C1343.8 125.594 1345.15 125.385 1346.5 125.195L1347.97 125.037L1351.53 124.651H1353.42L1356.61 124.47H1358.88H1360.56H1361.81H1363.41C1363.6 124.47 1363.7 124.47 1363.8 124.473C1363.9 124.477 1364.33 124.506 1365.19 124.564L1365.19 124.565C1365.79 124.606 1366.38 124.606 1366.98 124.606H1368.47L1369.93 124.742L1371.47 124.9L1375.01 125.309L1376.23 125.49L1379.9 126.102L1381.04 126.329C1382.09 126.514 1383.01 126.729 1383.95 126.949L1383.95 126.95C1384.17 127 1384.38 127.05 1384.6 127.1L1385.87 127.395L1389.09 128.257L1390.68 128.71L1393.37 129.572L1395.42 130.275C1395.87 130.426 1396.32 130.598 1396.78 130.769C1397 130.855 1397.23 130.941 1397.46 131.024L1400.04 132.021L1401.31 132.566C1401.75 132.764 1402.23 132.967 1402.71 133.175L1402.73 133.18L1402.73 133.183C1403.35 133.446 1403.98 133.717 1404.58 133.994L1404.9 134.153C1414.59 138.681 1423.55 144.653 1431.45 151.865C1437.43 157.182 1444.83 160.642 1452.74 161.822C1460.66 163.002 1468.74 161.851 1476.01 158.51L1481.59 156.015C1489.03 152.678 1495.34 147.264 1499.76 140.424C1504.19 133.583 1506.54 125.609 1506.54 117.462V117.19C1506.55 111.57 1507.01 105.996 1507.9 100.516C1508.01 99.7898 1508.12 99.0628 1508.24 98.3352C1517.77 40.2515 1572.58 0.892778 1630.67 10.4252C1688.75 19.9576 1728.11 74.7713 1718.58 132.855C1710.3 183.282 1667.89 219.595 1618.85 222.055C1615.92 222.257 1612.97 222.337 1610.01 222.292C1584.32 221.899 1559.66 212.091 1540.72 194.727C1534.74 189.416 1527.34 185.961 1519.43 184.785C1511.52 183.609 1503.44 184.763 1496.18 188.105L1490.57 190.6C1483.15 193.941 1476.84 199.357 1472.41 206.196C1467.99 213.035 1465.63 221.007 1465.63 229.153C1465.68 249.424 1459.88 269.28 1448.92 286.334C1437.96 303.387 1422.31 316.914 1403.85 325.287L1403.6 325.4C1402.17 326.058 1400.75 326.647 1399.27 327.237L1398.45 327.555C1397.14 328.076 1395.8 328.552 1394.44 329.006L1393.17 329.46C1391.92 329.868 1390.68 330.231 1389.41 330.594L1387.75 331.07C1386.48 331.387 1385.39 331.659 1384.21 331.932L1382.22 332.408C1381.13 332.635 1379.97 332.839 1378.86 333.02C1378.61 333.065 1378.37 333.124 1378.12 333.184C1377.62 333.306 1377.11 333.428 1376.59 333.428L1373.4 333.859L1370.83 334.154L1367.82 334.381L1364.98 334.562H1362.1H1359.04H1356.3C1356.08 334.552 1355.85 334.538 1355.61 334.521C1355.45 334.51 1355.29 334.498 1355.12 334.486L1355.11 334.485C1354.43 334.434 1353.71 334.381 1353.03 334.381H1351.96C1351.69 334.362 1351.42 334.323 1351.14 334.285C1350.76 334.231 1350.37 334.177 1349.99 334.177L1348.38 334.041H1347.84C1345.46 333.768 1343.19 333.406 1340.92 332.975L1338.43 332.476C1336.47 332.037 1334.55 331.561 1332.64 331.047L1329.19 330.049L1325.04 328.643C1323.41 328.053 1321.82 327.419 1320.24 326.761L1319.81 326.579C1305.02 320.338 1291.86 310.813 1281.3 298.726C1270.75 286.64 1263.08 272.309 1258.89 256.821L1258.69 256.072C1258.08 253.668 1257.53 251.242 1257.08 248.77C1256.9 247.749 1256.69 246.593 1256.56 245.708C1256.52 245.493 1256.49 245.278 1256.45 245.063C1256.42 244.903 1256.39 244.743 1256.36 244.583L1256.36 244.572C1256.26 244.066 1256.17 243.561 1256.1 243.055C1255.65 239.382 1255.38 235.688 1255.31 231.988C1255.12 223.051 1252.41 214.348 1247.49 206.888C1242.56 199.427 1235.63 193.513 1227.48 189.829C1225.12 188.774 1222.67 187.924 1220.16 187.289C1212.79 185.4 1205.08 185.323 1197.68 187.065C1192.98 188.17 1188.5 189.985 1184.39 192.435Z" fill="url(#paint0_linear_2201_1357)"/>
<g filter="url(#filter0_d_2201_1357)">
<path d="M184.135 121.337C187.72 77.2534 154.89 38.6095 110.806 35.0239C66.7219 31.4383 28.078 64.2687 24.4924 108.353C20.9067 152.437 53.7371 191.081 97.8211 194.666C141.905 198.252 180.549 165.421 184.135 121.337Z" fill="white"/>
</g>
<g filter="url(#filter1_d_2201_1357)">
<path d="M355 307.34C399.183 307.34 435 271.523 435 227.34C435 183.157 399.183 147.34 355 147.34C310.817 147.34 275 183.157 275 227.34C275 271.523 310.817 307.34 355 307.34Z" fill="white"/>
</g>
<g filter="url(#filter2_d_2201_1357)">
<path d="M686.025 129.825C693.188 86.179 663.612 44.9904 619.967 37.8275C576.321 30.6646 535.132 60.2398 527.97 103.886C520.807 147.531 550.382 188.72 594.028 195.883C637.673 203.046 678.862 173.47 686.025 129.825Z" fill="white"/>
</g>
<g filter="url(#filter3_d_2201_1357)">
<path d="M1190.02 127.938C1197.19 84.2923 1167.61 43.1038 1123.97 35.9408C1080.32 28.7779 1039.13 58.3532 1031.97 101.999C1024.81 145.645 1054.38 186.833 1098.03 193.996C1141.67 201.159 1182.86 171.584 1190.02 127.938Z" fill="white"/>
</g>
<g filter="url(#filter4_d_2201_1357)">
<path d="M858 308.34C901.631 308.34 937 272.523 937 228.34C937 184.157 901.631 148.34 858 148.34C814.37 148.34 779 184.157 779 228.34C779 272.523 814.37 308.34 858 308.34Z" fill="white"/>
</g>
<g filter="url(#filter5_d_2201_1357)">
<path d="M1693.02 128.88C1700.19 85.2347 1670.61 44.0461 1626.97 36.8832C1583.32 29.7203 1542.13 59.2956 1534.97 102.941C1527.81 146.587 1557.38 187.775 1601.03 194.938C1644.67 202.101 1685.86 172.526 1693.02 128.88Z" fill="white"/>
</g>
<g filter="url(#filter6_d_2201_1357)">
<path d="M1438.02 243.107C1445.19 199.461 1415.61 158.273 1371.97 151.11C1328.32 143.947 1287.13 173.522 1279.97 217.168C1272.81 260.814 1302.38 302.002 1346.03 309.165C1389.67 316.328 1430.86 286.753 1438.02 243.107Z" fill="white"/>
</g>
<path opacity="0.2" d="M87.16 139.64C83.5333 139.64 80.4187 138.723 77.816 136.888C75.256 135.011 73.272 132.365 71.864 128.952C70.4987 125.496 69.816 121.379 69.816 116.6C69.816 111.821 70.4987 107.725 71.864 104.312C73.272 100.856 75.256 98.2107 77.816 96.376C80.4187 94.4987 83.5333 93.56 87.16 93.56C90.7867 93.56 93.9013 94.4987 96.504 96.376C99.1067 98.2107 101.091 100.856 102.456 104.312C103.864 107.725 104.568 111.821 104.568 116.6C104.568 121.379 103.864 125.496 102.456 128.952C101.091 132.365 99.1067 135.011 96.504 136.888C93.9013 138.723 90.7867 139.64 87.16 139.64ZM87.16 132.344C90.1467 132.344 92.4507 130.979 94.072 128.248C95.736 125.475 96.568 121.592 96.568 116.6C96.568 111.565 95.736 107.661 94.072 104.888C92.4507 102.115 90.1467 100.728 87.16 100.728C84.1733 100.728 81.848 102.115 80.184 104.888C78.5627 107.661 77.752 111.565 77.752 116.6C77.752 121.592 78.5627 125.475 80.184 128.248C81.848 130.979 84.1733 132.344 87.16 132.344ZM121.135 135.864V99.512L123.503 102.584L114.415 107.192L112.559 99.896L124.783 93.56H129.391V135.864H121.135ZM113.647 139V131.32H137.071V139H113.647Z" fill="#3491FF"/>
<path opacity="0.2" d="M337.16 251.64C333.533 251.64 330.419 250.723 327.816 248.888C325.256 247.011 323.272 244.365 321.864 240.952C320.499 237.496 319.816 233.379 319.816 228.6C319.816 223.821 320.499 219.725 321.864 216.312C323.272 212.856 325.256 210.211 327.816 208.376C330.419 206.499 333.533 205.56 337.16 205.56C340.787 205.56 343.901 206.499 346.504 208.376C349.107 210.211 351.091 212.856 352.456 216.312C353.864 219.725 354.568 223.821 354.568 228.6C354.568 233.379 353.864 237.496 352.456 240.952C351.091 244.365 349.107 247.011 346.504 248.888C343.901 250.723 340.787 251.64 337.16 251.64ZM337.16 244.344C340.147 244.344 342.451 242.979 344.072 240.248C345.736 237.475 346.568 233.592 346.568 228.6C346.568 223.565 345.736 219.661 344.072 216.888C342.451 214.115 340.147 212.728 337.16 212.728C334.173 212.728 331.848 214.115 330.184 216.888C328.563 219.661 327.752 223.565 327.752 228.6C327.752 233.592 328.563 237.475 330.184 240.248C331.848 242.979 334.173 244.344 337.16 244.344ZM362.559 251L360.447 245.752L373.887 230.712C374.655 229.944 375.444 229.069 376.255 228.088C377.066 227.064 377.834 226.019 378.559 224.952C379.327 223.843 379.946 222.776 380.415 221.752C380.884 220.685 381.119 219.704 381.119 218.808C381.119 217.656 380.863 216.653 380.351 215.8C379.882 214.947 379.199 214.285 378.303 213.816C377.407 213.347 376.298 213.112 374.975 213.112C373.823 213.112 372.692 213.453 371.583 214.136C370.516 214.776 369.514 215.715 368.575 216.952C367.679 218.147 366.932 219.576 366.335 221.24L360.063 217.528C360.831 215.053 361.983 212.92 363.519 211.128C365.098 209.293 366.932 207.885 369.023 206.904C371.156 205.923 373.46 205.432 375.935 205.432C378.495 205.432 380.778 205.965 382.783 207.032C384.788 208.099 386.367 209.571 387.519 211.448C388.714 213.325 389.311 215.523 389.311 218.04C389.311 218.979 389.204 219.96 388.991 220.984C388.778 221.965 388.436 223.011 387.967 224.12C387.54 225.187 386.964 226.317 386.239 227.512C385.514 228.664 384.639 229.88 383.615 231.16C382.634 232.44 381.503 233.784 380.223 235.192L370.047 246.264L368.767 243.32H390.911V251H362.559Z" fill="#3491FF"/>
<path opacity="0.2" d="M588.16 140.64C584.533 140.64 581.419 139.723 578.816 137.888C576.256 136.011 574.272 133.365 572.864 129.952C571.499 126.496 570.816 122.379 570.816 117.6C570.816 112.821 571.499 108.725 572.864 105.312C574.272 101.856 576.256 99.2107 578.816 97.376C581.419 95.4987 584.533 94.56 588.16 94.56C591.787 94.56 594.901 95.4987 597.504 97.376C600.107 99.2107 602.091 101.856 603.456 105.312C604.864 108.725 605.568 112.821 605.568 117.6C605.568 122.379 604.864 126.496 603.456 129.952C602.091 133.365 600.107 136.011 597.504 137.888C594.901 139.723 591.787 140.64 588.16 140.64ZM588.16 133.344C591.147 133.344 593.451 131.979 595.072 129.248C596.736 126.475 597.568 122.592 597.568 117.6C597.568 112.565 596.736 108.661 595.072 105.888C593.451 103.115 591.147 101.728 588.16 101.728C585.173 101.728 582.848 103.115 581.184 105.888C579.563 108.661 578.752 112.565 578.752 117.6C578.752 122.592 579.563 126.475 581.184 129.248C582.848 131.979 585.173 133.344 588.16 133.344ZM625.271 140.64C621.943 140.64 619.042 139.915 616.567 138.464C614.092 136.971 611.81 134.453 609.719 130.912L615.991 126.944C616.972 128.523 617.975 129.803 618.999 130.784C620.066 131.723 621.132 132.427 622.199 132.896C623.308 133.323 624.482 133.536 625.719 133.536C627.127 133.536 628.407 133.195 629.559 132.512C630.754 131.829 631.692 130.891 632.375 129.696C633.1 128.501 633.463 127.136 633.463 125.6C633.463 124.064 633.164 122.763 632.567 121.696C632.012 120.629 631.18 119.819 630.071 119.264C629.004 118.667 627.703 118.368 626.167 118.368C625.484 118.368 624.759 118.453 623.991 118.624C623.223 118.752 622.412 118.965 621.559 119.264C620.706 119.52 619.767 119.84 618.743 120.224L616.695 114.784L629.431 100.704L631.351 102.56L612.471 102.432V95.072H638.775L640.311 98.144L625.591 114.208L623.671 112.096C624.012 111.925 624.567 111.776 625.335 111.648C626.146 111.477 626.85 111.392 627.447 111.392C629.324 111.392 631.116 111.755 632.823 112.48C634.53 113.163 636.002 114.144 637.239 115.424C638.519 116.704 639.522 118.197 640.247 119.904C640.972 121.568 641.335 123.381 641.335 125.344C641.335 128.288 640.61 130.912 639.159 133.216C637.751 135.477 635.831 137.291 633.399 138.656C630.967 139.979 628.258 140.64 625.271 140.64Z" fill="#3491FF"/>
<path opacity="0.2" d="M840.16 252.64C836.533 252.64 833.419 251.723 830.816 249.888C828.256 248.011 826.272 245.365 824.864 241.952C823.499 238.496 822.816 234.379 822.816 229.6C822.816 224.821 823.499 220.725 824.864 217.312C826.272 213.856 828.256 211.211 830.816 209.376C833.419 207.499 836.533 206.56 840.16 206.56C843.787 206.56 846.901 207.499 849.504 209.376C852.107 211.211 854.091 213.856 855.456 217.312C856.864 220.725 857.568 224.821 857.568 229.6C857.568 234.379 856.864 238.496 855.456 241.952C854.091 245.365 852.107 248.011 849.504 249.888C846.901 251.723 843.787 252.64 840.16 252.64ZM840.16 245.344C843.147 245.344 845.451 243.979 847.072 241.248C848.736 238.475 849.568 234.592 849.568 229.6C849.568 224.565 848.736 220.661 847.072 217.888C845.451 215.115 843.147 213.728 840.16 213.728C837.173 213.728 834.848 215.115 833.184 217.888C831.563 220.661 830.752 224.565 830.752 229.6C830.752 234.592 831.563 238.475 833.184 241.248C834.848 243.979 837.173 245.344 840.16 245.344ZM882.839 252V215.84L885.911 216.16L870.679 234.784L869.975 233.632H898.455V240.864H865.495L862.039 234.208L884.311 207.072H890.839V252H882.839Z" fill="#3491FF"/>
<path opacity="0.2" d="M1091.16 139.64C1087.53 139.64 1084.42 138.723 1081.82 136.888C1079.26 135.011 1077.27 132.365 1075.86 128.952C1074.5 125.496 1073.82 121.379 1073.82 116.6C1073.82 111.821 1074.5 107.725 1075.86 104.312C1077.27 100.856 1079.26 98.2107 1081.82 96.376C1084.42 94.4987 1087.53 93.56 1091.16 93.56C1094.79 93.56 1097.9 94.4987 1100.5 96.376C1103.11 98.2107 1105.09 100.856 1106.46 104.312C1107.86 107.725 1108.57 111.821 1108.57 116.6C1108.57 121.379 1107.86 125.496 1106.46 128.952C1105.09 132.365 1103.11 135.011 1100.5 136.888C1097.9 138.723 1094.79 139.64 1091.16 139.64ZM1091.16 132.344C1094.15 132.344 1096.45 130.979 1098.07 128.248C1099.74 125.475 1100.57 121.592 1100.57 116.6C1100.57 111.565 1099.74 107.661 1098.07 104.888C1096.45 102.115 1094.15 100.728 1091.16 100.728C1088.17 100.728 1085.85 102.115 1084.18 104.888C1082.56 107.661 1081.75 111.565 1081.75 116.6C1081.75 121.592 1082.56 125.475 1084.18 128.248C1085.85 130.979 1088.17 132.344 1091.16 132.344ZM1128.4 139.448C1125.28 139.448 1122.47 138.787 1119.95 137.464C1117.43 136.099 1115.34 134.136 1113.68 131.576L1118.29 126.584C1120.16 128.675 1121.85 130.125 1123.34 130.936C1124.84 131.704 1126.48 132.088 1128.27 132.088C1129.89 132.088 1131.34 131.747 1132.62 131.064C1133.9 130.339 1134.93 129.379 1135.7 128.184C1136.46 126.947 1136.85 125.603 1136.85 124.152C1136.85 122.573 1136.48 121.187 1135.76 119.992C1135.03 118.755 1134.05 117.773 1132.82 117.048C1131.58 116.323 1130.17 115.96 1128.59 115.96C1127.74 115.96 1126.93 116.024 1126.16 116.152C1125.39 116.28 1124.5 116.536 1123.47 116.92C1122.49 117.304 1121.23 117.901 1119.7 118.712L1115.73 113.336L1118.35 94.072H1143.12V101.432H1123.02L1124.88 99.384L1122.77 113.592L1120.4 111.928C1120.95 111.416 1121.76 110.925 1122.83 110.456C1123.94 109.987 1125.14 109.603 1126.42 109.304C1127.7 109.005 1128.95 108.856 1130.19 108.856C1132.96 108.856 1135.44 109.496 1137.62 110.776C1139.79 112.056 1141.52 113.827 1142.8 116.088C1144.08 118.307 1144.72 120.867 1144.72 123.768C1144.72 126.712 1143.99 129.379 1142.54 131.768C1141.14 134.115 1139.19 135.992 1136.72 137.4C1134.24 138.765 1131.47 139.448 1128.4 139.448Z" fill="#3491FF"/>
<path opacity="0.2" d="M1340.38 254.64C1336.75 254.64 1333.64 253.723 1331.03 251.888C1328.47 250.011 1326.49 247.365 1325.08 243.952C1323.72 240.496 1323.03 236.379 1323.03 231.6C1323.03 226.821 1323.72 222.725 1325.08 219.312C1326.49 215.856 1328.47 213.211 1331.03 211.376C1333.64 209.499 1336.75 208.56 1340.38 208.56C1344.01 208.56 1347.12 209.499 1349.72 211.376C1352.33 213.211 1354.31 215.856 1355.67 219.312C1357.08 222.725 1357.79 226.821 1357.79 231.6C1357.79 236.379 1357.08 240.496 1355.67 243.952C1354.31 247.365 1352.33 250.011 1349.72 251.888C1347.12 253.723 1344.01 254.64 1340.38 254.64ZM1340.38 247.344C1343.37 247.344 1345.67 245.979 1347.29 243.248C1348.95 240.475 1349.79 236.592 1349.79 231.6C1349.79 226.565 1348.95 222.661 1347.29 219.888C1345.67 217.115 1343.37 215.728 1340.38 215.728C1337.39 215.728 1335.07 217.115 1333.4 219.888C1331.78 222.661 1330.97 226.565 1330.97 231.6C1330.97 236.592 1331.78 240.475 1333.4 243.248C1335.07 245.979 1337.39 247.344 1340.38 247.344ZM1378.96 254C1376.7 254 1374.59 253.595 1372.63 252.784C1370.71 251.973 1369.02 250.864 1367.57 249.456C1366.16 248.005 1365.05 246.32 1364.24 244.4C1363.43 242.48 1363.03 240.368 1363.03 238.064C1363.03 236.784 1363.18 235.419 1363.47 233.968C1363.82 232.517 1364.31 230.981 1364.95 229.36C1365.63 227.696 1366.42 225.968 1367.31 224.176C1368.21 222.384 1369.26 220.507 1370.45 218.544L1376.4 208.432H1384.34L1384.59 209.072L1376.98 221.616C1375.74 223.664 1374.65 225.605 1373.71 227.44C1372.78 229.232 1371.96 230.96 1371.28 232.624C1370.64 234.245 1370.11 235.824 1369.68 237.36L1367.95 231.536C1368.59 230.171 1369.38 228.933 1370.32 227.824C1371.26 226.715 1372.31 225.776 1373.46 225.008C1374.61 224.24 1375.8 223.664 1377.04 223.28C1378.32 222.896 1379.62 222.704 1380.95 222.704C1383.42 222.704 1385.7 223.387 1387.79 224.752C1389.88 226.075 1391.55 227.845 1392.79 230.064C1394.07 232.283 1394.71 234.715 1394.71 237.36C1394.71 240.56 1394.02 243.419 1392.66 245.936C1391.34 248.411 1389.48 250.373 1387.09 251.824C1384.7 253.275 1381.99 254 1378.96 254ZM1379.03 246.704C1380.56 246.704 1381.93 246.341 1383.12 245.616C1384.36 244.891 1385.32 243.888 1386 242.608C1386.68 241.285 1387.03 239.771 1387.03 238.064C1387.03 236.613 1386.66 235.269 1385.94 234.032C1385.26 232.752 1384.32 231.728 1383.12 230.96C1381.93 230.149 1380.58 229.744 1379.09 229.744C1377.47 229.744 1376.02 230.128 1374.74 230.896C1373.5 231.621 1372.52 232.624 1371.79 233.904C1371.11 235.141 1370.77 236.528 1370.77 238.064C1370.77 239.685 1371.11 241.157 1371.79 242.48C1372.52 243.76 1373.5 244.784 1374.74 245.552C1375.98 246.32 1377.4 246.704 1379.03 246.704Z" fill="#3491FF"/>
<path opacity="0.2" d="M1595.5 140.64C1591.88 140.64 1588.76 139.723 1586.16 137.888C1583.6 136.011 1581.62 133.365 1580.21 129.952C1578.84 126.496 1578.16 122.379 1578.16 117.6C1578.16 112.821 1578.84 108.725 1580.21 105.312C1581.62 101.856 1583.6 99.2107 1586.16 97.376C1588.76 95.4987 1591.88 94.56 1595.5 94.56C1599.13 94.56 1602.25 95.4987 1604.85 97.376C1607.45 99.2107 1609.43 101.856 1610.8 105.312C1612.21 108.725 1612.91 112.821 1612.91 117.6C1612.91 122.379 1612.21 126.496 1610.8 129.952C1609.43 133.365 1607.45 136.011 1604.85 137.888C1602.25 139.723 1599.13 140.64 1595.5 140.64ZM1595.5 133.344C1598.49 133.344 1600.79 131.979 1602.42 129.248C1604.08 126.475 1604.91 122.592 1604.91 117.6C1604.91 112.565 1604.08 108.661 1602.42 105.888C1600.79 103.115 1598.49 101.728 1595.5 101.728C1592.52 101.728 1590.19 103.115 1588.53 105.888C1586.91 108.661 1586.1 112.565 1586.1 117.6C1586.1 122.592 1586.91 126.475 1588.53 129.248C1590.19 131.979 1592.52 133.344 1595.5 133.344ZM1622.25 140L1640.61 99.424L1642.15 102.56H1619.24V95.072H1647.46L1648.42 99.744L1630.89 140H1622.25Z" fill="#3491FF"/>
<defs>
<filter id="filter0_d_2201_1357" x="8.22461" y="24.756" width="192.178" height="192.178" filterUnits="userSpaceOnUse" color-interpolation-filters="sRGB">
<feFlood flood-opacity="0" result="BackgroundImageFix"/>
<feColorMatrix in="SourceAlpha" type="matrix" values="0 0 0 0 0 0 0 0 0 0 0 0 0 0 0 0 0 0 127 0" result="hardAlpha"/>
<feOffset dy="6"/>
<feGaussianBlur stdDeviation="8"/>
<feComposite in2="hardAlpha" operator="out"/>
<feColorMatrix type="matrix" values="0 0 0 0 0 0 0 0 0 0.315217 0 0 0 0 0.604167 0 0 0 0.7 0"/>
<feBlend mode="normal" in2="BackgroundImageFix" result="effect1_dropShadow_2201_1357"/>
<feBlend mode="normal" in="SourceGraphic" in2="effect1_dropShadow_2201_1357" result="shape"/>
</filter>
<filter id="filter1_d_2201_1357" x="259" y="137.34" width="192" height="192" filterUnits="userSpaceOnUse" color-interpolation-filters="sRGB">
<feFlood flood-opacity="0" result="BackgroundImageFix"/>
<feColorMatrix in="SourceAlpha" type="matrix" values="0 0 0 0 0 0 0 0 0 0 0 0 0 0 0 0 0 0 127 0" result="hardAlpha"/>
<feOffset dy="6"/>
<feGaussianBlur stdDeviation="8"/>
<feComposite in2="hardAlpha" operator="out"/>
<feColorMatrix type="matrix" values="0 0 0 0 0 0 0 0 0 0.315217 0 0 0 0 0.604167 0 0 0 0.7 0"/>
<feBlend mode="normal" in2="BackgroundImageFix" result="effect1_dropShadow_2201_1357"/>
<feBlend mode="normal" in="SourceGraphic" in2="effect1_dropShadow_2201_1357" result="shape"/>
</filter>
<filter id="filter2_d_2201_1357" x="510.9" y="26.7581" width="192.193" height="192.194" filterUnits="userSpaceOnUse" color-interpolation-filters="sRGB">
<feFlood flood-opacity="0" result="BackgroundImageFix"/>
<feColorMatrix in="SourceAlpha" type="matrix" values="0 0 0 0 0 0 0 0 0 0 0 0 0 0 0 0 0 0 127 0" result="hardAlpha"/>
<feOffset dy="6"/>
<feGaussianBlur stdDeviation="8"/>
<feComposite in2="hardAlpha" operator="out"/>
<feColorMatrix type="matrix" values="0 0 0 0 0 0 0 0 0 0.315217 0 0 0 0 0.604167 0 0 0 0.7 0"/>
<feBlend mode="normal" in2="BackgroundImageFix" result="effect1_dropShadow_2201_1357"/>
<feBlend mode="normal" in="SourceGraphic" in2="effect1_dropShadow_2201_1357" result="shape"/>
</filter>
<filter id="filter3_d_2201_1357" x="1014.9" y="24.8715" width="192.193" height="192.194" filterUnits="userSpaceOnUse" color-interpolation-filters="sRGB">
<feFlood flood-opacity="0" result="BackgroundImageFix"/>
<feColorMatrix in="SourceAlpha" type="matrix" values="0 0 0 0 0 0 0 0 0 0 0 0 0 0 0 0 0 0 127 0" result="hardAlpha"/>
<feOffset dy="6"/>
<feGaussianBlur stdDeviation="8"/>
<feComposite in2="hardAlpha" operator="out"/>
<feColorMatrix type="matrix" values="0 0 0 0 0 0 0 0 0 0.315217 0 0 0 0 0.604167 0 0 0 0.7 0"/>
<feBlend mode="normal" in2="BackgroundImageFix" result="effect1_dropShadow_2201_1357"/>
<feBlend mode="normal" in="SourceGraphic" in2="effect1_dropShadow_2201_1357" result="shape"/>
</filter>
<filter id="filter4_d_2201_1357" x="763" y="138.34" width="190" height="192" filterUnits="userSpaceOnUse" color-interpolation-filters="sRGB">
<feFlood flood-opacity="0" result="BackgroundImageFix"/>
<feColorMatrix in="SourceAlpha" type="matrix" values="0 0 0 0 0 0 0 0 0 0 0 0 0 0 0 0 0 0 127 0" result="hardAlpha"/>
<feOffset dy="6"/>
<feGaussianBlur stdDeviation="8"/>
<feComposite in2="hardAlpha" operator="out"/>
<feColorMatrix type="matrix" values="0 0 0 0 0 0 0 0 0 0.315217 0 0 0 0 0.604167 0 0 0 0.7 0"/>
<feBlend mode="normal" in2="BackgroundImageFix" result="effect1_dropShadow_2201_1357"/>
<feBlend mode="normal" in="SourceGraphic" in2="effect1_dropShadow_2201_1357" result="shape"/>
</filter>
<filter id="filter5_d_2201_1357" x="1517.9" y="25.8138" width="192.193" height="192.194" filterUnits="userSpaceOnUse" color-interpolation-filters="sRGB">
<feFlood flood-opacity="0" result="BackgroundImageFix"/>
<feColorMatrix in="SourceAlpha" type="matrix" values="0 0 0 0 0 0 0 0 0 0 0 0 0 0 0 0 0 0 127 0" result="hardAlpha"/>
<feOffset dy="6"/>
<feGaussianBlur stdDeviation="8"/>
<feComposite in2="hardAlpha" operator="out"/>
<feColorMatrix type="matrix" values="0 0 0 0 0 0 0 0 0 0.315217 0 0 0 0 0.604167 0 0 0 0.7 0"/>
<feBlend mode="normal" in2="BackgroundImageFix" result="effect1_dropShadow_2201_1357"/>
<feBlend mode="normal" in="SourceGraphic" in2="effect1_dropShadow_2201_1357" result="shape"/>
</filter>
<filter id="filter6_d_2201_1357" x="1262.9" y="140.04" width="192.193" height="192.194" filterUnits="userSpaceOnUse" color-interpolation-filters="sRGB">
<feFlood flood-opacity="0" result="BackgroundImageFix"/>
<feColorMatrix in="SourceAlpha" type="matrix" values="0 0 0 0 0 0 0 0 0 0 0 0 0 0 0 0 0 0 127 0" result="hardAlpha"/>
<feOffset dy="6"/>
<feGaussianBlur stdDeviation="8"/>
<feComposite in2="hardAlpha" operator="out"/>
<feColorMatrix type="matrix" values="0 0 0 0 0 0 0 0 0 0.315217 0 0 0 0 0.604167 0 0 0 0.7 0"/>
<feBlend mode="normal" in2="BackgroundImageFix" result="effect1_dropShadow_2201_1357"/>
<feBlend mode="normal" in="SourceGraphic" in2="effect1_dropShadow_2201_1357" result="shape"/>
</filter>
<linearGradient id="paint0_linear_2201_1357" x1="-225.437" y1="9.00001" x2="-133.037" y2="549.735" gradientUnits="userSpaceOnUse">
<stop stop-color="#00C673" stop-opacity="0.8"/>
<stop offset="1" stop-color="#1F75DA"/>
</linearGradient>
</defs>
</svg>
